<?xml version="1.0" standalone="no"?>
<!DOCTYPE svg PUBLIC "-//W3C//DTD SVG 20010904//EN"
 "http://www.w3.org/TR/2001/REC-SVG-20010904/DTD/svg10.dtd">
<svg version="1.0" xmlns="http://www.w3.org/2000/svg"
 width="1280.000000pt" height="640.000000pt" viewBox="0 0 1280.000000 640.000000"
 preserveAspectRatio="xMidYMid meet">
<metadata>
Created by potrace 1.15, written by Peter Selinger 2001-2017
</metadata>
<g transform="translate(0.000000,640.000000) scale(0.100000,-0.100000)"
fill="#000000" stroke="none">
<path d="M9205 4923 c4 -32 29 -145 56 -251 30 -113 53 -232 59 -290 6 -67 17
-117 35 -162 29 -69 37 -152 17 -172 -6 -6 -62 -16 -123 -21 l-112 -10 -24 29
c-62 75 -220 359 -277 497 l-15 37 39 25 c22 14 40 33 40 43 0 21 -125 100
-216 135 -123 49 -167 52 -654 51 -582 -2 -966 -21 -1885 -95 -560 -44 -670
-57 -760 -84 -44 -14 -128 -31 -186 -39 -109 -16 -167 -34 -327 -105 -51 -23
-159 -64 -239 -92 -232 -80 -316 -127 -523 -294 -196 -158 -364 -343 -475
-524 l-36 -58 -132 -7 c-73 -3 -253 -11 -402 -16 -327 -12 -525 -26 -665 -46
-126 -18 -130 -19 -130 -39 0 -9 -12 -36 -26 -61 -60 -102 -40 -379 51 -693
25 -84 25 -101 1 -101 -7 0 -20 -8 -30 -18 -14 -17 -15 -28 -5 -98 10 -72 57
-305 62 -311 2 -1 36 -7 77 -14 52 -8 191 -10 450 -7 l375 5 31 -91 c17 -50
42 -117 57 -149 l27 -59 -62 6 c-35 3 -209 8 -387 12 l-324 6 7 -32 6 -33
-122 7 c-227 12 -1040 17 -1428 9 -374 -8 -385 -9 -388 -28 -6 -34 -18 -37
-68 -20 -65 22 -150 20 -280 -5 -76 -15 -137 -20 -199 -18 l-90 3 -3 -52 c-4
-64 0 -65 110 -29 70 23 87 25 256 22 130 -2 185 -6 196 -16 13 -10 86 -12
334 -11 174 1 334 4 354 8 25 4 44 1 55 -8 12 -11 46 -13 138 -11 l121 3 25
-38 c31 -48 49 -51 92 -14 41 36 70 39 147 12 46 -15 78 -18 205 -15 118 3
152 7 161 18 9 13 43 14 250 6 131 -5 356 -10 499 -10 l260 0 18 -32 18 -31
172 5 172 5 0 -36 c0 -35 1 -36 40 -39 22 -2 157 4 300 13 220 15 388 16 458
2 7 -1 13 10 15 26 4 34 22 35 134 6 47 -12 97 -19 119 -16 31 4 39 1 50 -19
l12 -24 527 0 c744 0 1098 9 1117 28 12 12 36 15 126 11 62 -2 178 -4 259 -4
l147 0 3 -35 c3 -41 6 -41 148 -22 102 14 372 15 570 2 233 -16 507 -13 616 5
72 13 106 14 142 6 150 -32 344 -22 477 25 54 19 91 25 164 25 51 0 106 -5
121 -11 17 -7 55 -10 97 -6 37 3 174 9 303 15 129 5 300 13 380 17 111 5 176
3 277 -10 130 -17 134 -17 211 3 91 24 276 36 777 52 187 6 381 14 430 19 50
5 160 14 245 20 85 6 205 16 267 22 126 13 359 5 522 -16 110 -15 143 -10 155
21 11 29 -28 53 -86 53 -27 0 -57 4 -67 9 -12 7 -32 5 -62 -6 -50 -17 -145
-13 -194 8 l-30 13 30 4 c39 5 55 19 55 48 0 35 -32 47 -109 40 -46 -4 -78 -2
-106 9 -41 14 -316 22 -349 9 -31 -12 -16 -24 29 -24 25 0 45 -4 45 -10 0 -11
-52 -13 -87 -4 -11 3 -23 14 -26 25 -5 18 -16 19 -147 19 l-141 0 19 28 c11
15 38 63 60 107 22 44 48 87 58 96 13 12 47 18 114 22 52 4 156 18 230 33 99
19 187 28 330 34 177 7 244 16 276 38 11 7 19 42 30 140 6 45 11 55 36 68 52
27 59 88 11 100 -22 6 -101 -1 -148 -12 -16 -4 -23 2 -33 29 -16 45 -55 64
-164 79 l-83 13 63 6 c68 7 98 23 72 39 -8 5 -64 10 -125 11 l-110 2 82 10 81
10 11 43 c6 24 10 49 9 56 -2 7 16 17 42 23 33 9 46 17 48 32 5 34 -54 48
-191 46 -183 -2 -181 -1 -202 -78 -9 -35 -15 -86 -13 -114 l3 -49 -97 -7 -98
-7 0 -38 c0 -38 0 -38 50 -45 54 -7 126 1 136 16 3 5 15 4 27 -3 14 -9 66 -13
149 -13 77 0 131 -4 138 -11 19 -19 -1068 -62 -1794 -71 l-548 -6 23 44 c16
31 24 67 27 124 4 83 -11 190 -30 201 -22 14 -33 -21 -38 -127 -4 -82 -9 -112
-20 -119 -36 -23 -96 -32 -256 -37 l-171 -6 -6 24 c-6 22 -7 22 -25 6 -26 -24
-81 -39 -114 -31 -24 5 -27 9 -22 30 5 21 3 24 -19 24 -16 0 -31 10 -42 26
-16 25 -19 26 -81 19 -91 -9 -515 5 -507 18 4 6 81 8 212 5 113 -3 239 -1 280
3 85 10 177 37 164 50 -4 4 -37 9 -73 11 l-65 3 50 12 c28 6 71 15 98 18 l47
6 0 43 c0 41 1 42 28 38 33 -4 62 22 44 40 -13 13 -127 12 -217 -2 -36 -6
-184 -9 -332 -8 -180 1 -283 -2 -313 -10 -42 -11 -46 -10 -60 10 -56 82 -112
121 -192 133 -37 6 -48 11 -50 28 -2 17 -13 23 -48 30 -45 8 -432 2 -547 -10
-60 -5 -61 -6 -68 -39 -10 -54 -45 -88 -93 -88 -49 -1 -58 -11 -140 -161 l-60
-110 -423 -10 -423 -10 -13 -25 c-17 -34 0 -50 53 -50 39 0 43 -2 46 -27 3
-24 9 -29 43 -35 22 -4 90 -7 152 -7 61 -1 118 -4 127 -7 35 -13 6 -124 -45
-171 -13 -12 -47 -32 -74 -45 -48 -22 -63 -23 -364 -28 -205 -3 -315 -2 -317
5 -8 29 -35 679 -32 795 l3 135 85 2 c47 2 234 10 415 18 182 8 407 15 500 15
480 1 612 35 684 178 16 33 41 73 56 90 29 35 4 32 460 58 313 17 704 48 888
69 153 18 164 18 151 5 -5 -5 -59 -19 -119 -30 -61 -12 -177 -37 -259 -57
l-148 -35 5 -28 c5 -24 2 -28 -30 -36 -51 -13 -65 -39 -34 -65 22 -18 39 -19
238 -18 118 0 216 -1 219 -3 5 -6 -279 -27 -331 -25 -31 2 -40 -2 -43 -17 -4
-18 2 -19 92 -14 101 5 146 1 146 -13 0 -5 -63 -9 -141 -9 -125 0 -147 -3
-190 -22 -45 -21 -70 -51 -55 -65 3 -4 132 -8 286 -11 276 -5 280 -4 280 16 0
13 -9 22 -27 28 -27 7 -27 7 12 15 22 4 80 8 128 8 l88 1 -3 -57 -3 -58 33 1
c37 2 36 4 20 -48 -10 -33 -9 -41 3 -49 38 -24 56 2 69 93 5 34 13 64 17 68 4
5 31 3 59 -3 97 -20 126 2 174 131 38 102 46 166 31 258 -6 38 -8 70 -5 73 2
3 24 -14 47 -37 32 -32 51 -42 75 -42 29 0 32 3 32 30 0 17 5 30 11 30 19 0 1
-190 -32 -340 -16 -74 -32 -165 -36 -201 -5 -58 -3 -67 13 -74 30 -13 517 -14
1011 -3 417 10 563 7 563 -10 0 -4 -78 -8 -174 -8 -97 -1 -182 -6 -192 -12
-16 -9 -14 -12 18 -27 31 -15 51 -16 156 -9 66 5 130 7 142 4 21 -5 21 -6 3
-21 -10 -9 -56 -35 -102 -57 -83 -39 -85 -39 -100 -20 -14 16 -27 19 -91 16
-72 -3 -75 -4 -78 -29 -3 -27 1 -26 -102 -28 -14 -1 -65 20 -114 45 -64 33
-101 46 -135 47 -45 2 -46 1 -49 -30 -3 -31 -6 -33 -42 -33 -37 0 -39 -2 -54
-47 -27 -79 -28 -78 71 -75 112 5 180 -10 224 -49 l34 -29 -22 -16 c-29 -20
-29 -53 -2 -88 23 -29 67 -35 74 -11 15 48 15 48 29 35 12 -9 17 -7 26 10 l11
21 17 -21 c10 -13 34 -23 58 -27 69 -9 113 31 61 54 -22 10 -24 19 -30 109 -5
79 -4 101 8 113 12 12 19 12 41 2 l27 -12 -7 -97 c-5 -76 -4 -102 7 -116 14
-19 18 -16 93 45 68 55 86 64 129 69 46 5 50 7 56 37 3 17 25 53 48 79 23 26
40 52 38 58 -2 6 -18 20 -35 31 -17 11 -31 23 -32 26 0 8 654 2 828 -7 61 -3
112 -10 112 -15 0 -4 -9 -17 -20 -27 -31 -28 -44 -223 -20 -286 10 -28 12 -28
28 -12 14 13 18 39 20 129 l3 112 50 46 c48 45 60 77 41 105 -4 6 -36 16 -72
23 -35 7 -81 21 -101 32 -44 22 -92 76 -85 95 17 45 78 294 92 378 17 100 16
307 -1 349 -11 27 -87 57 -169 67 -52 6 -114 4 -240 -11 -94 -10 -225 -19
-290 -19 -66 0 -157 -7 -204 -16 -55 -10 -103 -13 -136 -9 -28 4 -117 6 -199
5 -136 -2 -152 0 -215 24 -76 29 -380 80 -567 95 -66 6 -264 17 -440 26 -176
9 -361 18 -412 21 l-91 6 -46 102 c-77 172 -79 180 -81 316 -2 113 -6 136 -38
235 -19 61 -40 141 -46 179 -11 72 -31 106 -63 106 -18 0 -19 -5 -13 -57z
m-857 -179 c19 -22 29 -25 54 -20 32 6 197 -12 210 -23 4 -3 -230 -6 -520 -6
-740 0 -1342 -27 -1424 -63 -102 -45 -172 -187 -253 -516 -44 -177 -46 -244
-7 -287 37 -42 105 -59 197 -49 39 5 153 13 255 19 102 7 480 38 840 71 652
59 754 66 1305 95 351 18 811 10 740 -14 -23 -7 -129 -16 -255 -21 -118 -4
-231 -11 -250 -14 -104 -18 -1180 -96 -2015 -146 -914 -55 -1155 -70 -1210
-76 -80 -8 -67 1 30 21 44 9 98 26 120 38 36 20 43 30 67 102 37 110 150 491
178 598 22 84 22 88 5 107 -45 50 -175 61 -415 35 -132 -14 -525 -70 -705
-101 -370 -63 -792 -204 -992 -333 -112 -71 -342 -312 -372 -389 -27 -68 -28
-141 -1 -169 16 -18 17 -22 4 -27 -22 -9 -234 -20 -234 -13 0 4 20 33 43 64
24 32 62 85 84 118 61 90 284 310 393 387 204 144 584 312 926 408 118 33 322
65 674 104 675 76 2210 156 2210 116 0 -6 -11 -8 -26 -4 -20 5 -25 3 -22 -7 8
-23 38 -23 69 0 40 30 106 29 120 -1 9 -21 16 -23 65 -20 60 4 72 27 14 27
-20 0 -35 6 -38 14 -4 11 6 13 54 8 47 -5 64 -11 82 -33z m149 -167 c34 -1 58
-6 54 -10 -5 -5 -26 -9 -48 -9 -21 1 -47 -2 -57 -5 -19 -5 -19 -6 -1 -19 10
-8 33 -14 49 -14 24 0 27 -3 16 -10 -8 -5 -36 -10 -62 -10 -34 0 -48 -4 -48
-14 0 -21 28 -28 85 -21 66 9 73 14 90 61 l13 38 61 -1 c79 0 100 -19 153
-132 21 -46 70 -129 108 -186 64 -94 120 -196 120 -220 0 -14 -378 0 -525 20
-66 9 -163 25 -215 36 -52 11 -122 24 -155 30 -33 5 -91 19 -130 30 -87 26
-131 22 -245 -25 -47 -19 -116 -40 -154 -46 -38 -6 -188 -43 -335 -82 -146
-39 -315 -84 -376 -100 -120 -31 -278 -46 -335 -31 -48 13 -63 65 -56 188 9
162 83 380 151 448 79 78 356 98 1240 90 297 -2 568 -5 602 -6z m-2372 -126
c6 -10 -114 -85 -122 -77 -3 2 5 9 16 16 12 6 21 19 21 29 0 12 12 21 38 28
20 6 38 11 39 12 1 0 4 -3 8 -8z m128 3 c3 -4 -49 -46 -115 -96 -130 -95 -297
-202 -305 -195 -7 8 132 118 265 209 124 85 142 95 155 82z m-333 -8 c0 -3
-27 -25 -60 -50 -33 -25 -60 -43 -60 -39 0 12 92 93 106 93 8 0 14 -2 14 -4z
m110 -1 c0 -2 -14 -12 -30 -20 -17 -9 -76 -51 -133 -93 -108 -83 -127 -96
-127 -89 0 8 134 113 205 161 64 43 85 53 85 41z m-230 -30 c-7 -8 -20 -15
-29 -15 -12 1 -11 5 8 21 26 22 41 18 21 -6z m-260 -3 c0 -8 -162 -126 -200
-147 -31 -17 7 15 100 84 105 77 100 74 100 63z m-106 -20 c-6 -4 -26 -19 -45
-34 -19 -15 -48 -32 -64 -38 l-30 -11 30 32 c29 31 105 73 114 63 3 -3 1 -8
-5 -12z m-109 -10 c-25 -21 -84 -62 -90 -62 -13 0 13 32 41 51 28 18 68 28 49
11z m231 -214 c-110 -325 -120 -406 -52 -464 45 -39 37 -44 -76 -44 l-80 0 25
43 c38 66 71 158 126 349 62 215 104 332 109 301 2 -13 -22 -96 -52 -185z
m-454 161 c-18 -17 -36 -28 -39 -25 -9 9 38 56 56 56 11 0 5 -10 -17 -31z
m1194 -16 c-15 -13 -48 -31 -74 -38 -26 -8 -83 -42 -126 -75 -95 -72 -121 -80
-42 -12 122 102 339 215 242 125z m-536 2 c-7 -9 -15 -13 -19 -10 -3 3 1 10 9
15 21 14 24 12 10 -5z m-304 -41 c-11 -7 -22 -11 -25 -8 -3 3 3 12 13 20 11 7
22 11 25 8 3 -3 -3 -12 -13 -20z m-186 6 c0 -5 -15 -17 -32 -25 l-33 -16 30
25 c34 29 35 30 35 16z m-506 -34 c-7 -18 -48 -46 -66 -46 -7 1 3 14 22 30 37
33 52 38 44 16z m735 -12 c-6 -8 -18 -14 -25 -14 -20 0 -17 28 4 33 25 5 35
-3 21 -19z m-699 -22 c0 -13 -12 -22 -22 -16 -10 6 -1 24 13 24 5 0 9 -4 9 -8z
m80 -12 c0 -5 -20 -71 -44 -147 -114 -353 -121 -384 -94 -411 12 -12 15 -11
-54 -30 -49 -13 -58 1 -24 37 14 15 26 35 26 44 0 9 8 25 18 35 9 9 29 60 44
112 28 103 96 337 103 358 5 14 25 16 25 2z m1380 -9 c0 -11 -11 -55 -24 -98
-13 -43 -34 -114 -46 -158 -25 -93 -39 -119 -83 -145 -55 -34 -60 -29 -53 50
14 138 52 225 139 318 54 56 67 63 67 33z m-902 -20 c57 -5 105 -11 107 -13
13 -13 -105 -361 -145 -425 -18 -30 -25 -33 -67 -33 -27 0 -95 -7 -153 -15
-58 -8 -138 -15 -179 -15 l-74 0 6 63 c3 34 15 89 26 122 54 167 102 290 115
297 40 23 210 31 364 19z m-592 -59 c-17 -112 -96 -334 -148 -422 l-33 -55
-190 1 c-232 1 -272 10 -267 65 2 19 10 49 18 67 18 44 117 175 180 238 76 75
121 93 276 110 72 7 136 18 142 24 20 20 28 9 22 -28z m1028 -32 c58 -39 102
-93 121 -149 16 -46 20 -148 7 -167 -10 -16 -224 -48 -266 -40 -42 8 -66 45
-66 101 0 20 18 91 40 159 22 67 40 130 40 139 0 15 4 15 40 2 22 -8 60 -28
84 -45z m1994 -46 c44 -30 16 -72 -35 -53 -27 10 -40 48 -22 60 20 12 32 11
57 -7z m142 -2 c23 -14 27 -21 18 -30 -26 -26 -88 -5 -88 28 0 26 29 26 70 2z
m145 -22 c-3 -5 -10 -10 -16 -10 -5 0 -9 5 -9 10 0 6 7 10 16 10 8 0 12 -4 9
-10z m-398 -15 c7 -20 0 -27 -20 -19 -25 9 -30 34 -6 34 11 0 22 -7 26 -15z
m-83 -20 c3 -9 -1 -18 -11 -22 -17 -7 -45 7 -51 25 -6 18 55 15 62 -3z m-116
-23 c3 -9 -3 -13 -19 -10 -12 1 -24 9 -27 16 -3 9 3 13 19 10 12 -1 24 -9 27
-16z m2833 -12 c248 -25 436 -77 550 -154 l64 -42 1 -58 c2 -47 8 -67 31 -100
29 -42 139 -123 151 -112 12 13 14 136 2 166 -17 42 -81 98 -178 155 -45 28
-82 53 -82 56 0 3 55 -7 123 -23 500 -118 821 -345 953 -673 19 -47 34 -88 34
-91 0 -4 -156 -5 -346 -1 -386 6 -371 3 -381 76 -3 23 -9 44 -14 47 -17 10
-48 -36 -54 -80 -7 -43 -9 -46 -39 -46 -195 1 -1070 21 -1075 25 -4 2 5 69 22
147 26 127 30 164 31 333 1 174 -1 195 -21 250 -13 32 -37 76 -53 97 l-31 38
104 0 c58 0 151 -5 208 -10z m-3021 -20 c0 -5 -12 -10 -26 -10 -14 0 -23 4
-19 10 3 6 15 10 26 10 10 0 19 -4 19 -10z m2500 -45 c0 -3 -15 -33 -33 -67
l-34 -63 -10 32 c-8 25 -7 36 3 44 17 14 18 46 2 52 -7 3 6 6 30 6 23 1 42 -1
42 -4z m-313 -104 l2 -90 -42 -6 c-151 -20 -467 -47 -704 -60 -153 -8 -357
-21 -453 -30 -96 -8 -465 -33 -820 -55 -355 -22 -795 -51 -978 -63 -184 -12
-335 -20 -336 -17 -9 15 27 137 48 164 24 32 27 33 123 39 54 4 186 14 293 22
230 17 664 43 1400 85 763 43 1144 69 1230 85 41 7 111 13 155 14 l80 1 2 -89z
m2750 74 c2 -6 -7 -16 -18 -24 -19 -11 -23 -11 -30 2 -7 11 -19 12 -61 6 -29
-5 -134 -13 -233 -19 -99 -5 -239 -17 -312 -26 -111 -15 -141 -15 -188 -5 -30
7 -53 16 -51 20 3 4 29 8 58 10 239 10 762 41 766 46 10 9 65 1 69 -10z m-374
-92 c-24 -2 -43 -7 -43 -11 0 -4 -41 -8 -90 -8 -50 -1 -90 2 -90 7 0 13 31 17
150 16 63 0 96 -2 73 -4z m-2183 -13 c0 -5 -13 -10 -30 -10 -16 0 -30 5 -30
10 0 6 14 10 30 10 17 0 30 -4 30 -10z m2147 -46 c-3 -3 -12 -4 -19 -1 -8 3
-5 6 6 6 11 1 17 -2 13 -5z m-101 -17 c-36 -11 -38 -13 -22 -27 17 -13 17 -15
-1 -27 -15 -12 -16 -15 -3 -23 25 -16 52 -11 57 10 6 23 58 40 123 40 41 -1
43 -2 26 -15 -16 -12 -17 -17 -6 -30 11 -13 4 -15 -58 -15 -41 0 -74 -5 -78
-11 -10 -17 15 -28 55 -23 36 4 36 4 9 -8 -32 -14 -37 -38 -8 -38 13 0 20 -7
20 -19 0 -11 14 -29 30 -41 17 -12 30 -30 30 -41 0 -13 7 -19 24 -19 14 0 28
5 31 10 12 19 25 10 20 -13 -4 -15 -1 -28 9 -36 17 -14 20 -40 10 -79 l-7 -23
-23 22 c-14 13 -39 46 -56 73 -46 73 -97 136 -112 136 -7 0 -27 20 -45 45 -18
26 -51 57 -72 71 -31 19 -39 30 -39 53 0 20 -6 31 -17 34 -10 3 18 5 62 5 77
0 78 0 41 -11z m-1932 -33 c-5 -18 0 -32 17 -50 19 -20 20 -24 5 -24 -9 0 -19
7 -22 15 -8 20 -31 19 -43 -2 -15 -28 -22 -9 -10 28 15 42 27 59 45 59 10 0
13 -7 8 -26z m-3661 -45 c-17 -26 -30 -61 -33 -92 -5 -46 -8 -51 -35 -59 -16
-5 -136 -15 -266 -23 -130 -7 -249 -17 -265 -21 -47 -11 -22 5 37 24 57 18 88
54 75 87 -5 15 -15 17 -66 12 -57 -5 -61 -4 -81 24 -25 35 -59 38 -109 8 -48
-30 -60 -48 -49 -77 18 -46 11 -69 -22 -81 -18 -6 -45 -11 -61 -11 -29 0 -30
1 -23 43 4 23 21 69 39 102 l33 60 114 8 c194 13 734 43 737 41 2 -1 -9 -21
-25 -45z m3547 -13 c0 -8 -4 -18 -10 -21 -5 -3 -10 3 -10 14 0 12 5 21 10 21
6 0 10 -6 10 -14z m-4465 -48 c-13 -29 -29 -74 -35 -100 -11 -44 -14 -46 -53
-52 -83 -11 -447 -36 -447 -31 0 1 29 17 65 34 105 52 113 94 20 106 -32 4
-75 13 -97 21 -56 20 -91 18 -123 -8 -24 -19 -27 -26 -22 -62 3 -23 9 -50 12
-62 10 -31 -19 -54 -66 -54 -49 0 -50 7 0 130 l37 95 180 7 c98 4 233 12 299
16 66 5 150 10 187 11 l67 1 -24 -52z m6945 32 c0 -5 -4 -10 -10 -10 -5 0 -10
5 -10 10 0 6 5 10 10 10 6 0 10 -4 10 -10z m114 -35 c9 -13 25 -33 37 -44 12
-11 18 -24 15 -29 -14 -23 -9 -123 7 -140 15 -16 15 -24 1 -82 -8 -36 -16 -99
-17 -140 l-2 -75 38 -9 c20 -5 37 -13 37 -18 0 -4 -145 -8 -322 -8 -212 0
-318 4 -308 10 8 5 72 10 142 10 153 0 151 -2 122 138 -4 18 0 22 21 22 109 0
181 114 193 308 2 45 8 82 12 82 4 0 15 -11 24 -25z m-2834 -17 c0 -4 -27 -8
-61 -8 -37 0 -58 4 -54 10 3 6 17 10 30 10 13 0 26 4 30 10 7 11 55 -8 55 -22z
m-5011 -22 c-16 -25 -37 -74 -46 -110 l-16 -65 -50 -11 c-88 -19 -162 -67
-250 -161 -66 -71 -85 -86 -99 -78 -9 5 -57 19 -105 31 -77 20 -114 23 -298
22 -235 0 -331 -12 -492 -66 -141 -47 -347 -180 -452 -292 -46 -51 -61 -54
-72 -15 -4 13 -33 103 -64 199 -82 254 -126 460 -97 460 18 0 527 33 1077 70
852 57 853 57 927 59 l67 1 -30 -44z m1021 4 c0 -13 -7 -20 -20 -20 -13 0 -20
7 -20 20 0 13 7 20 20 20 13 0 20 -7 20 -20z m2360 -11 c0 -20 -91 -136 -115
-147 -56 -26 -147 -34 -780 -67 -154 -8 -352 -17 -440 -20 -88 -3 -202 -8
-252 -11 l-93 -5 0 58 c0 106 -8 100 148 107 303 15 599 39 637 52 29 10 100
14 260 15 121 0 281 7 355 14 178 17 280 18 280 4z m-3175 -25 c20 -20 15 -38
-11 -42 -30 -4 -47 13 -39 37 8 25 27 27 50 5z m4660 -3 c-6 -5 -64 -11 -130
-13 -110 -4 -116 -3 -70 8 59 14 214 18 200 5z m90 -50 c14 -6 -1 -10 -50 -15
-38 -4 -94 -9 -122 -12 -34 -4 -53 -3 -53 4 0 6 26 13 58 17 31 4 62 8 67 10
18 6 80 4 100 -4z m-280 -21 c-29 -12 -148 -12 -140 0 3 6 41 10 83 9 52 0 71
-3 57 -9z m-3035 -79 l0 -78 -227 -7 c-126 -3 -319 -9 -431 -12 l-203 -7 3 64
3 64 55 7 c30 4 213 16 405 26 193 11 360 20 373 21 21 1 22 -2 22 -78z m2850
75 c0 -8 -51 -13 -56 -5 -3 5 9 9 25 9 17 0 31 -2 31 -4z m458 -41 c-3 -3 -23
-8 -44 -12 -27 -4 -36 -2 -29 5 6 6 24 12 40 14 32 4 42 1 33 -7z m-4213 -77
c-4 -35 -8 -64 -10 -66 -1 -1 -103 -7 -226 -13 -123 -5 -287 -16 -364 -23 -77
-7 -143 -11 -147 -9 -13 7 -9 86 5 113 l13 25 274 16 c151 9 317 17 368 17
l94 2 -7 -62z m-2841 6 c11 -29 6 -44 -14 -44 -22 0 -23 3 -14 38 7 26 19 29
28 6z m6951 7 c-6 -11 -45 -10 -45 1 0 4 12 8 26 8 14 0 23 -4 19 -9z m-4915
-80 l0 -58 -45 -18 c-60 -23 -95 -53 -141 -123 -20 -31 -38 -58 -40 -60 -4 -6
-104 40 -104 48 0 4 18 35 41 69 61 92 153 165 239 192 48 14 50 12 50 -50z
m5211 -28 c-10 -17 -10 -17 -11 2 0 11 4 31 8 45 l7 25 3 -27 c2 -15 -1 -35
-7 -45z m-458 47 c55 0 98 -2 95 -5 -2 -3 -54 -7 -116 -9 -87 -3 -115 -1 -129
11 -16 13 -15 14 16 9 18 -3 79 -6 134 -6z m-245 -7 c-10 -2 -26 -2 -35 0 -10
3 -2 5 17 5 19 0 27 -2 18 -5z m-2800 -55 c6 -8 10 -88 11 -193 1 -196 16
-503 31 -630 6 -45 6 -83 1 -88 -5 -5 -182 -7 -397 -5 -333 3 -394 6 -425 20
l-37 16 -6 114 c-4 62 -11 235 -16 383 -6 149 -13 289 -16 311 l-6 42 99 6
c54 3 224 11 378 17 153 5 281 12 284 15 10 10 89 3 99 -8z m-3695 -75 c27
-94 27 -98 -11 -101 -29 -3 -34 1 -46 30 -8 18 -17 54 -21 81 l-7 47 34 0 c34
0 35 -2 51 -57z m2791 -150 c9 -273 26 -613 32 -644 6 -25 4 -26 -58 -33 -34
-3 -201 -3 -369 0 l-307 7 -6 46 c-7 58 -23 350 -32 597 l-6 191 143 8 c213
11 444 22 525 23 l72 2 6 -197z m-1454 137 c52 -3 79 -8 60 -9 -68 -3 -378 -6
-375 -3 2 2 25 7 52 12 60 10 140 10 263 0z m640 -22 c0 -13 7 -131 14 -263 8
-132 18 -304 22 -382 l7 -143 -46 0 c-52 0 -94 -27 -84 -53 5 -13 20 -17 66
-17 33 0 62 -4 65 -9 10 -15 -45 -23 -119 -16 l-71 7 -12 113 c-18 173 -59
288 -128 365 -50 55 -88 75 -169 91 -92 18 -362 18 -435 1 -73 -18 -155 -48
-185 -68 -16 -11 -34 -14 -55 -9 -62 14 -160 -79 -198 -186 -24 -72 -42 -171
-42 -241 l0 -48 -88 0 c-49 0 -170 3 -269 7 l-180 6 17 56 c84 274 276 505
525 628 285 142 674 157 996 39 35 -13 87 -33 114 -44 34 -14 56 -17 67 -11 9
5 41 45 72 88 72 103 116 136 116 89z m-475 -8 c8 -13 -15 -13 -35 0 -12 8
-11 10 7 10 12 0 25 -4 28 -10z m4538 -129 c46 -11 83 -43 90 -77 4 -24 -8
-34 -15 -12 -6 18 -37 2 -49 -26 -17 -35 -5 -56 31 -56 40 0 38 -18 -5 -60
-19 -19 -35 -39 -35 -46 0 -6 14 -41 30 -77 17 -37 30 -69 30 -72 0 -3 -10 -3
-23 0 -21 6 -22 3 -25 -70 -2 -60 0 -76 13 -81 20 -8 19 -19 -6 -54 -12 -16
-19 -36 -16 -44 11 -27 -2 -18 -18 14 -17 32 -20 132 -6 193 11 45 0 48 -39 9
-63 -64 -41 -258 35 -308 20 -13 23 -20 15 -35 -6 -10 -8 -30 -4 -45 6 -24 5
-26 -17 -19 -105 32 -161 245 -110 415 33 107 13 162 -29 80 -79 -155 -60
-407 39 -513 59 -65 118 -74 152 -24 13 17 49 60 81 95 58 63 80 114 38 92
-28 -15 -25 -3 10 36 32 37 65 94 53 94 -4 0 -17 -10 -30 -22 -36 -34 -40 -11
-4 26 29 30 31 37 23 67 -9 35 -12 36 -47 23 -18 -7 -18 -5 4 19 24 27 21 47
-7 47 -13 0 -18 8 -17 28 0 19 -7 30 -22 37 -13 5 -23 15 -23 21 0 12 52 83
61 84 3 0 18 -31 34 -70 20 -50 26 -79 22 -105 -5 -29 -3 -35 13 -35 14 0 20
-13 29 -63 15 -88 14 -97 -9 -97 -18 0 -20 -7 -20 -86 0 -86 0 -86 24 -82 20
4 27 -1 37 -25 12 -29 74 -66 112 -67 20 0 18 -14 -19 -131 -27 -84 -70 -158
-106 -183 -12 -9 -45 -32 -73 -51 -96 -67 -153 -90 -230 -90 -79 0 -127 21
-228 101 -73 57 -95 89 -79 115 11 16 8 27 -13 63 -39 66 -83 196 -100 293
-16 92 -19 296 -5 378 4 28 6 52 5 53 -2 2 -13 1 -24 -3 -23 -7 -41 -55 -52
-140 -8 -60 -8 -60 -5 15 2 45 13 101 26 140 31 88 99 223 118 234 9 5 34 26
56 47 37 33 49 38 121 47 107 13 162 13 208 3z m-5969 -50 c25 -77 23 -81 -33
-81 -48 0 -49 1 -65 40 -9 22 -16 52 -16 65 0 23 4 25 49 25 l49 0 16 -49z
m9126 4 c0 -3 -35 -23 -78 -44 -44 -22 -93 -52 -110 -66 -26 -22 -32 -24 -32
-10 0 31 60 74 138 99 90 29 82 27 82 21z m-702 -64 c3 -10 -2 -11 -19 -6 -27
9 -40 25 -32 38 6 10 45 -14 51 -32z m-1723 21 c-14 -14 -154 -31 -255 -31
-96 -1 -220 16 -235 30 -2 2 109 4 246 5 137 0 247 -2 244 -4z m161 -37 c-11
-8 -33 -15 -50 -15 -36 0 -29 10 16 20 49 12 55 11 34 -5z m-113 -22 c-7 -2
-19 -2 -25 0 -7 3 -2 5 12 5 14 0 19 -2 13 -5z m-643 -23 c7 -14 8 -26 1 -38
-9 -14 -10 -13 -11 11 0 15 -4 27 -10 27 -5 0 -10 5 -10 10 0 17 19 11 30 -10z
m2531 0 c31 -25 12 -26 -21 0 -14 11 -20 20 -14 20 7 0 22 -9 35 -20z m1182
-7 c-7 -2 -21 -2 -30 0 -10 3 -4 5 12 5 17 0 24 -2 18 -5z m-9633 -48 c-7 -9
-15 -13 -18 -10 -3 2 1 11 8 20 7 9 15 13 18 10 3 -2 -1 -11 -8 -20z m-120 -5
c13 -8 11 -16 -11 -57 -14 -26 -33 -51 -42 -57 -24 -15 -53 19 -62 71 -5 35
-4 42 12 46 33 8 88 7 103 -3z m1238 -4 c-38 -28 -6 -71 57 -78 28 -3 30 -1
33 35 3 34 6 37 33 37 42 0 36 -27 -22 -100 -16 -19 -32 -50 -35 -69 -7 -32
-6 -33 14 -22 12 6 40 38 62 71 50 74 71 87 105 64 23 -15 24 -18 11 -42 -8
-15 -35 -51 -60 -81 -66 -76 -68 -82 -51 -132 9 -24 13 -49 11 -56 -3 -7 -1
-15 4 -18 6 -4 10 -16 10 -29 0 -12 5 -27 12 -34 8 -8 8 -15 -3 -28 -8 -9 -32
-51 -55 -93 l-40 -76 -102 -3 c-100 -3 -102 -3 -102 -27 0 -19 7 -26 38 -34
20 -6 47 -11 59 -11 45 0 131 42 216 106 85 64 88 68 83 98 -4 23 1 46 18 79
21 42 22 48 8 56 -14 8 -14 11 1 35 19 28 53 50 61 38 11 -18 26 -133 20 -157
-3 -14 -15 -32 -26 -39 -17 -12 -18 -17 -8 -36 10 -19 7 -33 -25 -95 -52 -104
-102 -150 -186 -175 -45 -14 -72 -28 -80 -42 -10 -19 -18 -20 -110 -16 l-99 4
0 -28 c0 -73 -112 4 -194 134 -129 205 -167 449 -91 598 69 135 151 178 340
179 94 0 107 -2 93 -13z m8392 -66 c8 -5 11 -12 7 -16 -4 -4 -15 0 -24 9 -18
18 -8 23 17 7z m-4680 -90 c-17 -63 -25 -39 -9 27 8 35 15 49 17 36 2 -12 -2
-40 -8 -63z m1545 70 c-29 -12 -108 -12 -100 0 3 6 32 10 63 9 41 0 51 -3 37
-9z m-1945 -30 c0 -11 8 -28 18 -37 13 -14 15 -23 7 -40 -5 -13 -13 -23 -17
-23 -5 0 -8 10 -8 23 -1 12 -7 39 -14 60 -12 31 -12 37 0 37 8 0 14 -9 14 -20z
m2000 -10 c18 -12 -49 -12 -95 0 -25 6 -21 8 25 9 30 0 62 -4 70 -9z m107 4
c-3 -3 -12 -4 -19 -1 -8 3 -5 6 6 6 11 1 17 -2 13 -5z m-5136 -47 c-17 -17
-24 -1 -9 22 11 18 14 19 16 5 2 -9 -1 -21 -7 -27z m5226 31 c-28 -7 -42 -7
-50 1 -8 8 2 11 39 10 l49 -1 -38 -10z m-6843 -39 c6 -6 2 -26 -12 -54 -12
-25 -22 -53 -22 -61 0 -34 -29 8 -35 51 -10 64 0 88 33 80 15 -3 31 -11 36
-16z m6963 -17 c314 -4 575 -10 579 -14 4 -5 -53 -9 -127 -9 -74 -1 -294 -4
-489 -8 -352 -6 -355 -6 -358 -27 -3 -19 -8 -21 -47 -16 -24 2 -60 1 -81 -3
l-37 -6 22 -22 c25 -25 63 -27 839 -30 l423 -2 -6 -25 c-3 -14 -7 -33 -8 -42
-2 -22 -17 -24 -17 -2 0 23 -24 11 -28 -14 -2 -16 4 -25 22 -32 13 -5 30 -18
36 -30 6 -11 15 -18 21 -15 5 4 9 2 9 -4 0 -13 -33 -31 -59 -31 -11 0 -26 -9
-34 -20 -14 -21 -18 -21 -353 -10 -187 6 -465 14 -618 18 l-279 7 -23 158
c-12 86 -26 167 -29 178 -7 20 -5 21 31 14 22 -3 296 -10 611 -13z m2733 -32
c-20 -13 -80 -13 -80 0 0 6 21 10 48 10 34 0 43 -3 32 -10z m-4675 -55 c-3
-26 -9 -44 -12 -41 -3 3 -2 26 2 51 3 26 9 44 12 41 3 -3 2 -26 -2 -51z m4270
45 c-3 -5 -10 -10 -16 -10 -5 0 -9 5 -9 10 0 6 7 10 16 10 8 0 12 -4 9 -10z
m195 0 c-20 -13 -50 -13 -50 0 0 6 15 10 33 10 24 0 28 -3 17 -10z m-7942 -20
c-14 -22 -24 -19 -15 5 4 8 11 15 17 15 6 0 6 -7 -2 -20z m133 2 c-11 -20 -51
-58 -51 -48 0 4 10 20 22 36 24 32 45 41 29 12z m8542 -4 c-4 -7 -14 -47 -23
-88 l-15 -75 -70 -3 -71 -3 4 70 c4 69 4 70 -23 77 -14 4 -74 4 -133 2 -140
-6 -96 10 57 21 190 13 283 13 274 -1z m-2755 -25 c-10 -2 -28 -2 -40 0 -13 2
-5 4 17 4 22 1 32 -1 23 -4z m195 0 c-7 -2 -21 -2 -30 0 -10 3 -4 5 12 5 17 0
24 -2 18 -5z m2007 2 c0 -3 -9 -14 -21 -26 -19 -19 -22 -19 -38 -5 -22 20 -26
20 -45 0 -21 -20 -20 -73 1 -96 21 -23 52 -23 61 0 5 13 8 11 12 -13 5 -24 10
-30 30 -28 14 0 85 6 159 12 91 8 138 8 144 2 6 -6 8 -14 4 -17 -3 -4 -121 -9
-260 -12 l-254 -5 20 63 21 63 -24 19 c-20 16 -39 18 -146 17 -193 -2 -172 15
26 21 96 3 205 7 243 8 37 1 67 0 67 -3z m-9013 -37 c-3 -7 -5 -2 -5 12 0 14
2 19 5 13 2 -7 2 -19 0 -25z m8498 23 c-6 -6 -56 -13 -113 -17 -56 -4 -110
-12 -119 -19 -24 -18 -31 -126 -9 -144 21 -18 60 -7 74 21 11 23 11 23 11 -4
l1 -28 193 0 c106 0 186 -4 179 -9 -17 -10 -348 -17 -477 -10 l-59 4 -2 77
c-1 42 -5 82 -9 89 -5 7 -22 9 -46 5 -22 -3 -39 -4 -39 -1 0 17 76 29 230 35
96 4 179 7 185 8 6 1 6 -1 0 -7z m-520 -30 c-6 -5 -54 -11 -108 -13 -80 -2
-94 -1 -80 10 20 14 203 17 188 3z m-3992 -43 c-5 -9 -33 -11 -33 -3 0 3 6 14
12 25 12 18 13 19 19 2 4 -9 5 -20 2 -24z m3722 32 c-3 -5 -19 -10 -36 -10
-16 0 -29 5 -29 10 0 6 16 10 36 10 21 0 33 -4 29 -10z m-118 -81 c6 -41 12
-75 12 -77 1 -1 23 0 50 4 43 6 50 4 60 -15 12 -21 16 -21 179 -16 129 4 161
3 142 -6 -15 -7 -129 -15 -280 -19 -140 -5 -265 -12 -277 -15 -13 -4 -23 -3
-23 3 0 15 22 29 59 37 l34 7 -6 83 c-6 83 -1 98 28 91 6 -1 15 -36 22 -77z
m-7601 -17 c-13 -12 -18 9 -10 45 l8 38 4 -39 c2 -21 1 -41 -2 -44z m4831 -49
c-2 -21 -4 -4 -4 37 0 41 2 58 4 38 2 -21 2 -55 0 -75z m-879 65 c10 -10 6
-15 -20 -24 -42 -14 -45 -29 -12 -51 24 -15 51 -18 174 -19 199 -2 251 -6 247
-18 -10 -29 -659 -29 -1732 -1 -302 8 -665 14 -805 12 -140 -1 -277 2 -305 7
l-50 10 55 7 c83 11 391 10 605 -2 105 -6 521 -12 925 -14 l735 -4 52 25 c28
13 64 37 80 53 33 34 35 35 51 19z m-1974 -179 c159 -5 298 -15 308 -20 11 -6
35 -36 55 -67 19 -31 62 -83 96 -115 33 -31 58 -60 55 -62 -3 -3 -54 -1 -114
4 -60 5 -262 11 -449 13 l-340 3 -3 -26 c-3 -25 -7 -26 -79 -33 -92 -7 -203
-8 -203 -1 0 3 17 40 38 83 22 42 51 112 67 155 l28 77 126 0 c69 0 256 -5
415 -11z m2796 -30 c0 -18 59 -146 100 -216 21 -37 37 -69 36 -71 -2 -2 -32 4
-67 14 -75 19 -164 21 -569 10 -266 -7 -286 -9 -306 -27 -21 -19 -24 -20 -52
-5 -27 14 -88 16 -446 16 -466 0 -449 -3 -345 70 66 46 86 70 126 150 l28 55
732 5 c402 3 735 8 739 12 8 9 24 0 24 -13z m-1796 -28 c6 -9 -40 -21 -78 -21
-20 1 -20 2 4 15 28 16 66 19 74 6z m4540 -42 c9 -20 50 -71 91 -113 41 -43
75 -82 75 -88 0 -6 -12 -8 -32 -4 -50 10 -724 29 -1073 30 -249 1 -323 -2
-377 -15 -54 -12 -68 -13 -68 -3 0 7 16 57 35 111 20 54 37 103 39 108 2 7
228 10 649 10 l645 0 16 -36z m-4694 2 c0 -10 -42 -23 -49 -15 -7 6 20 24 37
24 6 0 12 -4 12 -9z m3020 -12 c0 -5 -4 -9 -10 -9 -5 0 -10 7 -10 16 0 8 5 12
10 9 6 -3 10 -10 10 -16z m2410 -4 c0 -8 -118 -65 -187 -91 -54 -20 -63 -22
-63 -8 0 42 61 86 95 67 10 -6 38 -2 83 13 37 13 68 23 70 23 1 1 2 -1 2 -4z
m-5755 -25 c3 -5 2 -10 -4 -10 -5 0 -13 5 -16 10 -3 6 -2 10 4 10 5 0 13 -4
16 -10z m425 0 c-20 -13 -33 -13 -25 0 3 6 14 10 23 10 15 0 15 -2 2 -10z
m2912 -42 c-9 -9 -15 -9 -24 0 -9 9 -7 12 12 12 19 0 21 -3 12 -12z m2044 -13
c-19 -14 -56 -21 -56 -10 0 7 41 24 60 24 11 0 10 -3 -4 -14z m-5041 -24 c-8
-13 -45 -15 -45 -2 0 5 10 11 23 13 27 5 31 3 22 -11z m5245 -21 c0 -5 -4 -10
-10 -10 -5 0 -10 5 -10 10 0 6 5 10 10 10 6 0 10 -4 10 -10z m-8418 -52 c-12
-12 -44 -7 -49 8 -2 7 8 9 27 6 21 -3 28 -8 22 -14z m2924 -13 l29 -24 -47 -1
c-46 0 -48 1 -48 29 0 35 20 33 66 -4z m-2224 -3 c14 -14 -15 -15 -167 -5
-131 8 -97 24 47 20 69 -1 112 -7 120 -15z m1398 1 c45 -5 50 -8 30 -14 -14
-4 -51 -7 -84 -8 -51 -1 -57 1 -46 14 14 17 23 18 100 8z m-3258 -19 c121 -12
60 -24 -119 -24 -97 0 -174 2 -171 5 17 18 186 28 290 19z m2095 -20 c-3 -3
-12 -4 -19 -1 -8 3 -5 6 6 6 11 1 17 -2 13 -5z m670 -14 c3 -11 5 -23 4 -27
-1 -9 -101 -21 -101 -12 0 3 16 14 35 25 19 10 35 22 35 26 0 17 22 7 27 -12z
m4842 -17 c13 -29 3 -43 -32 -43 -10 0 -27 -16 -38 -35 -12 -19 -25 -35 -30
-35 -19 0 -8 27 31 74 22 26 40 52 40 57 0 19 17 8 29 -18z m-1554 7 c-16 -4
-41 -8 -55 -9 -20 0 -22 1 -10 9 8 5 33 9 55 9 39 -1 39 -2 10 -9z m-2331 -7
c51 -4 73 -9 63 -15 -27 -14 -128 -19 -232 -10 -93 8 -98 9 -65 19 41 13 127
16 234 6z m2755 -27 c11 -10 18 -23 15 -27 -8 -14 -41 -10 -58 6 -8 8 -32 15
-54 15 -41 0 -102 17 -102 28 0 4 40 5 89 2 68 -4 94 -9 110 -24z m4155 24
c-7 -7 -19 -7 -35 -1 -23 9 -22 10 11 10 23 1 31 -2 24 -9z m-7749 -10 c-27
-12 -35 -12 -35 0 0 6 12 10 28 9 24 0 25 -1 7 -9z m195 0 c17 -5 -5 -8 -65
-8 -59 0 -83 2 -70 8 25 11 102 11 135 0z m335 0 c-3 -5 -13 -10 -21 -10 -8 0
-14 5 -14 10 0 6 9 10 21 10 11 0 17 -4 14 -10z m6945 0 c0 -11 -27 -20 -61
-20 -32 0 -40 16 -11 23 28 7 72 5 72 -3z m-8135 -130 c14 -6 0 -9 -45 -8 -47
0 -58 2 -40 8 33 11 60 11 85 0z m175 0 c0 -5 -18 -10 -40 -10 -22 0 -40 5
-40 10 0 6 18 10 40 10 22 0 40 -4 40 -10z m3165 -30 c-3 -5 -38 -10 -76 -10
-44 0 -68 4 -64 10 3 6 38 10 76 10 44 0 68 -4 64 -10z m250 -11 c7 -7 -13 -8
-60 -3 -107 11 -134 25 -35 19 47 -3 89 -10 95 -16z"/>
<path d="M7133 4723 c-38 -3 -66 -9 -73 -18 -11 -13 -3 -15 54 -15 68 0 111
13 101 31 -4 5 -9 8 -13 7 -4 -1 -35 -3 -69 -5z"/>
<path d="M7395 4720 c3 -5 15 -10 26 -10 10 0 19 5 19 10 0 6 -12 10 -26 10
-14 0 -23 -4 -19 -10z"/>
<path d="M7465 4720 c3 -5 15 -10 26 -10 10 0 19 5 19 10 0 6 -12 10 -26 10
-14 0 -23 -4 -19 -10z"/>
<path d="M8169 4531 c-22 -18 -23 -20 -6 -27 10 -3 60 -2 110 3 l92 9 -37 17
c-51 23 -129 22 -159 -2z"/>
<path d="M7086 4533 c-4 -5 -86 -10 -182 -13 -160 -5 -175 -7 -195 -26 l-21
-22 35 -11 c28 -10 57 -9 140 3 58 9 128 16 156 16 80 0 151 36 105 54 -21 8
-29 8 -38 -1z"/>
<path d="M8211 4471 l-44 -6 41 -48 c23 -27 42 -53 42 -59 0 -7 30 -8 93 -3
81 6 90 5 73 -8 -18 -13 -18 -14 8 -21 14 -3 61 -4 104 -1 85 7 120 -4 137
-43 7 -15 18 -22 37 -22 35 0 35 7 2 55 -14 21 -30 49 -35 62 -6 15 -17 23
-33 23 -34 0 -41 -16 -14 -34 22 -15 21 -16 -27 -15 -44 0 -47 2 -25 10 25 10
25 11 5 25 -13 10 -41 14 -88 13 -37 -1 -70 1 -74 5 -3 3 3 6 15 6 26 0 39 19
21 31 -8 5 -54 8 -104 7 -81 -3 -90 -1 -87 15 2 9 2 16 0 15 -2 0 -23 -4 -47
-7z m179 -71 c0 -12 -8 -12 -35 0 -18 8 -17 9 8 9 15 1 27 -3 27 -9z m128 -47
c-10 -2 -28 -2 -40 0 -13 2 -5 4 17 4 22 1 32 -1 23 -4z"/>
<path d="M6910 4444 c-36 -8 -74 -13 -84 -10 -11 3 -30 -3 -42 -13 -13 -10
-41 -22 -61 -25 -61 -11 -94 -27 -91 -45 3 -12 15 -16 45 -15 47 1 53 -8 53
-88 0 -38 4 -48 20 -53 11 -3 24 -3 30 0 13 8 13 -8 0 -21 -6 -6 -8 -19 -4
-28 7 -18 25 -19 104 -2 23 5 22 5 -3 -6 -22 -10 -27 -18 -25 -38 3 -27 21
-30 83 -15 29 6 31 5 30 -22 0 -22 4 -28 20 -27 21 2 218 45 223 49 1 1 -5 16
-15 32 -16 29 -21 31 -94 36 -88 6 -115 16 -80 29 33 12 20 32 -25 39 -21 3
-32 7 -23 8 9 0 19 10 22 21 4 17 0 20 -24 20 -16 0 -29 5 -29 10 0 6 5 10 11
10 6 0 38 17 71 37 43 26 72 38 99 38 33 0 39 3 39 21 0 27 -17 34 -81 34 -31
0 -48 4 -44 10 6 9 -36 32 -53 29 -4 -1 -36 -7 -72 -15z m45 -74 c17 -7 14 -9
-13 -9 -20 -1 -31 3 -27 9 7 12 13 12 40 0z m13 -217 c-10 -2 -26 -2 -35 0
-10 3 -2 5 17 5 19 0 27 -2 18 -5z"/>
<path d="M8496 4441 c18 -19 59 -22 79 -7 19 14 16 15 -34 16 -34 0 -51 -4
-45 -9z"/>
<path d="M7162 4318 c3 -7 15 -18 27 -25 l23 -11 -21 -12 c-28 -14 -18 -30 20
-30 24 0 29 4 29 23 0 34 -28 67 -56 67 -16 0 -24 -5 -22 -12z"/>
<path d="M8470 4303 c-8 -3 -21 -10 -28 -16 -18 -15 8 -25 63 -26 47 -1 75 13
59 29 -13 13 -73 22 -94 13z"/>
<path d="M7087 4254 c7 -18 54 -16 61 4 2 8 -8 12 -32 12 -28 0 -34 -3 -29
-16z"/>
<path d="M8601 4231 c-25 -16 -1 -31 49 -31 50 0 74 15 49 31 -8 5 -30 9 -49
9 -19 0 -41 -4 -49 -9z"/>
<path d="M8725 4230 c-10 -16 4 -30 28 -30 23 0 55 16 47 23 -12 10 -70 15
-75 7z"/>
<path d="M12102 3130 c-42 -10 -45 -14 -37 -40 9 -30 45 -50 101 -56 72 -7 81
3 52 59 -25 50 -40 55 -116 37z"/>
<path d="M3290 3420 c-8 -5 -29 -10 -46 -10 -30 0 -33 -4 -69 -86 -20 -48 -39
-111 -42 -141 l-6 -56 39 6 c21 4 123 9 226 13 l186 7 17 41 c68 166 83 216
69 227 -9 8 -29 9 -57 4 -23 -4 -73 -7 -111 -6 -38 2 -82 -3 -98 -10 -26 -11
-32 -10 -40 4 -10 19 -45 22 -68 7z"/>
<path d="M8272 2753 c-42 -8 -116 -134 -148 -253 -61 -230 36 -540 181 -576
26 -6 27 -6 15 16 -7 13 -32 50 -56 83 -25 33 -44 70 -44 85 0 14 -11 44 -25
67 -31 53 -41 145 -26 246 15 111 45 183 103 246 61 67 61 97 0 86z"/>
<path d="M8408 1913 c-59 -3 -78 -7 -78 -18 0 -37 102 -61 151 -35 18 10 29
63 12 58 -5 -1 -43 -4 -85 -5z"/>
<path d="M3531 2632 c-22 -23 -46 -65 -61 -107 -22 -61 -25 -87 -25 -195 0
-123 1 -127 35 -195 25 -51 47 -78 77 -99 24 -16 45 -27 48 -24 4 3 -17 52
-46 109 -47 94 -53 112 -57 185 -5 94 9 153 68 280 37 80 38 84 18 84 -12 0
-37 -17 -57 -38z"/>
<path d="M3913 2550 c-37 -27 -73 -84 -61 -95 11 -11 74 43 92 78 10 21 16 40
14 42 -2 3 -23 -9 -45 -25z"/>
<path d="M3593 2555 c-33 -23 -63 -115 -63 -193 0 -83 14 -134 45 -169 l24
-28 1 25 c0 14 -7 65 -15 114 -16 96 -14 115 16 189 26 62 23 84 -8 62z"/>
<path d="M3649 2371 c-15 -49 -4 -121 22 -155 22 -28 64 -34 99 -16 36 19 54
146 25 170 -12 10 -16 8 -25 -15 -5 -14 -10 -38 -10 -53 0 -27 -15 -61 -23
-52 -10 12 -37 107 -37 132 0 21 -5 28 -20 28 -14 0 -22 -11 -31 -39z"/>
<path d="M9910 2295 c-5 -14 -10 -51 -10 -80 0 -54 0 -54 35 -61 48 -9 65 0
65 33 0 15 3 44 5 63 7 45 -1 57 -47 65 -34 7 -39 5 -48 -20z"/>
<path d="M9744 3129 c-55 -27 -127 -100 -118 -122 8 -22 40 -22 48 -1 5 14 22
15 141 9 91 -5 135 -4 135 3 0 27 -16 45 -61 67 -27 14 -53 34 -59 45 -13 25
-33 25 -86 -1z"/>
<path d="M9290 3033 c-35 -12 -118 -17 -370 -23 -179 -4 -326 -8 -327 -9 -2 0
-3 -9 -3 -20 0 -11 12 -23 31 -31 17 -8 28 -18 25 -26 -3 -8 9 -15 35 -19 22
-4 325 -2 672 4 348 6 894 13 1214 14 320 1 585 6 590 10 4 5 -1 16 -12 24
-18 14 -103 15 -745 9 -695 -6 -1116 -1 -1075 14 11 4 45 5 75 3 66 -6 103 14
84 44 -15 24 -131 28 -194 6z m-15 -73 c4 -6 -8 -10 -29 -10 -20 0 -36 5 -36
10 0 6 13 10 29 10 17 0 33 -4 36 -10z"/>
<path d="M9623 2880 c-47 -19 -27 -33 60 -46 26 -3 47 -10 47 -14 0 -5 -9 -6
-20 -3 -11 3 -31 2 -45 -1 -20 -5 -26 -12 -23 -29 2 -17 11 -23 36 -25 18 -2
36 -10 39 -18 3 -10 21 -14 57 -13 72 1 88 10 101 55 10 38 11 39 63 42 47 3
52 5 52 26 0 32 -28 38 -135 25 -59 -6 -106 -6 -143 1 -64 12 -60 12 -89 0z"/>
<path d="M11883 2850 c-25 -15 -33 -27 -33 -49 0 -16 7 -35 16 -42 14 -11 18
-10 30 6 8 10 14 23 14 28 0 9 19 7 68 -8 20 -7 22 -4 22 33 0 27 -5 42 -16
46 -29 11 -69 6 -101 -14z"/>
<path d="M10126 2824 c-3 -9 -6 -28 -6 -44 0 -55 7 -60 80 -60 37 0 81 5 99
11 28 10 31 15 31 50 0 50 -17 59 -118 59 -64 0 -81 -3 -86 -16z"/>
<path d="M10386 2815 c-9 -24 -7 -88 3 -104 6 -10 27 -12 80 -9 89 5 126 28
126 79 0 32 -2 34 -35 35 -19 0 -65 4 -101 8 -57 6 -67 5 -73 -9z"/>
<path d="M11748 2814 c-15 -15 -23 -16 -57 -6 -63 20 -91 -6 -57 -53 11 -15
30 -20 84 -23 69 -4 71 -3 77 21 16 61 -12 96 -47 61z"/>
<path d="M9498 2789 c-31 -18 -22 -39 17 -39 28 0 35 4 35 19 0 10 -7 22 -16
25 -19 7 -15 8 -36 -5z"/>
<path d="M9480 2713 c0 -30 16 -46 38 -39 25 8 37 37 20 48 -24 15 -58 9 -58
-9z"/>
<path d="M9492 2648 c-7 -7 -12 -21 -12 -31 0 -17 5 -19 32 -13 39 8 53 20 45
40 -7 19 -48 21 -65 4z"/>
<path d="M10174 2653 c-25 -5 -51 -31 -54 -53 -10 -70 14 -90 111 -90 72 0 95
10 102 47 3 15 9 36 12 46 6 13 -1 20 -26 31 -39 16 -114 26 -145 19z"/>
<path d="M11690 2641 c-21 -6 -26 -14 -28 -49 l-3 -42 53 0 c67 0 103 18 103
50 0 40 -58 60 -125 41z"/>
<path d="M10422 2622 c-5 -15 5 -98 14 -113 7 -12 80 -11 127 2 45 12 70 46
65 89 l-3 32 -99 1 c-73 2 -100 -1 -104 -11z"/>
<path d="M10755 2634 c-67 -17 -75 -25 -75 -71 0 -41 3 -45 35 -59 55 -23 135
-15 135 13 0 8 10 32 22 53 16 28 20 42 12 50 -12 12 -99 21 -129 14z"/>
<path d="M11507 2602 c-34 -38 -22 -52 43 -52 56 0 60 2 60 23 0 13 -5 28 -12
35 -18 18 -73 14 -91 -6z"/>
<path d="M11349 2589 c-11 -11 -19 -25 -16 -32 5 -15 49 -26 81 -20 22 5 26
11 26 39 0 32 -2 34 -35 34 -22 0 -43 -8 -56 -21z"/>
</g>
</svg>
