<?xml version="1.0" standalone="no"?>
<!DOCTYPE svg PUBLIC "-//W3C//DTD SVG 20010904//EN"
 "http://www.w3.org/TR/2001/REC-SVG-20010904/DTD/svg10.dtd">
<svg version="1.0" xmlns="http://www.w3.org/2000/svg"
 width="1280.000000pt" height="832.000000pt" viewBox="0 0 1280.000000 832.000000"
 preserveAspectRatio="xMidYMid meet">
<metadata>
Created by potrace 1.15, written by Peter Selinger 2001-2017
</metadata>
<g transform="translate(0.000000,832.000000) scale(0.100000,-0.100000)"
fill="#000000" stroke="none">
<path d="M6790 8313 c-374 -16 -804 -69 -1044 -129 -271 -68 -568 -212 -781
-379 -78 -61 -81 -64 -77 -99 4 -31 -9 -56 -101 -203 -57 -93 -184 -307 -282
-478 -98 -170 -206 -358 -241 -417 -34 -58 -102 -177 -150 -265 -47 -87 -100
-175 -116 -196 -80 -100 -174 -133 -703 -247 -470 -101 -557 -131 -935 -318
-322 -161 -366 -187 -578 -345 -128 -96 -147 -107 -185 -107 -61 -1 -204 -34
-320 -76 -56 -20 -112 -39 -125 -41 -15 -4 -61 14 -135 51 -146 73 -198 83
-342 67 -178 -19 -257 -69 -319 -200 -30 -63 -31 -71 -31 -196 0 -141 8 -171
76 -277 l30 -47 -45 -78 c-60 -103 -90 -188 -110 -303 -20 -124 -40 -411 -32
-470 5 -38 -1 -66 -34 -160 l-40 -114 0 -167 0 -168 -42 -12 c-51 -13 -84 -41
-97 -83 -11 -34 -31 -214 -31 -281 0 -56 33 -96 110 -135 32 -16 71 -45 86
-64 30 -35 111 -74 334 -159 149 -57 198 -91 244 -167 145 -243 391 -419 695
-497 277 -71 593 -19 777 128 112 89 140 95 195 43 29 -28 34 -29 294 -54 55
-5 168 -18 250 -29 274 -36 408 -45 665 -45 276 0 375 10 450 47 55 27 69 60
70 167 1 108 18 159 60 176 30 13 150 44 169 44 5 0 11 -75 14 -168 6 -184 28
-299 87 -448 123 -310 359 -577 640 -722 369 -191 754 -171 1075 56 136 96
305 286 396 445 148 260 242 665 256 1109 l6 196 181 4 181 4 30 -28 c38 -34
46 -35 84 -2 37 31 47 27 141 -61 105 -99 162 -121 234 -91 28 11 38 25 55 71
44 118 61 175 61 209 0 31 4 36 28 42 15 3 122 32 237 64 116 32 278 77 360
99 439 117 822 218 1085 285 162 42 351 91 420 110 527 142 819 220 845 223
l30 5 23 -149 c87 -576 237 -868 497 -965 52 -20 79 -23 195 -23 151 0 237 19
355 76 216 106 369 380 433 780 29 174 34 238 41 452 l6 189 122 67 c157 88
219 134 254 190 35 54 38 114 10 170 -11 21 -27 80 -36 132 -38 216 -104 443
-175 596 -21 45 -90 162 -153 260 -150 233 -178 291 -237 490 -79 262 -325
951 -421 1177 -121 283 -276 547 -422 718 -70 81 -193 189 -292 256 -80 53
-453 235 -535 260 -112 34 -251 61 -373 72 -64 5 -168 15 -230 20 -62 6 -174
10 -248 10 -73 0 -172 4 -219 10 -47 5 -240 16 -430 25 -410 18 -641 32 -770
45 -179 18 -1195 34 -1450 23z m815 -63 c413 -10 635 -20 1075 -51 157 -11
434 -26 615 -34 666 -29 890 -47 1085 -85 109 -21 207 -53 230 -75 13 -14 12
-15 -15 -10 -17 2 -93 16 -170 29 -77 14 -194 31 -260 38 -156 17 -636 17
-775 0 -273 -33 -555 -97 -709 -161 l-73 -31 -36 31 c-91 80 -248 108 -607
109 -198 0 -510 13 -725 30 -69 6 -276 15 -460 20 -457 14 -1019 40 -1044 50
-16 5 -3 11 52 24 207 47 464 80 782 101 392 25 530 27 1035 15z m-1510 -185
c204 -8 487 -20 630 -26 143 -6 307 -15 365 -20 58 -5 335 -16 615 -24 513
-15 622 -22 730 -50 60 -16 124 -49 127 -66 0 -5 1 -13 2 -18 1 -6 -26 -24
-59 -42 -95 -49 -214 -132 -290 -199 -38 -34 -89 -78 -112 -97 l-41 -34 -654
41 c-359 22 -1017 62 -1463 90 -1070 65 -993 59 -1000 78 -7 18 -11 14 95 92
112 82 247 161 372 217 165 73 197 83 258 78 30 -2 222 -11 425 -20z m4190
-54 c176 -28 322 -51 392 -61 238 -32 577 -301 791 -628 152 -232 319 -622
472 -1102 29 -91 59 -177 66 -192 8 -16 10 -28 5 -28 -18 0 -215 20 -249 26
l-33 5 36 41 c50 55 65 95 65 175 0 101 -46 255 -147 492 -216 508 -462 812
-669 829 -49 4 -52 3 -70 -27 -10 -17 -21 -31 -24 -31 -3 0 -61 36 -130 80
-156 101 -259 150 -425 206 -258 86 -447 115 -740 115 -321 0 -564 -42 -893
-155 -288 -100 -428 -199 -545 -388 -25 -40 -104 -204 -176 -364 -71 -160
-162 -360 -202 -445 -39 -85 -107 -233 -149 -329 -43 -96 -107 -241 -143 -321
-36 -80 -69 -158 -73 -173 -10 -39 -63 -62 -164 -69 -47 -3 -137 -15 -200 -27
-63 -11 -243 -43 -400 -70 -1269 -220 -2027 -443 -2591 -761 -98 -55 -192
-104 -210 -109 -19 -6 -75 -10 -125 -10 -52 0 -112 -6 -142 -15 -131 -39 -235
-179 -249 -338 -6 -56 -8 -60 -75 -125 -115 -113 -251 -280 -338 -417 -81
-128 -220 -406 -220 -441 -1 -11 -7 -30 -15 -44 -16 -28 -21 -80 -6 -65 5 6
32 68 60 138 94 235 157 349 303 545 91 122 260 312 278 312 4 0 10 -21 13
-47 3 -27 17 -76 31 -110 14 -35 26 -64 26 -67 0 -2 -13 -9 -29 -16 -16 -6
-41 -24 -56 -40 -35 -37 -38 -111 -6 -163 11 -19 21 -41 21 -49 0 -8 -37 -68
-82 -134 -173 -252 -294 -491 -385 -759 -41 -121 -73 -244 -73 -279 0 -76 -47
16 -91 177 -17 61 -37 135 -45 164 -15 54 -51 93 -86 93 -32 0 -63 -42 -99
-135 l-34 -90 0 -348 c0 -191 -3 -347 -7 -347 -4 0 -29 4 -55 10 -26 5 -156
23 -288 40 -619 78 -1029 173 -1370 319 -135 58 -217 101 -222 117 -2 6 8 16
22 22 36 17 216 52 264 52 23 0 41 4 41 10 0 5 -29 51 -64 102 -278 400 -333
494 -357 605 -10 49 -9 57 5 65 24 13 55 81 67 144 18 98 -20 264 -63 272 -9
2 -36 -16 -60 -40 l-43 -43 -3 83 c-6 162 34 313 123 461 l44 75 93 -3 c117
-3 207 17 315 70 105 52 198 136 243 221 30 56 34 72 34 143 1 44 -1 93 -4
109 -5 28 -5 28 130 76 125 44 272 78 299 69 6 -2 -48 -87 -120 -189 -265
-371 -356 -527 -413 -708 -61 -196 -85 -325 -106 -579 -28 -339 -29 -334 20
-387 78 -85 195 -129 450 -171 85 -14 239 -48 341 -75 321 -86 459 -97 566
-44 100 48 146 131 218 389 26 94 58 194 71 224 24 53 24 53 5 96 -40 90 -158
191 -319 273 -123 63 -233 103 -403 147 -227 59 -300 70 -464 70 -158 0 -212
-9 -317 -51 -70 -29 -68 -29 -68 -1 0 118 135 383 339 667 58 80 131 184 162
232 32 47 73 97 91 110 18 13 94 70 168 125 199 148 421 285 437 270 2 -3 -67
-67 -154 -143 -319 -278 -530 -509 -668 -729 -74 -117 -158 -289 -153 -312 3
-11 32 37 77 126 89 176 184 319 301 454 114 132 196 211 468 455 214 191 229
203 350 265 247 126 436 186 855 272 294 60 459 101 549 135 77 29 158 116
246 268 113 192 395 685 497 867 34 61 109 184 167 275 58 91 115 183 127 205
l22 40 122 -8 c1595 -101 2964 -187 2987 -187 23 0 50 18 120 83 214 193 434
315 715 396 152 43 404 87 605 105 25 2 187 2 360 0 253 -2 338 -7 435 -23z
m-280 -161 c142 -24 300 -66 433 -116 128 -48 172 -71 330 -172 l133 -84 -7
-93 c-9 -129 18 -236 125 -489 63 -149 128 -363 151 -496 45 -268 81 -326 229
-375 79 -26 91 -27 195 -21 87 5 146 2 273 -15 l162 -22 25 -63 c15 -36 46
-135 71 -221 58 -200 98 -283 233 -490 60 -92 130 -208 154 -258 68 -135 126
-326 173 -570 l23 -120 -26 -29 c-68 -72 -270 -192 -463 -275 -193 -82 -399
-137 -649 -171 -192 -26 -269 -40 -276 -51 -7 -12 21 -11 176 7 486 56 909
213 1188 440 30 25 60 43 66 41 6 -2 15 -20 20 -41 8 -30 6 -44 -9 -73 -42
-77 -260 -210 -531 -323 -88 -37 -362 -119 -469 -141 -207 -42 -326 -58 -487
-64 l-178 -6 5 168 c13 395 34 643 76 893 26 156 73 364 101 450 66 205 215
403 353 471 53 26 80 32 152 36 108 7 175 -9 309 -72 108 -50 104 -49 104 -35
0 5 -19 22 -42 37 -24 15 -82 64 -129 109 -68 65 -106 92 -180 128 -166 80
-378 123 -551 111 l-96 -7 -6 58 c-31 293 -90 586 -146 729 -15 39 -37 102
-50 140 -42 130 -171 364 -240 436 -22 23 -42 50 -46 61 -3 11 -17 24 -30 30
-13 6 -24 16 -24 21 0 12 -40 57 -51 57 -4 0 -22 15 -41 33 -127 119 -293 210
-493 268 -100 29 -125 32 -286 36 l-175 5 3 -33 c2 -19 12 -160 23 -314 11
-154 43 -587 70 -962 28 -375 50 -684 50 -687 0 -3 -11 -6 -24 -6 -22 0 -24 5
-30 78 -3 42 -13 156 -21 252 -25 308 -36 451 -45 602 -4 81 -10 151 -13 155
-3 5 -11 109 -17 231 -6 122 -15 243 -20 269 -5 27 -15 123 -21 215 -7 93 -16
174 -20 180 -6 10 -63 13 -231 13 -235 0 -254 -3 -413 -57 -145 -50 -361 -177
-482 -283 -107 -94 -229 -265 -356 -500 -211 -391 -457 -1099 -549 -1580 -20
-108 -23 -150 -23 -415 0 -165 8 -421 17 -580 10 -157 25 -445 33 -640 18
-411 33 -647 41 -674 5 -16 14 -18 73 -14 36 3 206 39 376 81 522 127 812 197
990 237 94 21 244 57 335 79 91 21 219 51 285 66 66 15 136 34 156 42 62 24
64 44 40 378 -29 400 -66 931 -96 1365 -13 201 -27 386 -29 411 -4 43 -3 47
19 52 31 5 28 26 60 -413 15 -195 44 -587 65 -870 22 -283 45 -590 51 -683 8
-110 16 -166 23 -164 13 4 10 148 -5 242 -5 33 -9 89 -9 125 0 36 -9 151 -20
255 -11 105 -24 287 -30 405 -5 118 -14 250 -20 293 -5 43 -17 176 -25 295 -8
119 -20 269 -25 332 -5 63 -10 131 -10 151 l0 36 73 6 c39 4 341 31 670 62
328 30 608 55 622 55 24 0 25 -2 25 -73 0 -70 -1 -74 -31 -96 -28 -21 -32 -21
-54 -7 -40 26 -42 60 -5 106 37 46 19 56 -24 14 -37 -37 -38 -84 -4 -121 32
-34 66 -38 96 -11 l25 23 -7 -265 c-8 -306 -19 -475 -47 -685 -10 -82 -24
-222 -30 -310 -5 -88 -17 -248 -25 -355 -17 -240 -17 -230 2 -230 36 0 4 -23
-37 -27 -79 -7 -196 -33 -476 -109 -150 -41 -346 -92 -435 -115 -89 -22 -170
-44 -180 -50 -22 -12 -24 -61 -4 -78 11 -10 30 -8 83 8 94 27 291 79 671 176
216 55 333 89 353 104 l29 22 0 -89 0 -89 -62 -13 c-33 -6 -127 -32 -207 -56
-80 -24 -215 -63 -301 -85 -85 -22 -234 -62 -330 -89 -96 -27 -384 -103 -640
-169 -701 -182 -977 -255 -1285 -338 -154 -41 -346 -92 -427 -113 l-148 -38
-54 61 c-30 34 -54 63 -53 63 9 7 1003 247 1592 385 509 119 717 171 768 193
87 38 -27 14 -583 -124 -129 -32 -408 -100 -620 -150 -212 -50 -486 -115 -610
-145 -124 -30 -292 -70 -375 -89 -82 -19 -160 -38 -171 -41 -19 -6 -29 6 -76
82 -75 120 -174 305 -311 578 -63 127 -138 264 -165 305 -134 206 -295 338
-487 402 -61 20 -90 23 -220 23 -165 0 -199 -7 -330 -72 -101 -50 -188 -115
-285 -213 -164 -167 -438 -641 -590 -1020 -116 -293 -201 -445 -315 -568 -123
-133 -256 -215 -388 -238 -47 -8 -104 -21 -127 -29 -23 -8 -70 -20 -105 -26
-58 -10 -76 -8 -222 25 -134 30 -679 113 -866 132 -54 5 -58 8 -76 43 -11 20
-47 73 -81 118 -33 45 -65 95 -70 112 -23 80 64 396 182 666 55 124 119 236
248 430 60 91 113 177 116 191 6 23 9 24 98 24 86 0 116 8 116 32 0 14 -133 8
-175 -7 -39 -15 -41 -14 -63 11 -27 31 -30 98 -6 125 23 26 131 15 203 -19 80
-38 148 -40 268 -7 54 15 130 43 170 61 134 63 245 206 260 334 4 35 14 61 27
75 22 22 161 70 381 130 277 76 494 100 814 92 388 -10 659 -74 970 -226 101
-49 150 -64 135 -40 -20 32 -361 172 -534 218 -480 129 -1082 98 -1615 -84
-88 -30 -163 -55 -167 -55 -5 0 -8 9 -8 19 0 15 51 44 233 134 696 345 1316
556 2202 751 293 65 484 100 493 91 10 -10 -43 -153 -135 -365 -226 -521 -303
-703 -303 -721 0 -36 18 -19 35 34 9 28 61 151 115 272 53 121 139 321 189
444 102 249 141 332 201 436 49 83 80 118 139 156 42 27 47 37 136 241 50 117
124 283 162 368 39 85 103 231 143 325 40 93 95 217 122 275 28 58 88 185 134
283 93 200 144 278 238 364 174 159 614 308 1041 352 145 15 471 5 610 -19z
m-574 -156 l74 -7 23 -301 c13 -165 45 -584 72 -931 63 -801 60 -740 35 -742
-11 -1 -87 -9 -170 -17 -437 -46 -1107 -113 -1345 -135 -124 -11 -285 -24
-358 -29 -131 -9 -168 -20 -145 -43 8 -8 37 -8 104 0 52 6 189 18 304 26 116
9 289 25 385 35 96 11 236 24 310 30 74 6 293 29 485 50 193 22 373 42 401 45
l52 5 6 -108 c9 -145 76 -1048 96 -1307 6 -71 15 -215 21 -320 5 -104 12 -229
16 -278 4 -69 2 -97 -12 -132 -9 -25 -19 -45 -23 -45 -3 0 -247 -57 -542 -126
-1769 -415 -1626 -382 -1639 -369 -5 6 -14 140 -20 299 -7 159 -18 389 -26
510 -8 122 -19 376 -25 566 -5 190 -15 419 -21 510 -17 263 14 455 141 875 94
313 289 844 365 995 54 108 215 375 268 446 101 133 285 286 432 358 255 125
457 163 736 140z m598 -28 c346 -96 668 -376 845 -731 91 -183 166 -421 221
-704 24 -125 57 -372 51 -378 -2 -2 -198 -21 -437 -43 -239 -22 -551 -51 -694
-65 -143 -13 -260 -23 -261 -22 -3 4 -30 382 -28 386 2 2 6 -10 9 -25 30 -133
66 -193 130 -214 27 -9 53 -8 122 5 172 31 411 56 625 65 119 5 238 15 264 21
64 16 125 77 150 150 24 70 24 197 0 304 -35 151 -172 467 -263 603 -65 98
-216 260 -321 343 -211 169 -521 296 -666 275 -58 -9 -112 -53 -126 -104 -5
-20 -11 -82 -11 -137 l-2 -100 -12 150 c-7 83 -14 174 -14 204 l-1 54 163 -6
c133 -4 179 -10 256 -31z m-75 -76 c268 -68 599 -309 774 -563 87 -126 238
-457 209 -457 -12 -1 -1221 102 -1224 104 -7 5 -53 754 -49 794 8 67 28 107
64 126 38 21 135 20 226 -4z m1156 -72 c136 -68 305 -277 439 -547 262 -523
317 -765 204 -883 -25 -26 -27 -27 -154 -26 l-129 1 0 27 c0 78 -80 251 -156
338 -43 49 -106 92 -136 92 -8 0 -21 34 -34 88 -12 48 -60 184 -107 303 -48
118 -94 244 -103 279 -23 89 -16 247 13 313 21 44 24 47 61 47 24 0 64 -12
102 -32z m-1463 -310 c-2 -13 -4 -5 -4 17 -1 22 1 32 4 23 2 -10 2 -28 0 -40z
m10 -155 c-2 -16 -4 -5 -4 22 0 28 2 40 4 28 2 -13 2 -35 0 -50z m37 -408 c3
-60 4 -105 1 -100 -6 14 -35 392 -34 440 2 50 25 -192 33 -340z m656 -60 c305
-25 569 -47 585 -50 28 -5 32 -11 53 -83 60 -203 45 -338 -46 -425 -39 -37
-74 -44 -272 -57 -252 -16 -577 -49 -655 -65 -91 -19 -140 -19 -171 2 -36 23
-72 101 -84 180 -9 60 -50 508 -50 540 0 9 13 11 43 8 23 -3 292 -26 597 -50z
m895 -127 c98 -65 205 -256 205 -368 0 -47 -12 -54 -66 -41 -103 26 -139 82
-174 271 -11 63 -25 127 -30 143 -12 37 4 35 65 -5z m368 -425 c-13 -2 -35 -2
-50 0 -16 2 -5 4 22 4 28 0 40 -2 28 -4z m12 -252 c110 -29 253 -101 311 -157
41 -38 45 -45 24 -40 -157 37 -256 30 -369 -25 -84 -41 -202 -157 -261 -257
-74 -125 -170 -433 -203 -652 -8 -52 -15 -79 -16 -60 0 19 4 64 9 100 25 176
66 923 57 1044 l-7 78 188 -5 c148 -4 204 -9 267 -26z m-4319 -178 c-20 -27
-51 -72 -68 -100 -27 -44 -39 -54 -68 -59 -344 -59 -837 -169 -1184 -264 -147
-41 -661 -211 -826 -274 -201 -77 -464 -195 -689 -309 l-235 -118 -56 60 c-56
58 -108 90 -202 126 -27 10 -48 20 -48 24 0 6 113 68 333 183 249 131 795 324
1222 433 239 61 918 199 1180 240 55 9 181 31 280 50 200 39 289 52 353 54
l44 1 -36 -47z m-6389 -552 c26 -11 82 -37 123 -58 95 -49 113 -78 107 -174
-11 -167 -143 -305 -363 -378 -87 -29 -108 -32 -186 -29 -98 3 -105 8 -162
103 -59 98 -73 287 -29 386 41 92 127 152 234 165 54 6 55 6 92 -35 44 -48 89
-135 112 -216 15 -51 16 -67 5 -132 -14 -79 -10 -99 12 -61 21 36 17 192 -6
252 -15 40 -64 113 -130 195 -16 21 128 7 191 -18z m2899 -447 c104 -108 150
-257 125 -405 -22 -138 -82 -230 -173 -269 -135 -58 -308 33 -364 190 -53 151
-10 354 97 461 57 57 109 79 192 79 l69 0 54 -56z m136 38 c80 -23 155 -69
206 -128 70 -78 81 -208 27 -314 -35 -69 -118 -156 -176 -186 -48 -24 -149
-64 -149 -59 0 1 16 29 35 61 48 79 66 142 72 244 9 144 -28 245 -126 350
l-47 50 46 0 c25 0 75 -8 112 -18z m2478 -517 c202 -41 368 -162 510 -372 29
-43 115 -205 191 -360 219 -443 313 -602 433 -730 32 -35 69 -66 81 -69 13 -3
54 5 94 20 l71 26 0 -43 c0 -57 -54 -217 -81 -239 -13 -11 -38 -18 -64 -18
-47 0 -78 19 -182 113 -35 31 -72 61 -84 67 -20 11 -24 10 -85 -35 -21 -15
-97 66 -257 275 -85 110 -195 239 -273 319 -73 73 -137 145 -144 159 -6 14
-24 42 -40 63 -29 36 -30 37 -29 170 0 105 -5 150 -20 206 -44 155 -119 282
-230 388 -39 38 -71 72 -71 76 0 10 95 1 180 -16z m-211 0 c16 -8 54 -43 86
-77 160 -177 246 -379 244 -576 -1 -118 -5 -122 -64 -70 -106 94 -231 161
-370 200 -68 19 -106 22 -260 22 -154 0 -192 -3 -264 -22 -47 -12 -86 -20 -88
-19 -7 7 140 221 184 269 67 72 233 192 328 238 108 52 156 60 204 35z m-4599
-50 c400 -57 837 -247 961 -418 35 -49 35 -70 -4 -162 -14 -33 -45 -130 -68
-215 -48 -177 -75 -242 -121 -288 -53 -55 -83 -66 -193 -70 -113 -4 -194 10
-430 76 -77 22 -206 50 -285 62 -325 50 -473 113 -504 216 -4 12 -2 61 4 110
6 49 15 163 20 254 5 91 16 201 24 245 18 94 40 120 132 155 130 49 282 61
464 35z m1850 -100 c11 -13 5 -15 -40 -15 -45 0 -51 2 -40 15 7 8 25 15 40 15
15 0 33 -7 40 -15z m-3047 -211 c11 -39 1 -166 -18 -210 -13 -32 -18 -35 -42
-29 -52 13 -56 22 -50 113 5 81 6 85 43 123 21 22 43 38 48 36 5 -2 14 -17 19
-33z m11947 -111 c0 -143 -13 -309 -36 -456 -60 -394 -191 -653 -397 -788 -78
-50 -162 -77 -284 -91 -274 -30 -455 67 -582 312 -78 151 -122 307 -171 604
-17 105 -32 194 -33 199 -1 6 39 21 88 34 89 23 290 42 457 43 l76 0 4 -252
c5 -240 6 -258 32 -343 33 -109 66 -171 118 -223 52 -53 97 -73 173 -80 100
-8 156 16 240 102 119 121 187 280 247 571 28 138 30 160 24 285 -3 74 -9 147
-12 162 -5 23 -2 29 17 37 13 5 27 10 32 10 4 1 7 -56 7 -126z m-1380 77 c-24
-16 -158 -55 -410 -119 -312 -79 -570 -148 -604 -161 -31 -11 -46 -6 -46 16 0
8 10 14 23 14 24 1 97 20 507 132 233 64 374 100 475 122 11 2 31 4 45 5 20 0
22 -1 10 -9z m-10521 -85 c0 -27 -4 -70 -10 -94 -10 -45 -43 -101 -60 -101
-13 0 -11 37 2 46 26 16 49 90 49 164 2 85 18 71 19 -15z m11810 -30 c5 -129
-41 -421 -91 -575 -49 -153 -145 -294 -236 -348 -39 -22 -59 -27 -114 -27 -85
0 -110 18 -47 35 112 30 230 133 314 277 93 160 122 282 132 561 6 177 8 192
22 177 11 -11 17 -40 20 -100z m-65 79 c10 -25 7 -202 -5 -299 -29 -240 -110
-428 -238 -555 -73 -73 -155 -118 -230 -127 -46 -5 -48 -4 -83 37 -84 97 -118
261 -118 565 l0 212 57 12 c31 6 58 9 61 6 2 -2 -1 -62 -8 -132 -14 -146 -5
-243 31 -339 39 -104 135 -183 222 -184 33 0 46 7 91 53 112 112 159 218 177
401 7 78 6 127 -5 216 -15 113 -15 115 6 133 25 21 34 21 42 1z m-90 -61 c3
-21 9 -87 12 -148 12 -206 -41 -392 -138 -485 -73 -72 -79 -74 -140 -55 -96
31 -144 101 -169 240 -14 81 -5 315 14 354 10 20 28 28 102 47 50 12 137 36
195 53 58 16 108 30 111 30 4 1 9 -16 13 -36z m-6067 -77 c147 -31 279 -95
370 -179 89 -82 194 -235 249 -363 115 -267 137 -370 135 -634 -3 -425 -76
-791 -216 -1087 -121 -256 -314 -460 -541 -572 -164 -81 -284 -106 -459 -98
-395 18 -779 285 -982 683 -104 203 -144 365 -144 585 0 76 2 143 5 147 3 5
42 30 87 57 146 86 258 186 338 303 63 90 197 371 306 637 31 76 73 170 92
209 53 106 142 245 166 261 28 17 163 52 253 64 89 13 250 6 341 -13z m-5709
-111 c11 -13 32 -64 47 -112 39 -125 78 -197 206 -378 169 -240 180 -257 176
-269 -2 -6 -39 -14 -83 -17 -178 -13 -284 -81 -284 -181 0 -86 10 -106 64
-137 71 -40 283 -132 391 -169 330 -113 783 -208 1273 -267 73 -8 170 -22 215
-30 45 -8 85 -15 90 -15 4 0 7 -13 7 -29 l0 -30 -77 3 c-43 2 -175 20 -293 40
-118 19 -307 50 -420 67 -258 38 -459 80 -607 125 -147 44 -214 73 -333 140
-52 29 -142 71 -200 92 -58 22 -124 49 -147 61 l-42 21 0 367 c-1 349 -7 461
-30 564 -19 80 -9 179 18 179 5 0 18 -11 29 -25z m-55 -688 c-1 -203 -4 -371
-6 -374 -13 -13 -48 22 -59 58 -13 45 -38 71 -113 121 l-50 33 4 110 c2 61 7
120 12 133 10 25 63 52 103 52 13 0 28 8 32 18 5 9 8 100 9 202 0 142 3 191
14 210 14 24 16 20 35 -85 18 -99 20 -148 19 -478z m6493 291 c86 -91 219
-253 325 -395 l80 -108 -30 -8 c-17 -4 -88 -6 -158 -5 l-127 3 -12 72 c-17
101 -68 267 -110 359 -20 44 -45 101 -55 127 -18 45 -18 47 -1 38 10 -5 49
-43 88 -83z m-4152 -90 c8 -13 24 -63 36 -113 26 -113 44 -171 82 -260 57
-131 99 -210 138 -256 48 -57 80 -109 80 -131 0 -11 -12 -18 -39 -23 -66 -11
-153 -59 -200 -110 l-44 -48 7 -133 7 -134 -36 0 -35 0 0 218 c-1 186 -14 484
-35 787 -9 124 -14 143 -35 150 -22 7 -27 44 -8 63 20 20 66 14 82 -10z m-84
-140 c0 -29 7 -123 14 -208 8 -85 17 -297 21 -470 3 -173 8 -332 11 -353 l6
-38 -59 3 -58 3 3 58 c4 76 -11 94 -87 102 -186 20 -803 117 -991 156 -316 64
-587 151 -835 269 l-125 59 0 40 c0 29 4 41 15 41 30 0 137 -46 341 -146 323
-159 447 -194 835 -238 118 -14 288 -36 379 -50 244 -36 450 -52 461 -35 26
42 30 125 19 385 -11 261 -11 266 12 369 12 58 26 105 30 105 5 0 8 -24 8 -52z
m-2422 -298 c62 -40 82 -68 40 -54 -29 9 -66 35 -97 68 -35 37 -14 32 57 -14z
m559 -59 c254 -114 514 -195 803 -250 118 -22 787 -126 894 -138 45 -5 71 -13
74 -22 6 -19 -130 -10 -311 19 -70 11 -185 25 -255 31 -182 15 -541 67 -649
94 -122 31 -243 80 -443 180 -91 45 -204 97 -252 115 -52 19 -88 38 -88 46 0
8 6 14 14 14 7 0 103 -40 213 -89z m2418 -312 c39 -5 151 -19 250 -29 223 -25
381 -50 554 -90 73 -16 144 -30 157 -30 13 0 24 -4 24 -8 0 -15 -272 -42 -420
-42 -190 0 -336 13 -613 55 -125 19 -246 35 -267 35 -22 0 -40 4 -40 8 0 22
67 68 127 88 75 26 123 29 228 13z m-2075 -151 c179 -62 300 -88 660 -142 265
-41 553 -89 560 -94 19 -14 -140 -104 -247 -140 -262 -90 -607 -31 -888 152
-96 63 -217 179 -253 244 l-23 41 43 -13 c24 -7 90 -29 148 -48z m1995 -12
c371 -62 719 -77 957 -41 70 10 129 17 132 14 2 -2 1 -20 -3 -39 l-7 -35 -79
-8 c-97 -10 -568 -2 -720 13 -138 13 -297 35 -440 61 -143 26 -145 27 -145 51
0 20 4 21 78 15 42 -3 145 -17 227 -31z m-163 -56 c317 -60 563 -82 913 -80
143 1 276 3 295 4 35 1 35 1 38 -46 l3 -48 -33 -1 c-18 0 -89 -4 -158 -8 -143
-8 -527 2 -675 19 -55 6 -167 22 -250 35 -82 13 -178 27 -212 30 -61 7 -63 8
-69 40 -8 44 3 75 26 75 11 0 65 -9 122 -20z m83 -159 c83 -12 179 -25 215
-31 145 -21 405 -32 661 -28 148 2 269 1 269 -3 0 -18 -108 -40 -240 -50 -174
-12 -526 2 -794 32 -150 17 -315 43 -322 52 0 1 -4 15 -8 31 -7 29 -7 29 31
23 21 -3 106 -15 188 -26z"/>
<path d="M5105 7570 c-110 -18 -197 -63 -267 -138 -59 -63 -95 -119 -193 -302
-43 -80 -112 -201 -153 -269 -96 -160 -122 -219 -122 -280 0 -37 6 -54 24 -74
64 -69 198 -105 441 -117 200 -11 521 -38 870 -74 127 -13 306 -29 398 -36 92
-6 223 -18 290 -26 67 -8 205 -23 307 -34 102 -11 223 -25 270 -31 47 -6 164
-12 260 -13 205 -1 273 13 359 72 64 43 83 77 190 337 38 94 92 221 120 282
129 284 141 391 51 467 -64 53 -140 67 -425 77 -143 5 -366 15 -495 24 -129 8
-311 20 -405 26 -93 6 -195 15 -225 20 -30 5 -91 9 -135 9 -44 0 -129 5 -190
10 -60 5 -175 14 -255 19 -80 6 -224 19 -320 30 -228 26 -334 31 -395 21z
m565 -80 c292 -31 345 -36 630 -50 245 -13 630 -39 650 -45 25 -7 -256 3 -385
14 -112 10 -292 20 -750 41 -104 5 -266 16 -360 24 -276 25 -368 20 -465 -29
-76 -39 -139 -117 -274 -345 -71 -118 -161 -268 -202 -332 -64 -100 -74 -123
-74 -162 0 -59 34 -101 100 -120 44 -13 230 -40 345 -49 25 -2 15 -4 -25 -5
-36 -1 -110 5 -165 13 -227 33 -310 87 -276 181 7 20 79 151 160 292 81 142
170 298 196 347 62 115 127 184 205 219 116 52 247 53 690 6z m-130 -45 c218
-16 489 -32 810 -45 118 -5 283 -14 365 -19 83 -6 242 -15 355 -21 418 -23
592 -39 711 -68 l114 -28 -2 -76 c-2 -99 -45 -228 -151 -453 -44 -93 -96 -214
-117 -268 -69 -183 -113 -203 -420 -194 -110 4 -281 16 -380 27 -99 11 -283
27 -410 35 -126 9 -329 27 -450 40 -121 13 -292 29 -380 35 -88 6 -232 18
-320 26 -88 8 -245 19 -350 24 -342 18 -445 51 -445 145 0 42 69 165 340 605
113 182 183 232 350 249 83 9 100 8 380 -14z m1588 -62 c-10 -2 -26 -2 -35 0
-10 3 -2 5 17 5 19 0 27 -2 18 -5z m387 -13 c88 -6 200 -15 249 -20 231 -24
254 -121 102 -443 -25 -53 -64 -141 -86 -195 -93 -231 -129 -314 -154 -356
-57 -97 -144 -133 -329 -137 -85 -2 -2111 183 -2071 189 12 2 482 -36 1045
-83 679 -58 1050 -85 1102 -82 99 6 176 41 217 99 16 22 46 83 66 136 20 54
72 173 116 266 106 226 139 327 146 441 4 90 4 91 -21 102 -80 37 -300 67
-582 82 -143 7 -150 8 -60 10 55 0 172 -4 260 -9z m-2392 -947 c-7 -2 -21 -2
-30 0 -10 3 -4 5 12 5 17 0 24 -2 18 -5z m74 -9 c-3 -3 -12 -4 -19 -1 -8 3 -5
6 6 6 11 1 17 -2 13 -5z"/>
<path d="M4257 6330 c-56 -10 -79 -28 -115 -88 -36 -62 -52 -114 -41 -133 12
-23 66 -31 514 -79 516 -55 723 -79 835 -95 52 -8 158 -19 235 -25 77 -6 226
-22 330 -35 105 -13 258 -29 340 -35 83 -6 211 -17 285 -25 74 -8 171 -17 215
-20 44 -3 166 -15 271 -27 105 -11 203 -18 218 -14 14 3 43 29 66 57 45 57 67
121 54 159 -19 54 -142 84 -404 100 -96 5 -215 17 -265 24 -49 8 -153 19 -230
26 -77 6 -221 20 -320 30 -99 11 -373 38 -610 60 -236 22 -547 52 -690 67
-143 14 -280 25 -304 24 -24 -1 -60 4 -79 10 -19 6 -62 13 -96 14 -34 2 -83 5
-111 8 -27 3 -72 2 -98 -3z m96 -37 c-7 -2 -19 -2 -25 0 -7 3 -2 5 12 5 14 0
19 -2 13 -5z m-69 -18 c15 -10 44 -15 82 -14 32 1 97 -4 144 -11 47 -6 114
-14 150 -16 36 -2 115 -11 175 -19 61 -9 166 -20 235 -25 117 -9 257 -23 360
-35 67 -8 445 -44 520 -49 36 -3 88 -8 115 -11 138 -17 1273 -125 1316 -125
44 0 49 -2 49 -23 0 -34 -49 -126 -76 -144 -22 -14 -42 -14 -182 -4 -86 7
-229 21 -317 31 -88 11 -243 26 -345 35 -102 8 -257 24 -345 35 -88 10 -203
21 -255 25 -52 4 -151 15 -220 25 -69 11 -228 29 -355 40 -126 11 -297 29
-380 40 -82 10 -181 22 -220 25 -38 4 -162 20 -275 35 -113 16 -231 32 -262
35 -52 6 -58 9 -58 29 0 38 81 136 113 136 4 0 18 -7 31 -15z m391 -15 c-3 -5
-12 -10 -20 -10 -8 0 -17 5 -20 10 -4 6 5 10 20 10 15 0 24 -4 20 -10z m163
-17 c-10 -2 -26 -2 -35 0 -10 3 -2 5 17 5 19 0 27 -2 18 -5z m170 -10 c-10 -2
-26 -2 -35 0 -10 3 -2 5 17 5 19 0 27 -2 18 -5z m160 -20 c-16 -2 -40 -2 -55
0 -16 2 -3 4 27 4 30 0 43 -2 28 -4z m160 -20 c-10 -2 -28 -2 -40 0 -13 2 -5
4 17 4 22 1 32 -1 23 -4z m170 -10 c-16 -2 -40 -2 -55 0 -16 2 -3 4 27 4 30 0
43 -2 28 -4z m175 -20 c-18 -2 -48 -2 -65 0 -18 2 -4 4 32 4 36 0 50 -2 33 -4z
m187 -13 c0 -5 -25 -10 -55 -10 -30 0 -55 5 -55 10 0 6 25 10 55 10 30 0 55
-4 55 -10z m133 -17 c-18 -2 -48 -2 -65 0 -18 2 -4 4 32 4 36 0 50 -2 33 -4z
m164 -20 c-20 -2 -52 -2 -70 0 -17 2 0 4 38 4 39 0 53 -2 32 -4z m203 -13 c0
-9 -118 -3 -129 6 -2 2 26 4 62 4 37 0 67 -4 67 -10z m127 -17 c-20 -2 -52 -2
-70 0 -17 2 0 4 38 4 39 0 53 -2 32 -4z m198 -18 c6 -2 -23 -4 -63 -4 -40 -1
-71 3 -68 7 5 8 107 5 131 -3z m98 -12 c-13 -2 -33 -2 -45 0 -13 2 -3 4 22 4
25 0 35 -2 23 -4z m377 -29 c74 -8 141 -20 150 -25 10 -7 2 -8 -30 -5 -25 3
-137 15 -249 26 -113 11 -207 23 -210 26 -8 9 171 -3 339 -22z"/>
<path d="M3980 5806 c-452 -123 -657 -187 -835 -261 -166 -69 -408 -185 -490
-235 -250 -151 -600 -474 -782 -721 -44 -60 -93 -141 -93 -154 0 -17 52 41 80
90 74 128 285 359 484 528 127 107 380 274 534 351 221 110 810 310 1122 381
145 33 212 54 204 66 -8 13 -11 13 -224 -45z"/>
<path d="M5279 5806 c-2 -2 -78 -12 -169 -20 -216 -21 -268 -29 -564 -82 -470
-85 -778 -176 -1064 -315 -419 -202 -805 -477 -1101 -784 -97 -101 -191 -217
-191 -236 0 -24 26 0 103 99 105 133 123 151 272 283 151 133 214 181 397 307
316 217 513 320 818 429 205 72 221 77 417 123 388 90 678 140 953 166 85 7
163 14 173 14 9 0 17 5 17 10 0 10 -52 15 -61 6z"/>
<path d="M6005 5700 c-151 -12 -310 -31 -425 -50 -63 -11 -146 -25 -185 -30
-38 -6 -133 -24 -210 -40 -77 -16 -180 -36 -228 -45 -218 -40 -867 -245 -1094
-346 -401 -177 -731 -406 -1061 -738 -192 -193 -239 -247 -228 -258 4 -4 35
24 69 62 102 116 326 335 429 421 167 139 441 315 642 414 224 109 323 149
599 239 323 105 492 149 867 226 251 52 325 63 575 90 310 33 405 46 405 56 0
10 -29 9 -155 -1z"/>
<path d="M790 4335 c0 -5 14 -34 30 -62 30 -53 71 -83 110 -83 31 0 20 22 -20
41 -18 9 -52 38 -76 65 -24 27 -43 45 -44 39z"/>
<path d="M887 3103 c-15 -26 -29 -221 -22 -314 l7 -106 37 -21 c86 -49 418
-153 671 -211 151 -34 661 -121 712 -121 l34 0 17 198 c10 108 20 211 23 228
l5 30 -103 16 c-174 28 -757 137 -873 164 -60 14 -193 53 -295 85 -189 60
-206 64 -213 52z m333 -113 c251 -66 388 -94 970 -197 80 -14 147 -27 148 -29
6 -4 -30 -398 -37 -405 -3 -4 -55 1 -116 11 -60 10 -159 25 -220 35 -371 56
-891 192 -1030 268 l-40 22 0 180 c0 99 3 188 7 197 6 15 15 14 90 -13 46 -17
148 -48 228 -69z"/>
<path d="M7060 5366 c-60 -22 -134 -63 -151 -82 -22 -26 -35 -64 -59 -167 -24
-104 -39 -136 -79 -170 -95 -80 -290 -111 -771 -122 -135 -3 -252 -8 -260 -10
-8 -3 -89 -9 -180 -14 -91 -6 -221 -20 -290 -31 -248 -42 -640 -152 -640 -180
0 -11 55 3 185 45 198 64 415 113 605 134 52 6 212 16 355 22 529 21 652 28
745 44 252 42 306 84 355 279 13 53 30 106 36 119 24 46 64 77 125 97 34 12
68 28 74 36 16 18 0 18 -50 0z"/>
<path d="M7336 4962 c-19 -31 35 -974 79 -1402 41 -388 103 -710 136 -710 10
0 242 55 1717 406 287 68 525 124 527 124 3 0 5 5 5 10 0 21 14 24 -1240 -277
-217 -52 -460 -110 -540 -129 -80 -19 -210 -51 -290 -71 -80 -20 -153 -34
-162 -30 -21 7 -52 106 -73 232 -9 50 -29 232 -45 405 -16 173 -34 349 -39
390 -6 41 -11 125 -11 185 -1 61 -6 157 -11 215 -5 58 -13 222 -17 365 -7 240
-17 318 -36 287z"/>
<path d="M6691 4247 c-6 -8 -8 -17 -5 -20 9 -8 44 11 44 23 0 15 -26 12 -39
-3z"/>
<path d="M4099 3155 c-63 -20 -131 -83 -159 -147 -19 -43 -22 -65 -18 -128 5
-83 21 -123 72 -173 98 -98 256 -96 340 4 53 62 70 109 70 184 0 179 -151 308
-305 260z m175 -44 c47 -29 93 -101 106 -168 36 -170 -111 -320 -272 -278
-117 30 -193 175 -159 302 16 59 68 124 121 151 57 30 150 26 204 -7z"/>
<path d="M4115 3091 c-68 -17 -117 -65 -135 -132 -22 -80 26 -203 96 -250 77
-50 202 0 255 103 28 55 26 154 -4 199 -41 60 -140 98 -212 80z m140 -40 c49
-28 75 -76 75 -138 0 -140 -133 -243 -240 -188 -61 31 -108 155 -89 232 26
102 157 151 254 94z"/>
<path d="M4270 2840 c-21 -48 -60 -73 -115 -74 -42 -1 -50 3 -87 42 -43 47
-54 50 -35 12 31 -61 131 -89 196 -56 35 19 63 61 59 88 -3 19 -5 17 -18 -12z"/>
<path d="M8971 7580 c-95 -26 -262 -105 -369 -177 -112 -74 -227 -189 -299
-299 -116 -176 -304 -575 -372 -786 -25 -80 -61 -243 -61 -279 0 -4 -16 -11
-35 -15 -40 -7 -85 -39 -85 -59 0 -8 -8 -18 -17 -23 -25 -14 -33 -179 -9 -188
26 -10 102 15 127 42 20 22 21 27 10 64 -9 31 -21 44 -51 60 -37 19 -39 22
-28 45 6 14 17 25 23 25 7 0 26 3 42 6 30 6 30 5 36 -46 9 -78 42 -137 94
-171 85 -53 184 -61 378 -30 66 11 219 25 340 31 233 11 351 22 505 44 52 8
125 17 162 21 76 7 143 37 171 77 36 49 42 200 18 506 -11 147 -34 447 -51
667 -31 399 -31 400 -57 427 -44 46 -131 70 -273 74 -102 3 -139 0 -199 -16z
m386 -39 c70 -27 82 -36 87 -59 7 -31 56 -695 56 -751 l0 -36 -217 12 c-438
23 -751 13 -884 -30 -128 -40 -253 -141 -295 -238 -17 -37 -20 -39 -61 -39
-56 0 -56 10 3 153 111 271 259 533 373 659 109 120 277 239 430 303 119 50
198 65 321 61 89 -3 118 -9 187 -35z m48 -875 l110 -11 6 -110 c7 -116 11
-305 7 -305 -161 14 -1401 149 -1405 153 -10 10 55 103 106 150 87 82 188 119
367 136 120 12 657 3 809 -13z m-660 -361 c413 -42 760 -78 773 -81 21 -4 22
-8 22 -112 0 -122 -17 -174 -67 -210 -41 -29 -94 -40 -268 -52 -82 -6 -235
-20 -340 -30 -316 -32 -325 -33 -325 -26 0 3 15 12 34 20 61 26 71 52 70 200
0 147 -18 208 -70 242 -50 33 -241 15 -441 -42 -87 -25 -133 -76 -133 -149 l0
-35 -51 0 -52 0 5 64 c5 57 75 286 88 286 3 0 343 -34 755 -75z m-186 -75 c36
-19 51 -82 51 -216 0 -125 0 -126 -29 -155 -28 -27 -34 -29 -113 -29 -162 0
-340 30 -383 64 -25 20 -50 90 -39 108 3 4 50 8 104 8 95 0 100 -1 116 -25 12
-19 25 -25 53 -25 45 0 61 14 61 54 0 63 -66 88 -110 41 -22 -24 -30 -25 -127
-25 l-103 0 0 45 c0 75 24 90 204 130 61 13 120 26 131 28 39 9 167 7 184 -3z
m-211 -176 c26 -18 28 -41 5 -66 -19 -21 -44 -23 -61 -6 -18 18 -15 28 8 28
27 0 26 17 -2 26 -21 6 -21 7 -3 20 24 17 26 17 53 -2z m-338 -69 c0 -66 57
-135 128 -155 20 -5 80 -12 132 -15 129 -8 180 -15 180 -24 0 -12 -212 -35
-295 -33 -153 5 -231 65 -250 194 l-7 47 43 4 c24 2 50 4 57 5 7 1 12 -9 12
-23z m-191 -101 c40 -51 23 -84 -56 -108 -22 -7 -23 -5 -23 57 0 35 3 67 7 70
15 16 53 5 72 -19z"/>
<path d="M9485 5615 c-21 -20 -25 -34 -25 -80 0 -46 4 -60 25 -80 44 -45 123
-26 140 33 4 16 2 22 -8 22 -8 0 -18 -11 -21 -25 -8 -32 -50 -43 -85 -24 -22
12 -26 23 -29 66 -2 42 1 56 17 72 28 28 59 26 93 -6 20 -19 28 -22 28 -12 0
9 -10 25 -23 37 -32 30 -81 29 -112 -3z"/>
<path d="M9496 5553 c-8 -21 10 -41 24 -27 11 11 3 44 -10 44 -4 0 -11 -8 -14
-17z"/>
<path d="M550 5019 c-43 -18 -81 -62 -116 -134 -50 -103 -47 -196 9 -313 25
-53 89 -110 132 -118 78 -14 166 39 212 130 38 73 44 198 14 278 -30 78 -59
118 -104 141 -46 23 -112 31 -147 16z m143 -36 c58 -29 107 -140 107 -244 0
-146 -83 -259 -191 -259 -169 0 -250 278 -131 453 48 71 134 91 215 50z"/>
<path d="M3569 4590 c-111 -59 -174 -217 -149 -374 28 -174 152 -286 285 -256
67 15 97 33 143 85 56 63 76 129 76 240 0 112 -20 177 -77 241 -23 26 -59 55
-82 65 -54 25 -148 24 -196 -1z m157 -10 c126 -48 201 -230 160 -389 -18 -71
-54 -125 -111 -171 -32 -26 -46 -30 -97 -30 -103 0 -155 38 -207 150 -35 76
-36 209 -2 288 30 66 117 149 164 155 60 7 66 7 93 -3z"/>
<path d="M1241 3925 c-70 -20 -119 -57 -142 -109 -19 -44 -69 -356 -69 -434 0
-91 51 -135 185 -162 33 -7 112 -29 175 -50 117 -40 187 -54 435 -90 77 -11
183 -27 236 -36 132 -23 181 -15 235 39 45 46 54 67 114 280 51 179 52 204 18
249 -41 54 -153 124 -258 162 -52 19 -134 51 -182 71 -157 65 -276 86 -498 91
-154 3 -206 1 -249 -11z m49 -52 c0 -47 -10 -53 -60 -41 -25 6 -49 14 -54 19
-12 11 54 49 87 49 23 0 27 -4 27 -27z m448 8 c54 -11 141 -35 194 -55 53 -20
101 -36 107 -36 14 0 14 -6 0 -70 -9 -44 -14 -50 -36 -50 -22 0 -242 33 -301
46 -14 3 -30 20 -44 49 -28 58 -44 63 -84 24 -30 -30 -37 -31 -82 -26 -28 3
-75 13 -106 22 -54 16 -56 18 -56 50 0 66 -3 65 161 65 105 0 177 -6 247 -19z
m-519 -71 c29 -10 55 -21 56 -22 9 -9 7 -120 -2 -129 -8 -8 -35 -4 -93 12
l-82 22 7 34 c8 46 36 103 49 103 6 0 35 -9 65 -20z m206 -62 c49 -12 92 -23
94 -24 2 -2 -7 -20 -20 -41 -21 -34 -21 -36 -4 -24 11 8 39 33 62 54 24 24 48
37 56 34 8 -3 29 -30 46 -60 17 -30 38 -60 45 -67 13 -10 13 -6 5 25 -6 20 -9
38 -7 40 2 2 308 -50 315 -54 1 -1 -7 -28 -19 -61 -11 -33 -23 -58 -28 -55 -4
3 -70 14 -145 25 -75 11 -141 23 -146 25 -4 3 -20 28 -35 55 -15 27 -33 51
-41 55 -9 3 -29 -10 -52 -35 -42 -46 -54 -48 -160 -24 l-71 16 3 69 c1 38 4
69 7 69 2 0 45 -10 95 -22z m810 -37 c81 -40 145 -85 134 -95 -6 -6 -158 15
-246 34 -57 13 -58 15 -42 74 10 36 12 38 42 32 18 -3 68 -24 112 -45z m-1032
-67 c37 -9 67 -22 68 -28 1 -19 -3 -121 -5 -123 -1 -1 -24 4 -51 13 -28 8 -67
19 -87 25 -41 11 -45 22 -32 102 5 28 11 36 23 33 9 -3 46 -13 84 -22z m947
-23 c30 -6 98 -16 150 -21 54 -6 101 -17 109 -24 10 -10 12 -27 7 -60 l-7 -47
-47 6 c-26 3 -112 12 -190 20 -79 7 -146 16 -149 19 -4 4 23 98 34 119 3 4 12
6 21 3 10 -2 42 -9 72 -15z m-499 -91 c51 -81 69 -97 49 -46 -15 41 -13 46 23
46 53 -1 227 -36 239 -48 9 -9 9 -18 0 -37 -7 -14 -12 -36 -12 -49 0 -37 -22
-49 -67 -37 -21 5 -103 19 -183 31 -205 29 -306 49 -351 67 l-39 15 0 64 c0
54 3 64 18 63 31 0 162 -26 169 -32 3 -4 -2 -18 -11 -32 -26 -40 -4 -29 49 25
27 28 53 50 57 50 5 0 31 -36 59 -80z m-465 -34 c86 -25 92 -33 79 -102 -7
-42 -16 -42 -120 -6 l-81 28 8 40 c11 52 16 64 26 64 4 0 44 -11 88 -24z
m1044 -32 c80 -9 149 -20 153 -24 8 -7 -15 -116 -27 -127 -4 -5 -300 31 -354
43 -26 5 -26 3 -1 98 10 37 11 38 47 33 20 -3 102 -13 182 -23z m-798 -48
c119 -28 287 -60 406 -77 l84 -12 -7 -51 c-4 -28 -10 -54 -14 -58 -7 -7 -369
44 -447 63 -64 16 -126 43 -141 60 -13 16 -6 99 7 99 5 0 55 -11 112 -24z
m-267 -56 c88 -29 97 -36 93 -74 -3 -30 -4 -31 -48 -28 -64 4 -122 39 -136 82
-13 37 -9 54 10 47 6 -2 43 -15 81 -27z m1024 -55 c68 -9 130 -20 138 -26 16
-14 17 -50 1 -85 -12 -26 -14 -26 -78 -20 -113 10 -290 35 -300 41 -15 9 -12
43 7 82 16 35 17 35 62 29 25 -4 102 -13 170 -21z m-805 -26 c32 -11 131 -31
220 -44 181 -28 286 -46 286 -50 0 -1 -5 -17 -11 -35 l-12 -33 -81 6 c-140 10
-353 57 -460 102 -32 14 -36 19 -36 51 0 30 3 35 18 29 9 -3 43 -15 76 -26z
m751 -115 c72 -9 136 -18 143 -20 23 -6 12 -34 -20 -54 -51 -31 -156 -26 -335
15 -19 4 -20 9 -13 35 14 47 19 52 59 46 20 -3 95 -13 166 -22z"/>
<path d="M12010 3446 c0 -72 -37 -160 -95 -225 -30 -34 -55 -64 -55 -66 0 -3
7 -5 15 -5 24 0 85 60 110 109 49 98 71 221 40 221 -10 0 -15 -10 -15 -34z"/>
<path d="M11707 3273 c-12 -11 -8 -41 6 -46 25 -8 47 5 47 29 0 18 -5 24 -23
24 -13 0 -27 -3 -30 -7z"/>
<path d="M12017 3244 c-13 -13 -7 -55 9 -61 24 -9 51 23 38 45 -12 19 -36 27
-47 16z"/>
<path d="M5985 3078 c-133 -25 -295 -144 -389 -287 -176 -266 -272 -674 -237
-1006 42 -390 208 -677 444 -764 42 -15 81 -21 140 -21 163 0 280 52 408 179
218 218 339 561 339 966 0 237 -34 402 -121 584 -43 91 -60 115 -137 191 -144
144 -277 191 -447 158z m188 -53 c85 -22 134 -51 205 -119 137 -131 225 -330
254 -576 14 -119 5 -378 -17 -490 -69 -355 -250 -647 -463 -748 -65 -31 -86
-36 -170 -40 -80 -3 -107 -1 -155 16 -73 26 -176 99 -216 154 -44 60 -41 69
16 52 25 -8 83 -14 127 -14 97 0 163 26 213 83 21 24 41 37 58 37 13 0 48 9
76 19 148 57 293 246 350 456 19 71 22 111 25 365 5 324 -1 361 -78 517 -44
89 -139 213 -163 213 -8 0 -15 -2 -15 -5 0 -2 25 -32 56 -67 63 -70 117 -162
151 -255 25 -70 40 -185 28 -229 l-7 -29 -15 29 c-8 16 -33 76 -54 133 -22 57
-52 130 -68 161 -32 64 -126 159 -187 190 -80 41 -210 64 -243 43 -24 -15 -1
-31 44 -31 56 0 141 -18 179 -37 70 -36 188 -170 206 -234 8 -27 7 -30 -8 -23
-124 54 -237 58 -327 12 -132 -69 -248 -249 -306 -475 -32 -126 -32 -315 0
-430 25 -91 73 -178 129 -236 40 -41 106 -77 140 -77 33 0 27 -25 -14 -58 -50
-41 -108 -55 -206 -50 -145 8 -196 52 -249 217 -46 143 -62 257 -63 431 0 179
19 307 70 476 134 446 413 693 697 619z m56 -437 c73 -19 120 -74 172 -203
l44 -110 -1 -150 c-2 -175 -26 -289 -91 -421 -67 -139 -213 -268 -325 -289
-60 -11 -130 18 -202 86 -109 102 -152 235 -143 444 11 237 99 456 232 573 96
84 182 103 314 70z"/>
<path d="M6188 2339 c-28 -16 -23 -67 7 -81 48 -22 100 43 63 80 -15 15 -47
15 -70 1z m42 -39 c0 -5 -4 -10 -10 -10 -5 0 -10 5 -10 10 0 6 5 10 10 10 6 0
10 -4 10 -10z"/>
<path d="M6130 2277 c0 -2 9 -29 19 -60 29 -83 34 -135 21 -207 -14 -76 -31
-113 -74 -158 -41 -44 -76 -62 -123 -62 -53 0 -83 -10 -83 -26 0 -22 112 -18
158 5 52 27 107 87 134 146 20 43 23 66 23 165 0 97 -3 121 -21 155 -12 22
-28 41 -37 43 -10 2 -17 2 -17 -1z"/>
<path d="M5776 2237 c-16 -11 -17 -17 -7 -36 9 -17 18 -20 34 -15 29 9 38 24
26 46 -12 21 -28 23 -53 5z"/>
<path d="M5798 1788 c12 -12 25 -19 28 -15 4 4 -1 14 -12 22 -29 22 -41 18
-16 -7z"/>
<path d="M5950 1685 c-10 -12 -10 -18 0 -30 20 -25 55 -15 55 15 0 30 -35 40
-55 15z"/>
<path d="M6797 344 c-4 -4 -7 -18 -7 -31 0 -18 5 -23 26 -23 22 0 25 4 22 27
-3 27 -26 41 -41 27z"/>
<path d="M6870 321 c0 -27 4 -31 26 -31 22 0 25 4 22 28 -2 19 -9 28 -25 30
-20 3 -23 -1 -23 -27z"/>
<path d="M5775 326 c-89 -38 -107 -209 -31 -285 73 -73 218 -43 241 52 7 25 5
27 -27 27 -25 0 -36 -6 -43 -22 -13 -30 -57 -45 -92 -32 -62 21 -81 138 -31
191 35 38 128 25 128 -18 0 -5 16 -9 35 -9 19 0 35 5 35 10 0 25 -32 71 -60
85 -35 18 -114 19 -155 1z"/>
<path d="M7864 326 c-49 -22 -75 -74 -76 -151 0 -79 23 -130 72 -157 83 -44
196 -5 215 75 7 25 5 27 -27 27 -25 0 -36 -6 -43 -22 -13 -30 -57 -45 -92 -32
-62 21 -81 138 -31 191 35 38 128 25 128 -18 0 -5 16 -9 35 -9 19 0 35 5 35
10 0 25 -32 71 -60 85 -36 18 -114 19 -156 1z"/>
<path d="M6040 305 c0 -21 5 -25 29 -25 23 0 30 5 33 25 5 23 2 25 -28 25 -30
0 -34 -3 -34 -25z"/>
<path d="M8150 188 c64 -191 57 -178 94 -178 l31 0 50 147 c28 81 51 153 53
160 2 9 -8 13 -32 13 -39 0 -33 12 -89 -184 -7 -27 -16 -45 -19 -40 -3 5 -18
57 -34 116 l-29 108 -37 0 -37 0 49 -142z"/>
<path d="M7429 291 c-37 -38 -40 -81 -5 -81 17 0 29 9 38 28 24 51 94 35 86
-20 -2 -13 -26 -40 -62 -67 -59 -45 -96 -92 -96 -123 0 -16 12 -18 110 -18
l110 0 0 25 c0 24 -2 25 -72 25 l-73 1 30 25 c122 100 115 92 115 140 0 65
-31 94 -100 94 -44 0 -56 -5 -81 -29z"/>
<path d="M6170 280 c0 -20 -5 -30 -15 -30 -9 0 -15 -9 -15 -25 0 -16 6 -25 15
-25 12 0 15 -16 15 -83 0 -95 7 -107 62 -107 32 0 38 3 38 21 0 12 -8 23 -20
26 -18 5 -20 14 -20 73 0 59 2 68 20 73 12 3 20 14 20 26 0 14 -6 21 -20 21
-16 0 -20 7 -20 30 0 27 -3 30 -30 30 -27 0 -30 -3 -30 -30z"/>
<path d="M6408 248 c-16 -5 -28 -14 -28 -19 0 -5 -4 -9 -10 -9 -5 0 -9 6 -7
13 1 7 -10 13 -25 15 l-28 3 0 -120 0 -121 30 0 30 0 0 74 c0 79 13 106 51
106 15 0 19 7 19 35 0 19 -1 35 -2 34 -2 0 -15 -5 -30 -11z"/>
<path d="M6533 246 c-41 -18 -63 -62 -63 -123 0 -98 81 -148 176 -108 76 32
86 178 14 222 -32 20 -92 24 -127 9z m97 -65 c14 -27 13 -97 -2 -108 -30 -23
-49 -23 -74 2 -28 28 -31 70 -8 103 20 28 69 30 84 3z"/>
<path d="M6802 245 c-21 -9 -38 -27 -47 -49 -52 -123 47 -237 155 -181 26 13
50 42 50 59 0 10 -59 6 -65 -4 -9 -14 -58 -13 -73 2 -29 29 -13 38 68 38 79 0
80 0 80 25 0 48 -27 95 -64 110 -43 18 -62 18 -104 0z m86 -57 c25 -25 13 -38
-33 -38 -30 0 -45 4 -45 13 0 19 21 37 45 37 12 0 26 -5 33 -12z"/>
<path d="M6040 130 l0 -120 30 0 30 0 0 120 0 120 -30 0 -30 0 0 -120z"/>
<path d="M7010 130 l0 -120 30 0 30 0 0 73 c0 86 17 120 58 115 27 -3 27 -4
30 -96 l3 -93 32 3 32 3 0 96 c0 81 -3 100 -19 118 -22 24 -93 29 -115 9 -11
-10 -14 -10 -18 0 -3 6 -18 12 -34 12 l-29 0 0 -120z"/>
</g>
</svg>
