<?xml version="1.0" standalone="no"?>
<!DOCTYPE svg PUBLIC "-//W3C//DTD SVG 20010904//EN"
 "http://www.w3.org/TR/2001/REC-SVG-20010904/DTD/svg10.dtd">
<svg version="1.0" xmlns="http://www.w3.org/2000/svg"
 width="1370.000000pt" height="477.000000pt" viewBox="0 0 1370.000000 477.000000"
 preserveAspectRatio="xMidYMid meet">

<g transform="translate(0.000000,477.000000) scale(0.100000,-0.100000)"
fill="#000000" stroke="none">
<path d="M9578 3700 c-228 -36 -445 -154 -612 -331 -266 -281 -449 -696 -511
-1153 -22 -159 -16 -436 10 -531 75 -275 227 -459 453 -551 94 -38 192 -54
325 -54 534 1 928 364 927 857 0 164 -39 282 -124 379 -87 99 -226 168 -389
194 -101 17 -288 8 -387 -18 -41 -11 -77 -18 -78 -17 -2 2 -1 17 3 34 6 27 11
31 53 36 315 41 587 140 756 275 85 67 143 140 188 235 31 67 33 76 33 185 0
108 -2 119 -31 180 -59 123 -171 220 -303 261 -76 23 -227 32 -313 19z m47
-462 c25 -19 27 -26 22 -69 -9 -70 -41 -126 -117 -199 -65 -64 -242 -179 -248
-162 -4 14 67 211 103 282 75 150 167 206 240 148z m-211 -1082 c147 -72 179
-292 76 -513 -99 -213 -287 -242 -362 -55 -21 53 -23 72 -23 257 1 168 12 306
28 321 2 2 28 8 58 13 83 15 163 6 223 -23z"/>
<path d="M3355 3679 c-122 -19 -225 -68 -290 -141 -65 -73 -70 -94 -30 -156
83 -132 117 -345 77 -479 -12 -39 -38 -92 -58 -119 -34 -45 -120 -122 -128
-113 -2 2 -85 211 -184 464 l-180 460 -444 3 c-243 1 -449 0 -456 -3 -8 -3 79
-186 268 -566 155 -309 280 -562 278 -563 -2 -2 -39 -15 -83 -30 -216 -75
-398 -187 -551 -340 -166 -167 -242 -315 -251 -491 -12 -218 90 -401 272 -491
218 -107 488 -40 638 158 54 73 56 89 15 167 -56 104 -72 164 -73 266 0 107
25 186 83 256 53 64 102 105 111 91 4 -6 90 -214 191 -462 l184 -450 478 0
c263 0 478 2 478 4 0 3 -132 256 -294 563 -162 307 -298 565 -301 574 -4 12
14 23 82 48 407 154 686 430 749 741 28 138 6 281 -60 394 -30 52 -120 138
-172 164 -95 48 -235 69 -349 51z"/>
<path d="M4680 2945 c-378 -92 -650 -528 -650 -1041 0 -438 194 -757 490 -805
215 -34 452 87 623 320 l45 60 7 -46 c33 -220 208 -355 440 -340 127 8 260 66
350 154 35 34 75 90 75 105 0 4 -21 22 -46 40 -85 61 -123 186 -110 363 7 85
53 416 127 901 18 117 29 219 26 228 -6 14 -42 16 -344 16 -186 0 -344 -4
-352 -9 -8 -5 -19 -54 -30 -129 l-16 -121 -32 58 c-68 124 -179 215 -298 246
-72 18 -229 19 -305 0z m478 -474 c42 -30 77 -92 98 -171 22 -87 15 -282 -15
-395 -42 -156 -115 -271 -203 -316 -40 -20 -120 -25 -160 -10 -39 15 -87 71
-110 130 -20 50 -23 74 -23 211 0 130 4 169 23 240 44 162 121 282 207 322 54
25 139 20 183 -11z"/>
<path d="M10995 2944 c-106 -26 -218 -89 -306 -172 -100 -94 -155 -170 -220
-306 -199 -417 -151 -979 107 -1233 205 -202 514 -183 757 46 45 44 103 107
127 141 43 58 45 60 48 33 33 -310 351 -454 660 -299 104 52 202 149 202 199
0 7 -20 27 -45 45 -99 69 -125 214 -90 489 9 65 45 313 81 552 36 239 63 440
60 448 -4 10 -71 13 -341 13 -198 0 -344 -4 -354 -10 -15 -7 -21 -32 -31 -125
-7 -63 -16 -115 -19 -115 -3 0 -19 26 -36 57 -45 87 -129 166 -221 210 -75 36
-83 37 -199 40 -81 2 -139 -2 -180 -13z m466 -466 c44 -24 79 -72 105 -144 27
-74 25 -309 -5 -419 -43 -161 -119 -283 -202 -326 -82 -41 -190 -18 -239 51
-119 167 -62 621 98 786 71 73 169 94 243 52z"/>
<path d="M7235 2934 c-169 -17 -459 -63 -469 -75 -2 -2 -13 -71 -25 -154 -30
-203 -75 -430 -111 -557 -73 -260 -214 -497 -374 -627 -87 -70 -91 -77 -71
-153 56 -219 243 -337 474 -298 216 36 381 217 465 512 55 193 105 477 126
718 6 69 13 153 16 188 l6 62 140 0 140 0 -6 -37 c-9 -59 -166 -1341 -166
-1358 0 -13 44 -15 343 -15 l342 0 104 838 c57 460 104 848 105 861 1 23 -4
25 -99 43 -232 42 -328 50 -615 53 -157 2 -303 1 -325 -1z"/>
</g>
</svg>
