<?xml version="1.0" standalone="no"?>
<!DOCTYPE svg PUBLIC "-//W3C//DTD SVG 20010904//EN"
 "http://www.w3.org/TR/2001/REC-SVG-20010904/DTD/svg10.dtd">
<svg version="1.0" xmlns="http://www.w3.org/2000/svg"
 width="344.000000pt" height="147.000000pt" viewBox="0 0 344.000000 147.000000"
 preserveAspectRatio="xMidYMid meet">

<g transform="translate(0.000000,147.000000) scale(0.100000,-0.100000)"
fill="#000000" stroke="none">
<path d="M1832 1246 c-103 -34 -162 -122 -170 -255 -6 -111 15 -179 76 -240
51 -51 101 -71 176 -71 66 0 106 -20 159 -80 l46 -53 46 37 45 38 -31 39 c-36
46 -76 79 -95 79 -20 0 -18 5 15 38 79 79 80 281 2 389 -53 74 -175 109 -269
79z m124 -111 c47 -20 73 -78 74 -165 0 -91 -29 -150 -86 -169 -37 -13 -44
-12 -79 5 -55 27 -75 71 -75 164 0 91 20 137 70 162 43 22 51 22 96 3z"/>
<path d="M2250 970 l0 -281 63 3 62 3 0 275 0 275 -62 3 -63 3 0 -281z"/>
<path d="M2462 1233 c2 -11 32 -137 68 -281 l65 -262 80 2 80 3 35 162 c19 90
38 163 41 163 3 0 11 -24 17 -52 7 -29 24 -104 39 -165 l26 -113 78 0 c85 0
80 -3 94 70 6 29 104 414 121 473 5 15 -2 17 -59 17 l-65 0 -36 -147 c-19 -82
-38 -172 -42 -200 -8 -64 -20 -68 -29 -10 -4 23 -25 113 -47 200 l-41 157 -53
0 -53 0 -15 -52 c-24 -82 -64 -249 -71 -293 -10 -63 -16 -74 -25 -50 -5 11 -9
36 -10 55 -1 19 -18 103 -38 185 l-38 150 -63 3 c-56 3 -62 1 -59 -15z"/>
<path d="M3290 970 l0 -280 60 0 60 0 0 280 0 280 -60 0 -60 0 0 -280z"/>
</g>
</svg>
