<?xml version="1.0" standalone="no"?>
<!DOCTYPE svg PUBLIC "-//W3C//DTD SVG 20010904//EN"
 "http://www.w3.org/TR/2001/REC-SVG-20010904/DTD/svg10.dtd">
<svg version="1.0" xmlns="http://www.w3.org/2000/svg"
 width="715.000000pt" height="150.000000pt" viewBox="0 0 715.000000 150.000000"
 preserveAspectRatio="xMidYMid meet">

<g transform="translate(0.000000,150.000000) scale(0.100000,-0.100000)"
fill="#000000" stroke="none">
<path d="M1227 1485 c-305 -58 -532 -284 -598 -595 l-18 -85 0 238 -1 237
-300 0 c-165 0 -300 -3 -300 -7 -1 -5 75 -250 167 -545 l168 -538 132 0 133 0
1 253 0 252 18 -85 c43 -200 142 -355 298 -466 132 -95 266 -137 438 -137 196
-1 362 65 506 200 96 91 157 186 200 313 30 87 33 105 33 225 1 147 -13 214
-69 330 -143 298 -485 471 -808 410z m248 -479 c66 -30 138 -110 156 -173 29
-106 4 -206 -72 -282 -52 -52 -101 -74 -176 -79 -90 -6 -155 18 -219 83 -103
102 -111 242 -23 366 71 100 220 139 334 85z"/>
<path d="M3000 1091 c-40 -13 -85 -38 -99 -55 -20 -24 -31 -19 -31 14 l0 30
-95 0 -95 0 0 -350 0 -350 94 0 95 0 3 233 c3 253 6 266 63 303 32 21 107 20
144 -2 58 -34 61 -50 61 -298 l0 -226 100 0 100 0 0 228 c0 210 2 229 20 260
36 59 118 78 177 42 55 -33 58 -45 63 -295 l5 -230 95 0 95 0 0 250 c0 274 -4
301 -57 361 -52 58 -110 87 -192 92 -85 5 -139 -14 -203 -72 -22 -20 -44 -36
-48 -36 -4 0 -16 11 -27 25 -46 58 -194 100 -268 76z"/>
<path d="M4153 1082 c-109 -39 -189 -119 -219 -221 -23 -78 -16 -220 15 -284
66 -136 234 -222 386 -197 127 21 224 90 277 198 30 60 33 74 33 161 0 83 -4
104 -26 152 -37 79 -90 133 -167 171 -58 29 -78 33 -157 36 -67 2 -103 -2
-142 -16z m202 -171 c80 -37 123 -113 110 -194 -18 -103 -51 -144 -134 -167
-130 -35 -230 50 -231 193 0 85 34 138 110 171 47 20 97 19 145 -3z"/>
<path d="M5076 1081 c-27 -11 -59 -30 -72 -42 l-24 -22 0 36 0 37 -100 0 -100
0 0 -350 0 -351 98 3 97 3 5 230 c4 207 7 233 25 259 47 70 170 74 230 6 18
-20 20 -40 25 -259 l5 -236 98 -3 97 -3 0 235 c0 129 -5 257 -11 285 -14 65
-56 123 -115 157 -64 37 -184 44 -258 15z"/>
<path d="M5863 1086 c-172 -56 -274 -205 -260 -383 23 -300 377 -435 647 -245
30 20 55 42 56 47 2 6 -23 29 -56 53 l-60 43 -33 -25 c-79 -60 -192 -75 -274
-35 -38 18 -93 78 -93 101 0 5 119 8 265 8 l265 0 6 26 c11 44 -2 157 -24 207
-29 65 -113 151 -180 184 -66 32 -190 41 -259 19z m164 -167 c30 -11 88 -62
104 -91 9 -17 -1 -18 -161 -18 -186 0 -190 2 -148 55 42 54 138 79 205 54z"/>
<path d="M6383 1073 c2 -10 63 -165 136 -346 72 -180 131 -332 131 -338 0 -6
-25 -67 -55 -135 -30 -69 -55 -127 -55 -129 0 -3 47 -5 103 -5 98 0 104 1 114
22 24 54 383 935 383 942 0 4 -45 5 -101 4 l-101 -3 -86 -214 -87 -213 -16 38
c-10 22 -49 119 -89 217 l-72 177 -105 0 c-96 0 -105 -2 -100 -17z"/>
</g>
</svg>
