<?xml version="1.0" standalone="no"?>
<!DOCTYPE svg PUBLIC "-//W3C//DTD SVG 20010904//EN"
 "http://www.w3.org/TR/2001/REC-SVG-20010904/DTD/svg10.dtd">
<svg version="1.0" xmlns="http://www.w3.org/2000/svg"
 width="130.000000pt" height="107.000000pt" viewBox="0 0 130.000000 107.000000"
 preserveAspectRatio="xMidYMid meet">

<g transform="translate(0.000000,107.000000) scale(0.100000,-0.100000)"
fill="#000000" stroke="none">
<path d="M863 981 c4 -16 -3 -26 -28 -41 -38 -24 -50 -47 -34 -66 19 -23 42
-17 35 9 -5 20 1 26 30 40 29 14 35 22 32 45 -2 17 -10 28 -22 30 -15 3 -18 0
-13 -17z"/>
<path d="M713 971 c4 -16 -3 -26 -28 -41 -38 -24 -50 -47 -34 -66 19 -23 42
-17 35 9 -5 20 1 26 30 40 29 14 35 22 32 45 -2 17 -10 28 -22 30 -15 3 -18 0
-13 -17z"/>
<path d="M363 961 c4 -16 -3 -26 -28 -41 -38 -24 -50 -47 -34 -66 19 -23 42
-17 35 9 -5 20 1 26 30 40 29 14 35 22 32 45 -2 17 -10 28 -22 30 -15 3 -18 0
-13 -17z"/>
<path d="M553 961 c4 -16 -3 -26 -28 -41 -38 -24 -50 -47 -34 -66 19 -23 42
-17 35 9 -5 20 1 26 30 40 29 14 35 22 32 45 -2 17 -10 28 -22 30 -15 3 -18 0
-13 -17z"/>
<path d="M403 821 c4 -16 -3 -26 -28 -41 -38 -24 -50 -47 -34 -66 19 -23 42
-17 35 9 -5 20 1 26 30 40 29 14 35 22 32 45 -2 17 -10 28 -22 30 -15 3 -18 0
-13 -17z"/>
<path d="M563 821 c4 -16 -3 -26 -28 -41 -38 -24 -50 -47 -34 -66 19 -23 42
-17 35 9 -5 20 1 26 30 40 29 14 35 22 32 45 -2 17 -10 28 -22 30 -15 3 -18 0
-13 -17z"/>
<path d="M713 821 c4 -16 -3 -26 -28 -41 -38 -24 -50 -47 -34 -66 19 -23 42
-17 35 9 -5 20 1 26 30 40 29 14 35 22 32 45 -2 17 -10 28 -22 30 -15 3 -18 0
-13 -17z"/>
<path d="M443 671 c4 -16 -3 -26 -28 -41 -38 -24 -50 -47 -34 -66 19 -23 42
-17 35 9 -5 20 1 26 30 40 29 14 35 22 32 45 -2 17 -10 28 -22 30 -15 3 -18 0
-13 -17z"/>
<path d="M573 671 c4 -16 -3 -26 -28 -41 -38 -24 -50 -47 -34 -66 19 -23 42
-17 35 9 -5 20 1 26 30 40 29 14 35 22 32 45 -2 17 -10 28 -22 30 -15 3 -18 0
-13 -17z"/>
<path d="M107 470 c-66 -21 -92 -39 -79 -52 6 -6 21 -4 38 5 90 46 244 51 424
12 401 -86 408 -87 545 -83 104 3 141 9 185 26 76 30 87 39 74 52 -9 9 -20 7
-44 -5 -112 -58 -277 -63 -500 -15 -360 78 -373 80 -480 79 -74 0 -122 -6
-163 -19z"/>
<path d="M127 310 c-66 -21 -92 -39 -79 -52 6 -6 21 -4 38 5 90 46 244 51 424
12 401 -86 408 -87 545 -83 105 4 141 9 188 27 42 17 57 27 57 42 0 19 -1 19
-31 3 -111 -57 -277 -62 -499 -14 -360 78 -373 80 -480 79 -74 0 -122 -6 -163
-19z"/>
<path d="M127 160 c-66 -21 -92 -39 -79 -52 6 -6 21 -4 38 5 90 46 244 51 424
12 401 -86 408 -87 545 -83 105 4 141 9 188 27 42 17 57 27 57 42 0 19 -1 19
-31 3 -111 -57 -277 -62 -499 -14 -360 78 -373 80 -480 79 -74 0 -122 -6 -163
-19z"/>
</g>
</svg>
