<?xml version="1.0" standalone="no"?>
<!DOCTYPE svg PUBLIC "-//W3C//DTD SVG 20010904//EN"
 "http://www.w3.org/TR/2001/REC-SVG-20010904/DTD/svg10.dtd">
<svg version="1.0" xmlns="http://www.w3.org/2000/svg"
 width="2640.000000pt" height="2184.000000pt" viewBox="0 0 2640.000000 2184.000000"
 preserveAspectRatio="xMidYMid meet">

<g transform="translate(0.000000,2184.000000) scale(0.100000,-0.100000)"
fill="#000000" stroke="none">
<path d="M15910 21233 c-363 -15 -594 -42 -820 -94 -208 -48 -314 -82 -355
-113 -16 -13 -54 -35 -83 -50 -46 -23 -53 -30 -48 -50 6 -24 -24 -66 -47 -66
-7 0 -25 -11 -42 -25 -24 -19 -27 -26 -16 -34 11 -7 10 -11 -5 -19 -11 -5 -24
-8 -30 -5 -6 2 -17 -3 -24 -12 -11 -14 -14 -14 -24 0 -10 14 -13 14 -31 0 -16
-12 -17 -14 -2 -9 11 4 17 1 17 -10 0 -9 -4 -16 -10 -16 -5 0 -24 -14 -41 -31
-22 -21 -34 -27 -39 -19 -5 8 -9 6 -12 -7 -3 -11 -22 -27 -42 -37 -21 -10 -40
-24 -43 -32 -4 -10 -9 -11 -17 -5 -8 7 -18 1 -31 -20 -11 -16 -26 -29 -32 -29
-7 0 -13 -5 -13 -11 0 -5 -10 -9 -22 -7 -17 2 -24 -3 -26 -20 -2 -12 -16 -30
-30 -40 -15 -9 -32 -21 -39 -27 -7 -5 -19 -16 -28 -23 -8 -7 -19 -11 -24 -8
-5 3 -30 -4 -57 -15 -33 -15 -49 -18 -52 -10 -2 6 -10 11 -17 11 -20 0 -30
-21 -14 -31 12 -8 12 -11 -1 -19 -10 -7 -11 -10 -2 -11 27 -3 31 -4 38 -11 4
-5 -2 -8 -12 -8 -11 0 -29 -6 -39 -14 -14 -10 -25 -11 -37 -5 -14 8 -18 6 -18
-9 0 -13 -6 -18 -22 -16 -13 1 -29 3 -35 3 -8 1 -5 9 8 22 17 17 23 19 30 8 7
-12 9 -11 10 1 1 8 1 19 0 23 -1 5 9 5 21 2 13 -4 20 -4 16 0 -11 12 -57 14
-64 4 -11 -19 -25 -9 -14 11 13 24 2 26 -26 5 -10 -8 -29 -15 -41 -15 -25 0
-33 -34 -10 -43 9 -4 9 -8 0 -14 -6 -4 -13 -17 -15 -28 -3 -19 -58 -54 -85
-55 -6 0 -24 -11 -40 -24 -17 -14 -41 -23 -61 -23 -21 0 -40 -8 -53 -21 -11
-12 -24 -22 -29 -22 -6 0 -10 -8 -10 -18 0 -20 -39 -62 -58 -62 -10 0 -10 -5
-2 -21 7 -11 10 -21 8 -22 -2 -1 -19 -10 -38 -21 -19 -10 -45 -22 -58 -27 -20
-8 -22 -7 -12 11 9 17 8 20 -9 20 -23 0 -51 -25 -51 -45 0 -8 -10 -17 -22 -20
-13 -4 -51 -18 -85 -31 -72 -28 -73 -28 -73 -9 0 22 -9 19 -32 -10 -21 -27
-116 -75 -197 -99 -87 -27 -347 -154 -541 -264 -191 -110 -514 -335 -620 -433
-19 -18 -55 -48 -79 -66 -171 -131 -552 -517 -723 -733 -107 -134 -281 -396
-273 -410 3 -5 0 -10 -8 -10 -28 0 -309 -517 -367 -674 -10 -28 -44 -121 -75
-206 -90 -245 -123 -350 -180 -580 -99 -400 -154 -695 -198 -1075 -34 -294
-17 -585 54 -920 45 -211 227 -554 505 -950 69 -98 90 -121 431 -472 246 -254
289 -301 261 -291 -13 5 -28 -10 -64 -62 -28 -42 -44 -75 -41 -84 4 -9 4 -16
2 -16 -9 0 -259 92 -300 110 -22 10 -116 45 -210 79 -93 34 -182 68 -197 76
-14 8 -33 15 -41 15 -9 0 -98 25 -199 55 -205 61 -383 102 -503 116 -44 4
-181 11 -305 14 -189 4 -249 2 -375 -15 -205 -28 -295 -45 -470 -90 -170 -44
-210 -58 -565 -197 -231 -91 -443 -189 -570 -262 -41 -24 -106 -62 -145 -84
-38 -22 -86 -50 -105 -63 -19 -12 -57 -35 -85 -51 -108 -62 -175 -109 -181
-126 -4 -13 -12 -17 -27 -13 -15 4 -61 -22 -166 -91 -80 -54 -148 -101 -149
-105 -2 -5 -18 -15 -35 -23 -105 -48 -702 -507 -758 -582 -13 -18 -33 -35 -44
-39 -18 -6 -85 -57 -140 -106 -11 -10 -63 -55 -115 -100 -105 -90 -412 -394
-565 -558 -240 -257 -512 -605 -719 -920 -200 -303 -249 -387 -381 -655 -81
-164 -114 -245 -195 -480 -21 -60 -49 -141 -63 -180 -45 -125 -96 -316 -127
-470 -12 -60 -26 -118 -31 -127 -5 -10 -9 -28 -9 -41 0 -12 -13 -89 -30 -169
-75 -370 -112 -985 -76 -1259 24 -173 54 -276 125 -416 64 -129 72 -148 77
-199 10 -110 13 -124 27 -138 11 -11 13 -25 7 -58 -5 -24 -5 -45 -2 -48 4 -3
8 -21 8 -40 1 -19 6 -36 13 -38 6 -2 11 -8 11 -13 0 -4 -6 -6 -14 -3 -10 4
-12 -2 -8 -23 5 -28 5 -28 -17 -9 -11 11 -21 17 -21 14 0 -14 30 -76 48 -99
12 -14 24 -39 27 -55 6 -28 6 -28 -10 -9 -12 16 -18 17 -24 7 -6 -10 -10 -4
-14 18 -4 20 -11 29 -18 24 -15 -9 -7 -98 21 -254 18 -102 32 -143 56 -170 12
-14 25 -43 29 -65 5 -29 4 -36 -4 -25 -7 10 -9 -8 -6 -60 2 -55 9 -85 25 -113
19 -31 20 -37 6 -37 -9 0 -16 5 -16 11 0 5 -4 8 -9 5 -4 -3 -6 -17 -4 -31 4
-17 0 -27 -11 -31 -15 -6 -14 -40 2 -69 6 -10 12 -69 15 -156 3 -78 62 -192
183 -352 149 -198 242 -282 439 -395 427 -244 1327 -488 2585 -701 903 -153
1761 -223 2560 -207 613 12 1023 46 1735 147 820 115 971 154 2159 545 715
236 820 276 1476 556 472 202 775 343 914 427 237 144 517 509 555 726 11 63
26 382 36 765 15 608 28 928 45 1065 23 183 7 342 -66 660 -83 360 -281 912
-434 1210 -161 312 -310 571 -488 848 -63 98 -111 181 -108 185 4 3 11 0 16
-8 6 -10 10 -11 10 -3 0 17 72 35 139 34 83 0 276 -44 472 -106 63 -20 161
-52 219 -70 58 -18 141 -43 185 -55 44 -12 89 -26 100 -30 11 -5 83 -25 160
-44 261 -65 438 -80 600 -51 115 21 172 19 367 -15 293 -50 554 -88 758 -110
266 -28 313 -35 318 -49 2 -6 7 -9 11 -6 15 9 82 -16 75 -28 -4 -7 -4 -9 0 -5
4 3 29 -4 54 -16 26 -13 75 -36 110 -51 34 -16 62 -32 62 -37 0 -4 8 -8 18 -8
9 0 31 -7 47 -16 26 -14 200 -77 200 -72 0 0 24 -5 53 -11 29 -7 62 -11 72 -8
11 3 18 2 16 -2 -4 -6 99 -14 199 -15 77 -1 217 18 300 40 33 9 66 16 73 17 6
0 12 4 12 9 0 4 8 8 18 8 9 0 34 9 55 20 20 11 44 20 52 20 8 0 15 5 15 11 0
5 5 7 12 3 7 -4 8 -3 4 4 -7 12 27 35 38 25 3 -3 6 -1 6 5 0 7 7 12 15 12 8 0
25 10 38 23 14 12 54 45 91 72 36 28 66 53 66 58 0 4 5 7 12 7 6 0 18 7 27 15
48 46 94 85 149 125 34 24 62 48 62 52 0 5 7 8 16 8 30 0 254 184 254 209 0 6
7 11 15 11 8 0 15 4 15 10 0 5 16 28 36 50 20 22 33 40 28 40 -4 0 1 10 12 22
56 66 79 152 79 298 0 135 -17 216 -62 296 -23 41 -53 65 -53 42 0 -9 -3 -9
-12 0 -12 12 -17 5 75 126 32 42 64 79 72 83 8 3 15 11 15 18 0 7 19 35 43 61
87 98 220 281 248 339 16 33 33 67 38 75 30 51 94 323 120 510 29 217 40 357
51 651 17 454 -6 831 -85 1429 -8 63 -21 167 -30 230 -25 196 -44 321 -51 331
-8 14 -69 251 -98 384 -14 61 -43 178 -66 260 -22 83 -49 184 -60 225 -11 41
-32 118 -46 170 -32 122 -119 386 -184 565 -52 142 -61 164 -132 335 -22 52
-54 133 -73 180 -18 47 -63 153 -100 235 -36 83 -75 173 -84 200 -10 28 -32
80 -50 117 -17 37 -42 95 -57 130 -52 123 -273 552 -363 703 -27 44 -63 107
-81 140 -18 33 -58 101 -89 150 -31 50 -71 119 -88 155 -18 36 -52 91 -75 123
-60 82 -297 403 -383 517 -39 52 -104 142 -145 200 -97 136 -174 237 -345 456
-77 98 -147 188 -155 200 -92 135 -422 536 -599 729 -208 226 -492 484 -687
624 -223 160 -519 255 -854 276 -52 3 -106 6 -120 8 -14 2 -54 2 -90 0z
m-2250 -948 c0 -8 -4 -15 -10 -15 -5 0 -7 7 -4 15 4 8 8 15 10 15 2 0 4 -7 4
-15z m40 -45 c0 -5 -7 -7 -15 -4 -8 4 -15 8 -15 10 0 2 7 4 15 4 8 0 15 -4 15
-10z m-32 -32 c-5 -15 -48 -24 -48 -10 0 6 10 8 22 4 14 -3 19 -2 14 6 -4 7
-2 12 4 12 7 0 10 -6 8 -12z m98 -33 c-24 -18 -36 -19 -36 -2 0 7 12 14 28 15
26 1 26 1 8 -13z m-46 -10 c0 -8 -6 -12 -14 -9 -8 3 -17 1 -21 -5 -3 -6 -15
-11 -27 -11 -17 0 -18 3 -8 14 10 13 21 17 63 25 4 0 7 -6 7 -14z m-120 -21
c0 -8 -4 -12 -10 -9 -5 3 -10 10 -10 16 0 5 5 9 10 9 6 0 10 -7 10 -16z m-32
-6 c-6 -18 -25 -20 -31 -3 -5 10 0 15 14 15 12 0 19 -5 17 -12z m-72 -8 c8 0
14 -9 14 -20 0 -13 -7 -20 -20 -20 -12 0 -32 -11 -45 -24 -22 -23 -26 -23 -35
-8 -9 16 -9 16 -10 0 0 -10 -8 -18 -17 -18 -10 0 -29 -9 -43 -20 -14 -11 -29
-20 -35 -19 -5 0 -3 5 6 12 9 7 20 31 24 55 4 23 11 40 16 36 5 -3 9 -1 9 4 0
14 62 24 70 11 5 -7 10 -5 14 6 4 10 12 15 22 11 9 -3 22 -6 30 -6z m1399
-520 c3 -6 -2 -13 -12 -16 -31 -10 -67 -28 -95 -46 -59 -40 -166 -233 -149
-267 5 -9 11 -54 14 -101 4 -47 16 -118 27 -158 12 -40 19 -78 17 -85 -10 -25
-55 102 -71 200 -17 95 -17 105 -1 165 10 35 22 82 27 106 5 23 13 42 16 42 4
0 13 13 20 28 19 43 72 92 127 117 57 27 71 29 80 15z m355 -10 c8 -5 11 -12
7 -16 -4 -4 -15 0 -24 9 -18 18 -8 23 17 7z m-500 -765 c0 -5 -5 -3 -10 5 -5
8 -10 20 -10 25 0 6 5 3 10 -5 5 -8 10 -19 10 -25z m500 -205 c0 -5 -7 -10
-16 -10 -8 0 -12 5 -9 10 3 6 10 10 16 10 5 0 9 -4 9 -10z m-168 -25 c20 -8
51 -16 69 -18 22 -2 46 -15 67 -36 27 -28 38 -32 62 -27 22 4 30 2 30 -8 0
-11 43 -27 84 -30 17 -2 18 -26 2 -32 -9 -3 -16 -14 -16 -24 0 -62 -239 7
-342 99 -27 24 -48 51 -48 62 0 11 4 18 9 14 5 -3 12 -1 16 5 9 14 26 13 67
-5z m-1536 -135 c321 -21 647 -80 996 -178 59 -17 115 -35 125 -40 10 -5 88
-33 173 -62 85 -30 193 -71 240 -93 47 -21 131 -59 188 -83 322 -139 797 -435
1062 -662 389 -334 797 -745 1086 -1092 398 -478 749 -1083 984 -1696 127
-329 275 -848 330 -1157 51 -284 73 -665 50 -858 -39 -328 -62 -436 -148 -702
-14 -43 -30 -81 -36 -85 -25 -16 -208 -74 -302 -97 -186 -44 -328 -58 -604
-58 -228 0 -281 4 -501 32 -334 43 -552 93 -876 200 -324 107 -826 336 -1078
492 -350 216 -645 432 -825 603 -36 34 -111 101 -166 149 -142 122 -315 296
-549 550 -242 263 -311 346 -464 547 -358 472 -560 846 -767 1415 -51 143
-125 371 -154 481 -133 494 -157 1098 -65 1609 31 170 73 359 90 400 20 50 26
85 15 85 -5 0 -10 -7 -10 -16 0 -8 -5 -12 -10 -9 -10 6 -102 -81 -114 -108 -5
-9 -7 -9 -12 1 -4 9 -15 2 -35 -20 -32 -36 -44 -69 -35 -93 3 -9 0 -15 -10
-15 -8 0 -13 4 -9 9 3 5 0 13 -6 17 -7 4 -24 -6 -41 -24 -15 -18 -33 -31 -40
-30 -7 2 -14 -8 -16 -22 -2 -14 -9 -28 -16 -32 -8 -6 -7 -10 2 -17 10 -6 5
-10 -17 -14 -25 -5 -31 -11 -31 -32 0 -15 -4 -24 -10 -20 -12 8 -75 -54 -75
-74 0 -8 -7 -17 -15 -21 -8 -4 -26 -13 -40 -20 -23 -12 -24 -12 -11 3 7 10 20
17 27 17 8 0 14 6 14 14 0 8 8 21 18 28 23 16 25 48 4 48 -9 0 -12 -3 -9 -6 9
-10 -11 -42 -33 -54 -16 -9 -18 -8 -14 5 4 8 1 16 -5 17 -31 4 -36 1 -36 -17
0 -13 -7 -20 -21 -21 -28 -1 -96 -54 -91 -69 7 -17 -28 -61 -37 -46 -10 15
-36 -4 -36 -25 0 -8 -9 -14 -20 -14 -21 0 -29 -30 -7 -30 6 -1 1 -10 -12 -20
-14 -12 -38 -20 -62 -20 -38 0 -39 -1 -34 -29 3 -17 1 -33 -5 -36 -6 -3 -7 1
-4 9 7 18 -9 21 -37 6 -24 -14 -24 -13 8 46 14 27 35 66 45 87 10 20 23 37 29
37 6 0 9 6 7 12 -3 7 1 19 9 26 7 7 13 21 13 30 -1 13 -6 11 -25 -11 -15 -17
-22 -34 -18 -44 5 -13 2 -15 -16 -10 -15 4 -29 -2 -46 -21 -14 -15 -25 -30
-25 -34 0 -5 -5 -8 -10 -8 -11 0 37 83 51 88 4 2 5 10 2 18 -5 14 12 20 20 7
2 -5 2 -3 1 4 -3 12 180 217 252 283 45 41 163 136 213 170 24 17 35 20 41 11
5 -9 9 -7 12 7 11 41 253 174 423 232 33 11 78 30 101 40 56 28 134 47 308 76
231 39 489 51 752 34z m-1426 -577 c0 -14 -19 -38 -25 -32 -8 8 5 39 16 39 5
0 9 -3 9 -7z m-367 -285 c-2 -4 -10 -2 -17 5 -8 6 -12 15 -9 19 2 4 10 2 17
-5 8 -6 12 -15 9 -19z m76 9 c-2 -1 -13 -9 -24 -17 -19 -14 -19 -14 -6 3 7 9
18 17 24 17 6 0 8 -1 6 -3z m-449 -177 c12 -8 11 -10 -7 -10 -13 0 -23 5 -23
10 0 13 11 13 30 0z m140 -40 c0 -5 -5 -10 -11 -10 -5 0 -7 5 -4 10 3 6 8 10
11 10 2 0 4 -4 4 -10z m-125 -58 c0 -40 -36 -84 -68 -84 -15 0 -27 -4 -27 -9
0 -5 -4 -9 -10 -9 -19 0 2 29 23 32 16 2 21 9 20 26 -2 13 4 25 12 28 8 4 15
12 15 19 0 8 8 16 18 18 9 3 17 5 17 6 0 0 0 -11 0 -27z m-128 -139 c-9 -9
-19 -14 -23 -11 -10 10 6 28 24 28 15 0 15 -1 -1 -17z m-973 -2612 c4 -5 -24
-19 -61 -32 -38 -12 -74 -24 -80 -27 -7 -2 -13 2 -13 11 0 9 24 22 63 35 72
24 84 25 91 13z m-194 -89 c0 -4 -10 -13 -22 -21 -23 -14 -23 -14 -4 8 20 22
26 25 26 13z m310 -787 c0 -20 58 -55 92 -55 25 0 112 -63 131 -96 8 -14 5
-43 -6 -61 -16 -26 -161 26 -217 78 -14 13 -39 35 -56 49 -46 39 -49 48 -19
76 29 27 75 33 75 9z m181 -36 c10 -20 7 -23 -26 -19 -24 2 -47 19 -40 30 9
15 56 7 66 -11z m113 -116 c-12 -51 -24 -74 -33 -68 -12 7 2 58 21 79 18 21
19 20 12 -11z m-1804 -879 c0 -14 -4 -23 -10 -19 -5 3 -10 15 -10 26 0 10 5
19 10 19 6 0 10 -12 10 -26z m-190 -10 c0 -22 -16 -17 -17 6 -1 11 2 18 8 15
5 -4 9 -13 9 -21z m-32 -9 c1 -16 -3 -25 -12 -25 -9 0 -13 10 -12 25 1 32 21
32 24 0z m478 5 c51 -11 154 -58 154 -70 0 -5 6 -7 13 -5 17 7 120 -92 150
-145 32 -57 44 -110 25 -110 -8 0 -9 -3 -2 -8 19 -13 22 -37 12 -83 -5 -24
-11 -59 -13 -78 -2 -18 -11 -41 -20 -50 -16 -15 -17 -15 -6 6 20 39 12 46 -24
19 -37 -28 -42 -27 -24 5 20 39 27 121 14 166 -7 24 -10 43 -7 43 3 0 -4 9
-16 20 -12 12 -22 24 -22 28 -1 24 -95 107 -162 141 -16 8 -28 21 -28 28 0 8
-4 11 -10 8 -5 -3 -11 4 -11 17 -1 18 -2 19 -6 5 -5 -21 -13 -21 -126 9 -57
15 -65 19 -47 26 12 4 26 6 30 3 12 -8 41 6 34 16 -3 5 0 9 6 9 6 0 8 5 4 12
-5 8 0 9 17 4 13 -4 42 -11 65 -16z m-526 -5 c0 -8 0 -18 0 -22 0 -5 -8 -9
-17 -10 -10 -1 -30 -5 -45 -9 -21 -5 -29 -2 -34 10 -8 20 -6 21 26 30 17 5 21
4 11 -2 -10 -7 -10 -11 -1 -17 7 -4 18 2 26 14 18 25 34 27 34 6z m-117 -52
c-4 -11 -54 -33 -75 -33 -18 0 -3 43 16 46 10 1 23 7 29 13 12 12 37 -9 30
-26z m-113 -28 c-7 -9 -15 -13 -19 -10 -3 3 1 10 9 15 21 14 24 12 10 -5z
m-49 -38 c-6 -8 -7 -18 -3 -22 4 -5 1 -5 -5 -1 -7 4 -13 2 -13 -4 0 -7 -18
-33 -41 -58 -22 -26 -47 -61 -54 -79 -15 -36 -35 -44 -35 -15 0 34 126 192
153 192 5 0 4 -6 -2 -13z m-136 -287 c4 -16 4 -43 0 -60 -4 -19 -3 -30 4 -30
6 0 11 -7 11 -16 0 -9 -5 -14 -12 -12 -13 5 -38 81 -38 121 0 37 27 35 35 -3z
m-1350 -90 c-3 -5 1 -10 10 -10 9 0 13 5 10 10 -7 11 24 13 49 4 13 -5 11 -10
-10 -27 -25 -19 -28 -19 -52 -4 -32 19 -40 37 -17 37 9 0 13 -4 10 -10z m15
-50 c0 -5 -4 -10 -10 -10 -5 0 -10 5 -10 10 0 6 5 10 10 10 6 0 10 -4 10 -10z
m102 -26 c-3 -9 -22 -8 -51 2 -11 3 -11 7 -1 19 11 13 16 14 34 2 12 -8 20
-18 18 -23z m1300 -13 c25 -27 48 -56 51 -65 4 -9 15 -16 26 -16 29 0 79 -32
85 -54 7 -27 0 -32 -21 -14 -10 8 -25 17 -33 20 -49 18 -169 138 -170 171 0
17 20 4 62 -42z m1138 10 c0 -11 -5 -23 -10 -26 -6 -4 -8 -15 -5 -26 4 -11 2
-19 -4 -19 -14 0 -17 43 -6 78 7 19 25 14 25 -7z m-85 -129 c-3 -3 -11 0 -18
7 -9 10 -8 11 6 5 10 -3 15 -9 12 -12z m-58 -32 c-30 -24 -37 -25 -37 -5 0 8
6 12 14 9 8 -3 17 -1 21 5 3 6 11 11 17 11 6 0 -1 -9 -15 -20z m-112 -21 c11
-17 -1 -21 -15 -4 -8 9 -8 15 -2 15 6 0 14 -5 17 -11z m-35 -9 c0 -5 -4 -10
-10 -10 -5 0 -10 5 -10 10 0 6 5 10 10 10 6 0 10 -4 10 -10z m-450 -32 c0 -6
-6 -5 -15 2 -8 7 -15 14 -15 16 0 2 7 1 15 -2 8 -4 15 -11 15 -16z m465 2
c-11 -5 -27 -9 -35 -9 -13 -1 -13 0 0 9 8 5 24 9 35 9 l20 0 -20 -9z m-185
-30 c-24 -15 -36 -11 -14 4 10 8 21 12 24 10 2 -3 -2 -9 -10 -14z m9579 -214
c-9 -19 -15 -23 -21 -14 -10 17 -10 31 1 24 5 -3 12 1 15 10 4 9 9 15 12 12 2
-3 -1 -17 -7 -32z m-7842 -77 c15 1 23 -6 25 -21 2 -12 9 -24 17 -26 10 -3 12
1 8 17 -6 24 14 28 59 11 15 -6 45 -13 68 -16 40 -4 104 -20 271 -64 141 -37
190 -52 200 -60 6 -4 30 -13 53 -20 31 -8 42 -15 38 -25 -3 -8 -1 -17 5 -20 5
-4 7 -10 4 -15 -3 -5 -1 -11 5 -15 5 -3 10 -1 10 6 0 7 10 9 25 7 34 -7 31 1
-5 13 -16 6 -30 15 -30 21 0 6 8 7 18 3 9 -4 42 -16 72 -27 30 -11 60 -24 65
-28 6 -4 24 -11 41 -14 34 -8 89 -56 63 -56 -8 0 -33 11 -56 24 -23 13 -57 29
-77 36 -20 6 -36 16 -36 21 0 5 -4 9 -10 9 -21 0 -8 -17 25 -33 20 -10 35 -24
35 -34 0 -14 2 -15 9 -4 7 11 19 9 66 -13 58 -26 78 -27 69 -1 -5 12 -1 13 25
4 17 -6 31 -14 31 -18 0 -4 9 -7 19 -8 22 -2 307 -140 421 -204 41 -23 69 -44
62 -47 -7 -2 -18 1 -25 7 -7 5 -28 12 -47 14 -48 6 -71 17 -63 30 3 5 1 7 -5
3 -6 -3 -13 -2 -17 4 -8 13 -42 13 -50 0 -4 -6 3 -9 16 -7 14 1 23 -4 24 -15
4 -20 -13 -15 -110 32 -75 36 -102 46 -130 49 -8 0 -24 10 -36 22 -11 11 -27
18 -34 15 -8 -3 -20 1 -27 8 -26 25 -54 36 -66 24 -8 -8 -23 -5 -54 11 -29 14
-36 21 -22 21 11 0 29 -7 40 -15 22 -16 38 -20 29 -6 -15 25 -65 39 -100 30
-43 -12 -106 6 -98 28 3 7 0 13 -6 13 -6 0 -11 -5 -11 -10 0 -6 -11 -8 -27 -4
-34 8 -55 23 -47 35 3 5 0 9 -6 9 -7 0 -10 -6 -7 -14 4 -11 -3 -14 -33 -11
-21 1 -42 5 -46 7 -5 3 -36 13 -69 22 -33 10 -68 22 -77 27 -10 5 -27 9 -38 9
-11 0 -20 3 -20 8 0 4 -35 8 -77 9 -42 1 -79 6 -82 11 -3 5 -26 12 -51 16 -24
4 -50 12 -57 18 -7 6 -22 8 -34 5 -12 -3 -18 -3 -15 0 7 7 -20 33 -35 33 -10
0 -10 3 -1 12 9 9 18 9 37 0 15 -7 24 -8 21 -3 -3 5 -21 16 -41 25 -22 11 -35
24 -35 36 0 13 -7 20 -19 20 -11 0 -21 6 -23 12 -4 10 -8 9 -19 -2 -11 -11
-33 -14 -81 -12 -55 3 -67 7 -71 23 -6 21 9 27 15 7 3 -7 10 1 18 18 12 27 17
30 54 26 23 -1 51 -3 63 -3z m7763 -79 c-6 -11 -15 -20 -20 -20 -6 0 -2 9 7
20 10 11 19 20 21 20 1 0 -2 -9 -8 -20z m-7800 -18 c27 -12 17 -37 -15 -41
-27 -3 -28 -4 -10 -12 14 -6 8 -7 -20 -3 -22 3 -43 11 -46 16 -4 6 -15 8 -24
4 -13 -4 -16 -2 -11 9 3 8 0 15 -7 16 -7 1 -1 5 13 9 31 10 100 11 120 2z m60
-52 c0 -15 -7 -20 -25 -20 -14 0 -25 5 -25 11 0 5 5 7 10 4 6 -3 10 1 10 9 0
9 7 16 15 16 8 0 15 -9 15 -20z m710 -210 c0 -5 -7 -7 -15 -4 -8 4 -15 8 -15
10 0 2 7 4 15 4 8 0 15 -4 15 -10z m65 -20 c3 -5 2 -10 -4 -10 -5 0 -13 5 -16
10 -3 6 -2 10 4 10 5 0 13 -4 16 -10z m240 -90 c3 -5 1 -10 -4 -10 -6 0 -11 5
-11 10 0 6 2 10 4 10 3 0 8 -4 11 -10z m150 -55 c78 -33 300 -147 315 -161 8
-8 -35 10 -95 41 -61 30 -114 55 -119 55 -5 0 -17 6 -25 13 -16 13 -124 59
-168 72 -13 3 -23 10 -23 15 0 9 39 -3 115 -35z m405 -211 c0 -2 -13 2 -30 11
-16 9 -30 18 -30 21 0 2 14 -2 30 -11 17 -9 30 -18 30 -21z m-204 -41 c-7 -7
-26 7 -26 19 0 6 6 6 15 -2 9 -7 13 -15 11 -17z m280 1 c18 -14 18 -14 -6 -3
-31 14 -36 19 -24 19 6 0 19 -7 30 -16z m159 -84 c3 -5 1 -10 -4 -10 -6 0 -11
5 -11 10 0 6 2 10 4 10 3 0 8 -4 11 -10z m2400 0 c13 -6 15 -9 5 -9 -8 0 -22
4 -30 9 -18 12 -2 12 25 0z m-2340 -30 c3 -5 1 -10 -4 -10 -6 0 -11 5 -11 10
0 6 2 10 4 10 3 0 8 -4 11 -10z m2452 -6 c-3 -3 -12 -4 -19 -1 -8 3 -5 6 6 6
11 1 17 -2 13 -5z m-2237 -149 c7 -8 8 -15 2 -15 -5 0 -15 7 -22 15 -7 8 -8
15 -2 15 5 0 15 -7 22 -15z m6644 -615 c4 -29 3 -38 -2 -25 -12 28 -23 104
-13 85 5 -8 12 -35 15 -60z m1 -139 c-4 -17 -11 -31 -17 -31 -6 0 -7 7 -4 16
3 9 6 27 6 42 0 19 3 23 11 15 7 -7 8 -24 4 -42z m-9325 -1 c294 -19 577 -67
864 -146 255 -70 746 -240 919 -318 18 -8 66 -29 107 -46 268 -115 809 -426
884 -509 11 -12 25 -21 32 -21 8 0 19 -9 26 -20 7 -11 16 -20 21 -20 10 0 141
-102 146 -114 2 -4 13 -16 25 -25 11 -9 66 -61 121 -116 88 -87 159 -168 398
-452 29 -34 55 -63 60 -63 4 0 21 -15 38 -32 27 -29 30 -30 26 -11 -3 13 -2
25 3 28 4 2 10 -9 14 -25 6 -31 56 -114 56 -93 0 6 -9 32 -20 57 -19 45 -16
58 8 34 10 -9 16 -8 30 6 9 11 12 16 5 12 -6 -3 -14 -2 -18 4 -3 6 0 13 8 16
7 2 14 10 15 17 9 62 15 86 22 82 5 -3 11 -1 15 5 3 5 0 10 -7 10 -10 0 -10 2
1 9 8 5 19 25 26 44 11 32 10 38 -9 57 -15 16 -17 21 -6 20 26 -4 40 0 40 10
0 6 -7 10 -15 10 -8 0 -15 9 -15 20 0 13 5 18 15 14 17 -7 20 7 4 23 -5 5 -12
27 -15 48 -6 47 -14 61 -25 44 -6 -9 -9 -2 -9 23 0 20 -6 43 -13 50 -8 7 -12
19 -10 25 3 7 -1 22 -8 35 -11 21 -11 22 4 9 15 -11 17 -11 17 2 0 10 6 13 20
10 19 -5 19 -4 4 41 -9 26 -13 50 -10 53 9 9 17 -2 19 -26 1 -17 7 -21 27 -19
17 2 25 -2 25 -12 0 -8 -6 -15 -12 -15 -21 0 -15 -20 7 -23 24 -4 26 -20 3
-29 -13 -5 -12 -8 8 -17 l24 -10 -27 -4 c-16 -2 -28 -7 -28 -12 0 -4 9 -6 20
-3 16 4 20 0 20 -18 0 -19 2 -21 10 -9 10 15 14 8 11 -22 -1 -9 2 -19 7 -22
10 -6 9 38 -2 72 -6 16 -3 22 8 22 9 0 16 5 16 10 0 6 5 10 11 10 14 0 5 -125
-9 -144 -5 -6 -6 -20 -1 -31 33 -84 -20 -465 -91 -650 -10 -27 -26 -76 -35
-108 -9 -32 -50 -125 -91 -207 -290 -574 -806 -1090 -1513 -1511 -15 -9 -66
-36 -112 -59 -46 -23 -91 -46 -100 -50 -50 -25 -448 -181 -651 -254 -285 -103
-603 -188 -868 -231 -47 -8 -141 -23 -210 -35 -424 -70 -728 -94 -1165 -94
-338 0 -372 2 -555 28 -107 15 -240 31 -295 37 -180 17 -476 59 -624 90 -149
31 -498 116 -513 125 -4 3 -29 9 -56 14 -88 17 -433 141 -632 227 -254 111
-455 219 -680 369 -206 136 -378 280 -590 493 -230 231 -295 311 -308 379 -5
28 -6 49 -2 47 4 -3 12 23 18 58 12 78 43 181 55 186 5 2 3 7 -4 12 -11 7 -10
9 3 9 10 0 17 3 16 8 -2 13 43 102 52 102 6 0 10 10 10 23 0 13 13 38 30 57
16 18 27 36 25 40 -3 4 2 13 10 20 8 7 15 17 15 23 0 5 11 25 25 43 14 18 25
37 25 42 0 5 7 16 17 23 9 8 22 29 30 47 7 17 18 32 24 32 5 0 8 4 5 8 -3 5 6
21 20 37 13 15 24 34 24 42 0 7 5 13 10 13 6 0 10 7 10 15 0 9 7 18 15 21 8 4
15 10 15 15 0 6 19 35 43 66 23 30 47 63 52 73 6 10 29 39 50 64 22 25 51 60
65 78 14 17 35 42 48 55 12 13 22 26 22 28 0 3 7 13 16 23 92 100 124 139 124
150 0 6 7 12 15 12 9 0 21 11 27 25 6 14 17 25 25 25 7 0 13 4 13 9 0 12 109
121 121 121 6 0 8 4 5 9 -3 5 11 21 31 37 21 16 62 52 93 80 30 29 69 63 85
75 17 13 31 27 33 31 4 9 135 107 170 128 14 8 34 24 44 35 9 11 17 16 18 11
0 -6 13 3 30 19 27 26 79 60 255 166 39 23 72 45 75 49 3 3 26 17 53 29 26 13
47 26 47 31 0 4 10 10 23 14 35 8 117 56 117 67 0 6 3 8 8 6 4 -2 21 4 37 14
17 10 39 23 50 28 11 5 44 23 73 40 29 17 59 31 67 31 8 0 15 4 15 9 0 5 15
13 33 16 17 4 34 11 37 15 9 12 279 97 425 134 246 60 596 116 1050 166 395
44 898 61 1215 40z m9298 -77 c-16 -39 -28 -51 -21 -22 6 23 21 49 29 49 2 0
-2 -12 -8 -27z m-429 -15 c10 3 12 0 8 -12 -5 -14 -3 -16 12 -11 16 5 18 2 14
-15 -7 -25 -47 -36 -80 -21 -21 9 -23 14 -13 26 10 12 9 15 -3 15 -22 0 -33
20 -16 30 7 5 24 3 38 -4 14 -7 32 -11 40 -8z m-177 -34 c15 -8 38 -14 52 -14
39 0 67 -15 114 -58 41 -38 43 -41 23 -51 -11 -6 -32 -11 -46 -11 -33 0 -169
40 -173 51 -2 4 -9 6 -15 3 -7 -2 -25 5 -42 17 l-30 21 29 -7 c27 -6 28 -5 15
11 -13 16 -12 16 10 4 21 -11 23 -10 18 4 -4 9 -1 16 6 16 7 1 1 10 -13 22
l-25 21 25 -8 c14 -4 37 -14 52 -21z m-136 -32 c-6 -5 -55 31 -56 41 0 4 13
-2 30 -14 16 -13 28 -24 26 -27z m379 -122 c3 -5 -1 -10 -9 -10 -8 0 -18 5
-21 10 -3 6 1 10 9 10 8 0 18 -4 21 -10z m-5185 -585 c0 -8 6 -15 13 -16 9 0
9 -2 -1 -6 -15 -6 30 -33 55 -33 8 0 12 -4 8 -9 -6 -10 -62 4 -79 20 -13 11
-17 59 -5 59 5 0 9 -7 9 -15z m60 -299 c0 -14 36 -32 53 -28 4 1 7 -5 7 -13 0
-8 -4 -15 -10 -15 -5 0 -10 5 -10 11 0 5 -4 8 -10 4 -5 -3 -18 3 -30 15 -21
21 -26 40 -10 40 6 0 10 -6 10 -14z m50 4 c0 -5 -2 -10 -4 -10 -3 0 -8 5 -11
10 -3 6 -1 10 4 10 6 0 11 -4 11 -10z m-93 -32 c-3 -8 -6 -5 -6 6 -1 11 2 17
5 13 3 -3 4 -12 1 -19z m153 -113 c0 -8 -4 -15 -10 -15 -5 0 -10 7 -10 15 0 8
5 15 10 15 6 0 10 -7 10 -15z m-143 -227 c-3 -8 -6 -5 -6 6 -1 11 2 17 5 13 3
-3 4 -12 1 -19z m1118 -1014 c157 -51 277 -141 283 -213 1 -18 -3 -31 -9 -31
-7 0 -9 -9 -5 -24 9 -36 -8 -39 -23 -5 -8 19 -19 28 -27 25 -8 -3 -25 9 -40
29 -14 19 -32 35 -40 35 -7 0 -17 6 -21 14 -4 8 -41 31 -81 51 -72 36 -100 67
-81 91 8 10 -25 29 -81 48 -8 2 -1 5 15 5 17 1 66 -11 110 -25z m300 -264 c3
-5 1 -10 -4 -10 -6 0 -11 5 -11 10 0 6 2 10 4 10 3 0 8 -4 11 -10z m62 -197
c-6 -71 -34 -133 -59 -133 -21 0 -24 15 -5 23 15 6 42 111 32 127 -8 12 12 40
28 40 6 0 8 -22 4 -57z m-11107 -310 c0 -5 26 -8 58 -8 62 0 122 -20 122 -40
0 -19 -47 -25 -151 -19 -52 3 -112 7 -134 8 -22 1 -39 7 -38 12 1 7 -9 9 -25
6 -25 -5 -26 -4 -10 11 9 10 27 21 40 26 28 12 138 14 138 4z m350 -88 c59
-31 21 -47 -49 -21 -19 7 -37 18 -39 24 -5 17 53 15 88 -3z m-1213 -651 c-3
-3 -12 -4 -19 -1 -8 3 -5 6 6 6 11 1 17 -2 13 -5z m583 -524 c0 -5 -7 -7 -15
-4 -8 4 -15 8 -15 10 0 2 7 4 15 4 8 0 15 -4 15 -10z m30 -10 c0 -5 -4 -10
-10 -10 -5 0 -10 5 -10 10 0 6 5 10 10 10 6 0 10 -4 10 -10z m170 -46 l25 -14
-29 2 c-16 2 -31 9 -34 16 -5 16 7 15 38 -4z m1580 -14 c0 -5 -9 -10 -20 -10
-11 0 -20 5 -20 10 0 6 9 10 20 10 11 0 20 -4 20 -10z m-2565 -120 c3 -5 2
-10 -4 -10 -5 0 -13 5 -16 10 -3 6 -2 10 4 10 5 0 13 -4 16 -10z m1482 -24
c12 -12 -3 -12 -47 1 l-45 13 43 -4 c24 -2 46 -7 49 -10z m-1507 -21 c0 -14
-4 -25 -10 -25 -5 0 -10 11 -10 25 0 14 5 25 10 25 6 0 10 -11 10 -25z m13
-102 c9 -57 9 -57 -4 -62 -7 -2 -9 1 -5 8 4 6 4 17 -1 24 -9 14 -11 67 -2 67
4 0 9 -17 12 -37z m47 -493 c0 -5 -4 -10 -10 -10 -5 0 -10 5 -10 10 0 6 5 10
10 10 6 0 10 -4 10 -10z m-5 -40 c3 -5 1 -10 -4 -10 -6 0 -11 5 -11 10 0 6 2
10 4 10 3 0 8 -4 11 -10z"/>
<path d="M12382 18298 c5 -15 28 -18 29 -3 0 6 -7 12 -17 13 -10 3 -15 -1 -12
-10z"/>
<path d="M11853 17969 c-19 -12 -33 -29 -33 -41 0 -11 -8 -22 -20 -25 -11 -3
-20 -11 -20 -19 0 -8 6 -11 15 -8 8 4 15 10 15 14 0 4 7 11 16 14 9 3 2 -11
-17 -35 -18 -22 -38 -43 -44 -46 -7 -2 -11 -12 -8 -21 2 -10 -5 -22 -17 -30
-15 -9 -20 -9 -20 0 0 9 -3 9 -12 0 -8 -8 -8 -15 1 -26 13 -16 6 -40 -9 -31
-5 3 -12 -6 -16 -20 -3 -14 -10 -25 -14 -25 -17 0 -40 -32 -40 -53 1 -20 2
-20 16 6 8 15 18 27 23 27 14 0 92 80 87 89 -3 5 1 14 9 21 8 7 15 18 15 24 0
11 15 27 65 66 18 14 18 14 2 -10 -11 -17 -13 -30 -7 -40 13 -21 31 32 23 71
-5 25 -2 31 15 35 11 3 22 17 25 30 5 27 -7 33 -17 8 -3 -8 -10 -12 -16 -9 -6
4 -4 15 6 31 20 29 18 29 -23 3z"/>
<path d="M11790 17764 c-12 -19 -19 -38 -15 -42 8 -8 55 47 55 66 0 23 -18 12
-40 -24z"/>
<path d="M11650 17705 c-6 -8 -10 -19 -8 -24 1 -6 8 1 15 14 13 28 11 31 -7
10z"/>
<path d="M11490 17474 c0 -8 5 -12 10 -9 6 3 10 10 10 16 0 5 -4 9 -10 9 -5 0
-10 -7 -10 -16z"/>
<path d="M9125 12640 c3 -5 8 -10 11 -10 2 0 4 5 4 10 0 6 -5 10 -11 10 -5 0
-7 -4 -4 -10z"/>
<path d="M9324 12560 c0 -11 6 -20 13 -20 11 0 11 5 3 20 -6 11 -12 20 -13 20
-2 0 -3 -9 -3 -20z"/>
<path d="M8470 12610 c0 -5 5 -10 10 -10 6 0 10 5 10 10 0 6 -4 10 -10 10 -5
0 -10 -4 -10 -10z"/>
<path d="M10640 11515 c0 -14 4 -25 9 -25 5 0 9 11 9 25 0 14 -4 25 -9 25 -5
0 -9 -11 -9 -25z"/>
<path d="M10772 11459 c2 -6 26 -13 53 -15 56 -4 44 9 -19 20 -27 5 -37 4 -34
-5z"/>
<path d="M10886 11451 c-3 -5 4 -11 16 -14 30 -8 35 -1 9 12 -11 6 -22 7 -25
2z"/>
<path d="M10860 11385 c0 -9 6 -12 15 -9 8 4 15 10 15 15 0 5 -7 9 -15 9 -8 0
-15 -7 -15 -15z"/>
<path d="M11035 11390 c-3 -5 -1 -10 4 -10 6 0 11 5 11 10 0 6 -2 10 -4 10 -3
0 -8 -4 -11 -10z"/>
<path d="M11310 11375 c0 -3 15 -12 33 -19 55 -23 77 -28 77 -17 0 5 -17 13
-37 17 -21 4 -46 11 -55 16 -10 5 -18 6 -18 3z"/>
<path d="M11115 11350 c3 -5 8 -10 11 -10 2 0 4 5 4 10 0 6 -5 10 -11 10 -5 0
-7 -4 -4 -10z"/>
<path d="M10972 11341 c4 -13 18 -16 19 -4 0 4 -5 9 -11 12 -7 2 -11 -2 -8 -8z"/>
<path d="M11200 11329 c0 -5 5 -7 10 -4 6 3 10 8 10 11 0 2 -4 4 -10 4 -5 0
-10 -5 -10 -11z"/>
<path d="M11365 11250 c-3 -5 -1 -10 4 -10 6 0 11 5 11 10 0 6 -2 10 -4 10 -3
0 -8 -4 -11 -10z"/>
<path d="M11596 11211 c-3 -5 1 -11 9 -14 9 -4 12 -1 8 9 -6 16 -10 17 -17 5z"/>
<path d="M11900 11106 c0 -2 7 -7 16 -10 8 -3 12 -2 9 4 -6 10 -25 14 -25 6z"/>
<path d="M11945 11080 c3 -5 8 -10 11 -10 2 0 4 5 4 10 0 6 -5 10 -11 10 -5 0
-7 -4 -4 -10z"/>
<path d="M12027 11053 c5 -12 3 -14 -7 -8 -9 5 -11 4 -6 -4 4 -6 12 -9 17 -6
12 8 12 35 -1 35 -5 0 -6 -7 -3 -17z"/>
<path d="M13900 8433 c0 -5 5 -15 10 -23 8 -12 10 -11 10 8 0 12 -4 22 -10 22
-5 0 -10 -3 -10 -7z"/>
<path d="M13935 8431 c-3 -5 -1 -12 5 -16 5 -3 10 1 10 9 0 18 -6 21 -15 7z"/>
<path d="M13925 8379 c-4 -6 -5 -13 -2 -16 7 -7 27 6 27 18 0 12 -17 12 -25
-2z"/>
<path d="M13950 8350 c0 -5 7 -10 15 -10 8 0 15 5 15 10 0 6 -7 10 -15 10 -8
0 -15 -4 -15 -10z"/>
<path d="M13970 8290 c0 -13 18 -22 24 -11 3 5 -1 11 -9 15 -8 3 -15 1 -15 -4z"/>
<path d="M13990 8206 c0 -9 5 -16 10 -16 6 0 10 4 10 9 0 6 -4 13 -10 16 -5 3
-10 -1 -10 -9z"/>
<path d="M13916 7863 c-11 -11 -6 -23 9 -23 8 0 15 4 15 9 0 13 -16 22 -24 14z"/>
<path d="M13870 7813 c0 -4 5 -15 10 -23 8 -13 10 -13 10 2 0 9 -4 20 -10 23
-5 3 -10 3 -10 -2z"/>
<path d="M18800 9595 c0 -8 7 -15 15 -15 8 0 15 4 15 9 0 5 -7 11 -15 15 -9 3
-15 0 -15 -9z"/>
<path d="M734 21091 c-2 -2 -4 -105 -4 -228 l0 -223 570 0 c396 0 576 3 593
11 47 21 56 80 19 122 -14 16 -52 17 -524 17 l-508 0 0 75 0 76 529 -3 529 -3
43 -30 c70 -49 102 -104 107 -180 4 -55 0 -73 -22 -119 -15 -30 -43 -66 -62
-81 -71 -54 -79 -55 -701 -55 l-573 0 0 -322 c0 -178 3 -347 6 -375 l7 -53
228 0 229 0 0 155 0 155 168 0 169 0 85 -157 85 -158 262 -3 c143 -1 261 1
261 5 0 5 -55 109 -123 233 l-122 225 -77 3 c-43 2 -78 0 -78 -4 0 -8 96 -190
137 -261 l25 -43 -104 0 -103 0 -84 155 -83 155 -284 0 -284 0 0 -160 0 -161
-87 3 -88 3 3 225 3 225 532 5 c496 5 535 6 577 24 103 44 175 112 219 206 23
48 26 68 26 160 0 97 -2 110 -30 164 -38 75 -110 147 -184 183 l-56 28 -613 5
c-338 3 -616 3 -618 1z"/>
<path d="M14565 20920 c-3 -5 -2 -10 4 -10 5 0 13 5 16 10 3 6 2 10 -4 10 -5
0 -13 -4 -16 -10z"/>
<path d="M14430 20900 c-9 -6 -10 -10 -3 -10 6 0 15 5 18 10 8 12 4 12 -15 0z"/>
<path d="M14305 20856 c-42 -19 -71 -43 -63 -51 4 -4 21 3 38 15 17 12 45 23
62 24 37 2 52 26 16 26 -12 -1 -36 -7 -53 -14z"/>
<path d="M5670 20782 c-85 -22 -147 -60 -203 -121 -143 -160 -136 -384 16
-528 89 -84 190 -123 322 -123 140 0 252 47 340 142 71 77 98 147 98 253 0
107 -27 176 -100 255 -113 123 -293 169 -473 122z m255 -164 c154 -81 170
-313 28 -407 -55 -37 -94 -45 -177 -39 -90 8 -155 48 -193 122 -21 40 -28 132
-13 185 15 55 81 127 135 147 51 18 178 14 220 -8z"/>
<path d="M2760 20406 l0 -386 95 0 95 0 0 155 0 155 49 0 c70 0 99 -31 171
-184 l59 -126 101 0 c63 0 100 4 100 10 0 6 -31 75 -69 154 -46 96 -80 152
-101 170 -18 15 -31 28 -29 30 2 1 21 13 41 25 130 78 110 276 -36 354 -38 20
-57 22 -258 25 l-218 3 0 -385z m381 215 c28 -35 25 -92 -7 -122 -22 -21 -35
-24 -102 -24 l-77 0 -3 89 -3 88 86 -3 c77 -4 89 -7 106 -28z"/>
<path d="M3540 20405 l0 -385 95 0 95 0 0 385 0 385 -95 0 -95 0 0 -385z"/>
<path d="M3920 20405 l0 -386 93 3 92 3 3 153 3 152 98 0 c122 0 182 17 233
67 51 49 68 91 68 165 0 90 -43 158 -130 204 -30 17 -63 19 -247 22 l-213 3 0
-386z m376 212 c13 -16 24 -41 24 -57 0 -16 -11 -41 -24 -57 -22 -25 -31 -28
-105 -31 l-81 -4 0 92 0 92 81 -4 c74 -3 83 -6 105 -31z"/>
<path d="M4660 20405 l0 -385 95 0 95 0 0 154 0 154 123 4 c128 4 163 14 215
62 36 32 63 92 69 152 5 45 1 62 -21 109 -57 114 -115 135 -383 135 l-193 0 0
-385z m349 234 c36 -13 51 -35 51 -78 0 -68 -35 -91 -140 -91 l-70 0 0 90 0
90 64 0 c34 0 77 -5 95 -11z"/>
<path d="M14160 20675 c0 -9 5 -15 11 -13 6 2 11 8 11 13 0 5 -5 11 -11 13 -6
2 -11 -4 -11 -13z"/>
<path d="M13871 20494 c0 -11 3 -14 6 -6 3 7 2 16 -1 19 -3 4 -6 -2 -5 -13z"/>
<path d="M13810 20460 c-11 -8 -7 -9 15 -4 37 8 45 14 19 14 -10 0 -26 -5 -34
-10z"/>
<path d="M13876 20435 c-3 -8 -1 -15 4 -15 13 0 22 18 11 24 -5 3 -11 -1 -15
-9z"/>
<path d="M13737 20405 c-4 -8 -2 -17 3 -20 6 -4 10 3 10 14 0 25 -6 27 -13 6z"/>
<path d="M13770 20413 c-6 -36 -3 -57 8 -61 13 -4 14 10 2 48 -4 14 -9 19 -10
13z"/>
<path d="M13566 20315 c-3 -9 0 -15 9 -15 9 0 12 6 9 15 -4 8 -7 15 -9 15 -2
0 -5 -7 -9 -15z"/>
<path d="M13490 20250 c0 -5 7 -10 15 -10 8 0 15 5 15 10 0 6 -7 10 -15 10 -8
0 -15 -4 -15 -10z"/>
<path d="M13350 20193 c0 -4 5 -15 10 -23 8 -13 10 -13 10 2 0 9 -4 20 -10 23
-5 3 -10 3 -10 -2z"/>
<path d="M13296 20121 c-4 -7 -5 -15 -2 -18 9 -9 19 4 14 18 -4 11 -6 11 -12
0z"/>
<path d="M13250 20090 c0 -5 4 -10 9 -10 6 0 13 5 16 10 3 6 -1 10 -9 10 -9 0
-16 -4 -16 -10z"/>
<path d="M13185 20056 c-13 -9 -16 -19 -10 -32 4 -10 7 -22 7 -26 -1 -5 7 -8
18 -8 16 0 20 7 20 34 0 41 -10 50 -35 32z"/>
<path d="M13045 19920 c4 -6 11 -8 16 -5 14 9 11 15 -7 15 -8 0 -12 -5 -9 -10z"/>
<path d="M19035 6265 c-27 -7 -53 -19 -59 -27 -6 -8 -19 -17 -30 -21 -25 -10
-6 -33 34 -42 28 -6 28 -7 9 -26 -10 -10 -19 -26 -19 -34 0 -8 -8 -15 -17 -15
-15 0 -14 -2 3 -15 17 -13 17 -14 2 -15 -11 0 -18 -8 -18 -19 0 -10 -6 -24
-13 -30 -8 -6 -19 -29 -26 -51 -7 -23 -21 -50 -32 -61 -10 -10 -19 -28 -19
-38 0 -10 -7 -22 -16 -25 -8 -3 -13 -10 -10 -14 3 -5 -3 -18 -14 -30 -14 -15
-28 -19 -50 -16 -20 4 -30 1 -30 -7 0 -10 -3 -10 -12 -1 -7 7 -24 12 -39 12
-34 0 -43 13 -29 40 6 12 10 33 8 48 -3 25 -5 24 -36 -26 -55 -90 -112 -234
-112 -285 0 -25 5 -49 10 -52 11 -7 50 -88 50 -104 0 -6 -7 -11 -16 -11 -11 0
-14 -5 -10 -17 4 -9 2 -20 -5 -23 -8 -5 -6 -16 5 -38 9 -17 16 -38 16 -47 0
-19 26 -47 93 -100 37 -29 59 -39 97 -43 50 -5 58 -10 41 -27 -14 -15 -25 -59
-13 -51 6 3 12 -2 14 -11 3 -16 6 -15 26 5 12 12 31 22 42 22 11 0 20 5 20 10
0 6 7 10 15 10 15 0 21 -26 8 -32 -9 -4 -43 -62 -43 -74 0 -4 12 4 28 18 20
19 32 24 47 18 12 -5 14 -9 6 -9 -8 -1 -11 -4 -8 -8 4 -3 15 2 26 11 21 19 42
3 22 -17 -19 -19 -14 -39 7 -28 13 7 23 6 30 -1 9 -9 16 -7 30 5 24 22 32 21
32 -3 0 -11 -4 -20 -10 -20 -5 0 -10 -7 -10 -15 0 -8 4 -15 9 -15 5 0 16 -2
23 -5 8 -3 25 3 38 15 29 25 40 25 40 0 0 -11 -4 -20 -9 -20 -5 0 -11 -8 -14
-19 -4 -16 1 -18 40 -15 45 3 45 2 41 -27 -5 -31 2 -35 32 -19 16 8 18 7 14
-4 -6 -15 11 -17 33 -3 17 11 26 -10 13 -33 -12 -22 -1 -27 19 -7 10 10 14 8
22 -6 10 -17 12 -17 36 -1 25 16 26 16 18 -2 -4 -11 -10 -28 -13 -39 -5 -18
-3 -18 11 -7 14 12 19 12 32 -1 8 -9 24 -13 36 -10 19 5 21 3 17 -15 -5 -17
-2 -22 12 -22 10 0 20 -6 23 -12 4 -10 7 -10 18 0 22 21 37 14 31 -14 -4 -23
-3 -25 14 -16 14 8 21 6 30 -6 9 -13 15 -14 26 -4 21 17 29 5 17 -25 -11 -29
-6 -39 13 -27 7 5 30 9 50 10 40 2 43 -9 17 -58 -11 -21 -11 -22 5 -9 10 8 38
16 62 17 48 2 47 2 26 -56 -5 -12 -3 -13 9 -3 8 7 24 12 34 11 11 -1 30 2 43
6 18 6 22 4 22 -13 0 -11 -4 -23 -10 -26 -5 -3 -10 -13 -10 -21 0 -8 5 -12 11
-9 5 4 20 8 32 10 12 1 31 6 41 10 17 8 18 5 12 -29 -4 -21 -10 -45 -12 -54
-3 -9 2 -6 11 8 13 20 26 25 61 27 42 1 44 0 38 -20 -3 -12 -12 -35 -20 -51
-18 -37 -18 -45 0 -21 7 11 20 16 29 12 9 -3 18 0 21 9 3 8 12 14 21 14 8 0
15 5 15 10 0 6 5 10 10 10 14 0 2 -68 -16 -95 -8 -11 -14 -24 -14 -30 0 -5 11
7 25 26 25 37 48 53 60 41 3 -4 14 -7 23 -7 17 0 19 -11 6 -55 l-7 -25 25 23
c13 12 27 19 31 16 4 -4 14 -1 22 6 28 23 37 -1 21 -56 l-15 -49 22 25 c13 14
30 24 40 22 11 -2 25 5 33 17 19 26 49 29 35 4 -5 -10 -28 -57 -50 -105 -22
-48 -49 -93 -61 -100 -11 -7 -20 -19 -20 -26 0 -7 -6 -15 -14 -18 -8 -3 -17
-15 -20 -27 -4 -17 -8 -19 -17 -10 -9 9 -9 16 1 29 8 9 15 43 16 80 l2 64 -35
-30 c-54 -48 -59 -35 -37 80 5 23 2 21 -31 -15 -30 -32 -39 -37 -53 -28 -12 8
-16 23 -15 53 l2 43 -24 -23 c-36 -34 -59 -23 -65 30 l-5 45 -23 -30 c-13 -16
-31 -30 -40 -30 -24 0 -40 35 -30 63 14 40 9 44 -18 13 -22 -26 -28 -29 -49
-19 -14 6 -25 21 -27 35 l-3 23 -37 -20 c-38 -20 -38 -20 -38 0 0 11 -5 20
-11 20 -7 0 -8 11 -4 31 l7 31 -25 -17 c-24 -15 -27 -15 -52 1 -26 17 -27 23
-10 69 4 12 -3 7 -20 -13 l-27 -33 -28 28 c-22 21 -26 32 -19 45 13 25 1 22
-21 -4 -16 -21 -18 -21 -34 -5 -10 9 -22 17 -28 17 -7 0 -8 14 -5 36 l6 36
-24 -26 c-42 -45 -89 -28 -78 28 l6 31 -27 -28 c-22 -23 -29 -27 -41 -17 -8 7
-13 16 -10 20 3 4 -1 10 -9 13 -9 4 -12 14 -9 29 5 21 3 20 -29 -9 -39 -38
-63 -43 -53 -13 4 12 2 20 -5 20 -8 0 -10 9 -6 25 9 36 -10 31 -30 -7 -16 -32
-17 -32 -33 -12 -9 11 -22 19 -30 16 -10 -3 -12 5 -7 39 l6 44 -15 -32 -15
-32 -30 17 c-27 14 -31 22 -28 50 5 37 -4 41 -24 11 -12 -19 -16 -20 -29 -7
-8 8 -19 13 -25 11 -17 -6 -25 26 -14 48 6 11 7 19 2 19 -6 0 -12 -9 -15 -20
-6 -25 -25 -26 -35 -2 -4 9 -14 17 -22 17 -8 0 -16 9 -18 21 -2 13 -16 26 -37
34 -26 10 -35 20 -35 37 0 20 -3 21 -26 13 -30 -12 -54 6 -54 39 0 28 -21 18
-43 -20 l-17 -31 -30 41 c-31 42 -53 54 -44 24 3 -11 -2 -8 -13 7 -29 41 -65
70 -84 70 -29 0 -23 -16 15 -38 39 -23 55 -62 26 -62 -11 0 -25 8 -32 18 -17
23 -68 62 -81 62 -6 0 -3 -6 6 -12 24 -18 67 -79 67 -95 0 -23 -27 -14 -81 27
-62 46 -84 52 -47 13 31 -35 64 -91 56 -98 -7 -7 -41 8 -98 43 -70 43 -90 46
-42 6 37 -31 72 -87 72 -115 0 -15 -27 -10 -34 6 -7 18 -34 9 -58 -20 -14 -17
-14 -21 -2 -28 7 -4 19 -17 24 -28 10 -18 8 -20 -32 -19 -107 0 -119 -1 -113
-10 3 -6 12 -10 18 -10 16 -1 100 -80 93 -88 -3 -3 -16 0 -29 6 -12 6 -34 13
-49 16 -14 3 -33 9 -42 12 -12 5 -15 2 -10 -10 8 -21 -5 -20 -30 3 -22 20 -82
39 -72 22 3 -5 27 -22 54 -37 63 -37 112 -76 112 -90 0 -26 -194 56 -208 88
-2 4 -22 13 -45 19 -54 14 -125 56 -138 80 -11 22 -3 59 13 59 24 0 125 -55
149 -82 14 -15 32 -28 40 -28 8 0 3 10 -14 26 -16 14 -26 32 -23 40 3 8 0 14
-6 14 -6 0 -30 9 -53 20 -49 24 -73 63 -53 89 7 9 13 17 14 19 3 4 47 -18 54
-27 3 -3 19 -16 37 -28 38 -27 62 -31 43 -8 -6 8 -9 18 -6 23 3 5 -12 14 -34
21 -27 8 -45 21 -55 40 -14 28 -14 29 6 24 18 -5 20 -3 15 15 -8 24 10 40 27
23 6 -6 15 -11 19 -11 15 0 8 19 -14 39 -26 25 -13 46 33 56 25 6 28 10 23 31
-5 18 -2 24 10 24 9 0 16 -4 16 -9 0 -10 36 -21 44 -13 4 3 -1 13 -9 22 -23
25 -24 63 -1 68 11 2 24 -2 30 -10 6 -7 25 -22 41 -32 l30 -20 -27 37 c-16 19
-28 43 -28 51 0 22 39 20 56 -1 12 -17 13 -16 14 5 0 28 9 28 64 -3 25 -14 54
-25 65 -25 11 0 23 -4 26 -10 3 -5 10 -10 15 -10 5 0 -8 18 -30 40 -22 22 -43
40 -48 40 -5 0 -14 11 -20 25 -8 16 -23 28 -43 32 -26 5 -28 8 -15 15 10 5 23
7 31 4 8 -3 16 0 19 7 2 7 5 2 5 -10 1 -13 7 -23 14 -23 7 0 23 -9 35 -20 l22
-21 0 31 c0 17 -6 43 -14 58 -21 41 -72 84 -92 80 -11 -2 -26 4 -35 12 -56 52
-95 70 -155 70 -42 0 -113 -26 -148 -55 l-29 -23 34 1 c24 2 34 -3 37 -15 2
-11 -3 -18 -11 -18 -17 0 -30 -33 -27 -72 2 -32 -7 -36 -26 -11 -7 10 -16 15
-20 11 -4 -5 1 -17 11 -28 19 -21 18 -23 -23 -104 -23 -46 -42 -87 -42 -90 0
-7 -51 -59 -71 -71 -43 -26 -75 -51 -82 -62 -22 -35 -79 3 -71 47 16 78 -46 9
-107 -121 -43 -91 -59 -155 -59 -241 0 -65 3 -81 20 -98 11 -11 20 -31 20 -45
0 -39 124 -154 205 -191 42 -19 55 -31 80 -78 17 -33 36 -56 46 -56 9 0 33 14
54 30 38 31 65 38 65 19 0 -5 5 -7 11 -4 5 4 3 -10 -5 -30 -13 -31 -13 -35 -2
-26 11 9 19 9 34 0 16 -10 23 -10 37 4 24 24 28 21 20 -14 -6 -28 -5 -30 14
-24 12 3 21 2 21 -4 0 -5 12 -4 28 5 40 21 43 18 27 -27 -12 -32 -12 -39 -2
-31 7 6 22 9 34 6 12 -3 31 0 43 6 22 12 23 11 17 -18 -5 -26 -4 -30 9 -25 13
5 15 1 9 -16 -6 -21 -4 -22 17 -16 12 4 32 15 42 24 18 15 19 15 14 -4 -3 -11
-9 -27 -12 -35 -5 -12 2 -16 30 -18 20 -1 43 3 50 9 11 9 14 5 14 -25 0 -40
-1 -39 53 -27 l38 9 -7 -35 -7 -35 39 3 c22 2 42 8 46 13 4 6 10 7 14 3 4 -4
2 -13 -4 -19 -14 -14 -16 -58 -3 -58 5 0 25 7 44 15 49 20 50 20 44 -19 -5
-33 -4 -35 26 -34 18 0 40 7 50 16 22 19 35 7 19 -18 -16 -27 -16 -64 1 -53 6
4 27 8 44 8 27 0 33 -4 33 -21 0 -30 45 -41 71 -19 10 10 23 14 28 10 16 -9
13 -45 -4 -51 -8 -4 -15 -13 -15 -21 0 -13 3 -13 15 -3 8 7 21 10 29 7 7 -3
24 2 36 10 19 13 24 13 31 2 12 -19 11 -25 -6 -39 -8 -7 -15 -19 -15 -27 0
-12 7 -14 33 -9 17 4 34 11 35 16 6 16 32 12 32 -5 0 -39 -92 -195 -114 -195
-14 0 -36 63 -30 87 6 28 5 28 -24 -7 l-30 -35 -26 24 c-14 14 -26 31 -26 38
0 10 -7 12 -21 8 -27 -9 -69 13 -69 36 0 15 -4 16 -29 6 -26 -10 -32 -8 -50
14 -11 13 -18 30 -16 37 5 15 -7 16 -22 1 -13 -13 -62 17 -63 39 0 16 -10 15
-31 -4 -16 -14 -18 -14 -24 5 -7 23 -40 28 -49 9 -3 -7 -2 0 1 16 5 25 4 28
-12 22 -11 -4 -22 -2 -26 5 -8 14 -39 5 -39 -11 0 -7 8 -9 20 -5 16 5 20 2 20
-19 0 -16 -6 -26 -15 -26 -8 0 -15 7 -15 15 0 8 -6 15 -14 15 -22 0 -28 17
-14 39 7 11 9 23 6 27 -14 13 -35 -5 -41 -35 l-6 -30 -31 29 c-16 15 -30 36
-31 47 0 15 -2 14 -10 -5 -10 -27 -29 -21 -29 10 0 11 -8 22 -20 25 -12 3 -20
14 -21 27 -1 17 -2 17 -6 4 -2 -10 -11 -18 -19 -18 -20 0 -29 27 -14 45 25 31
-16 79 -47 53 -17 -13 -33 3 -33 35 0 9 -5 17 -11 17 -7 0 -9 10 -5 26 5 17 3
23 -4 19 -5 -3 -10 -12 -10 -18 0 -7 -12 -20 -25 -30 l-25 -18 0 36 c0 24 -4
35 -15 35 -8 0 -15 5 -15 11 0 8 -5 8 -15 -1 -20 -17 -45 -5 -45 20 0 12 -6
28 -14 36 -13 12 -18 10 -40 -19 -16 -19 -26 -26 -26 -17 0 10 -8 15 -22 14
-43 -3 -78 -16 -78 -30 0 -23 -27 -16 -49 14 l-21 27 11 -33 c14 -42 6 -50
-31 -29 l-30 18 6 -31 c8 -39 -14 -40 -62 -4 -35 27 -41 26 -25 -4 4 -9 11
-29 15 -44 5 -23 3 -28 -12 -28 -10 0 -27 7 -38 15 -10 8 -22 15 -26 15 -13 0
-9 -35 8 -75 17 -42 22 -40 -52 -19 -15 4 -23 -1 -32 -22 -11 -22 -10 -30 4
-45 22 -25 14 -32 -21 -19 -20 7 -31 8 -39 0 -5 -5 -20 -10 -32 -10 -22 0 -21
-2 11 -37 19 -21 35 -41 35 -45 0 -9 -89 2 -112 13 -27 14 -48 10 -48 -8 0 -9
2 -14 5 -11 6 5 95 -76 95 -87 0 -4 -24 -4 -54 -1 -30 4 -57 3 -60 -2 -6 -10
37 -54 72 -71 43 -23 25 -34 -44 -26 l-67 7 23 -32 c12 -17 20 -34 16 -37 -3
-3 -25 0 -48 7 -24 6 -58 14 -76 17 -23 4 -34 12 -38 29 -3 13 -12 24 -20 24
-8 0 -13 5 -11 11 1 6 -5 13 -13 14 -40 8 -100 44 -100 60 0 4 -8 13 -17 20
-15 11 -15 13 6 25 16 8 26 9 30 2 4 -6 12 -7 20 -3 10 6 9 10 -4 15 -9 3 -15
12 -12 20 3 8 -2 16 -15 19 -24 7 -21 35 5 51 14 9 21 7 31 -6 14 -19 46 -24
46 -8 0 6 -7 13 -15 17 -22 8 -44 64 -34 85 7 14 15 15 41 7 43 -12 44 -12 26
9 -18 20 -19 103 -1 109 7 3 20 -5 30 -16 9 -12 23 -21 31 -21 8 0 6 7 -8 22
-24 26 -26 48 -5 48 8 0 15 5 15 11 0 5 -4 8 -9 4 -18 -11 -23 17 -7 33 16 16
18 16 30 0 7 -10 21 -18 30 -18 13 0 15 4 6 19 -13 25 3 69 27 78 10 4 23 13
29 21 8 11 19 13 40 8 l29 -8 -22 24 c-40 42 -19 99 26 71 13 -8 16 -5 16 21
0 28 3 31 30 31 17 0 33 4 37 10 9 13 65 -17 130 -67 26 -21 50 -38 53 -38 13
0 3 27 -15 43 -16 14 -20 29 -20 84 0 87 -26 141 -90 188 -26 19 -58 35 -71
35 -12 0 -49 7 -80 16 -57 16 -129 13 -129 -5 0 -5 -9 -11 -20 -14 -14 -4 -19
-12 -18 -28 2 -18 -4 -26 -29 -34 -17 -6 -40 -18 -51 -28 -10 -9 -21 -14 -25
-11 -3 3 -3 -3 0 -15 3 -12 10 -21 17 -21 6 0 17 -9 24 -20 7 -11 18 -17 27
-14 9 4 15 0 15 -9 0 -8 5 -17 12 -19 7 -3 9 -12 5 -22 -5 -13 -14 -16 -41
-10 -30 5 -35 3 -35 -12 0 -11 -3 -43 -7 -73 -6 -48 -8 -52 -20 -37 -12 17
-14 15 -28 -19 -9 -21 -16 -41 -16 -45 0 -9 -36 -20 -67 -20 -13 0 -23 -4 -23
-10 0 -15 -39 -12 -83 7 -37 17 -39 19 -34 56 l5 37 -19 -24 c-11 -14 -19 -40
-19 -63 0 -38 2 -40 31 -40 32 0 55 -21 39 -37 -6 -6 -29 3 -60 22 l-51 32
-29 -63 c-50 -110 -65 -168 -65 -247 0 -43 4 -75 10 -75 5 0 8 8 7 18 -2 9 4
20 12 23 9 3 16 14 16 23 0 9 7 26 15 38 12 16 12 22 2 26 -7 4 -8 6 -1 6 6 1
17 -6 24 -14 7 -8 20 -15 29 -15 9 0 22 -5 29 -12 7 -7 12 -8 12 -2 0 5 8 -3
18 -18 15 -23 17 -39 12 -85 -4 -32 -6 -85 -4 -118 2 -49 -1 -62 -17 -73 -26
-18 -24 -32 10 -69 31 -34 82 -49 131 -39 29 5 41 -6 20 -19 -6 -4 -24 -32
-41 -63 -17 -31 -50 -93 -74 -137 -74 -133 -112 -217 -123 -270 -6 -27 -9 -51
-8 -53 4 -3 20 39 34 88 8 29 9 18 8 -60 -1 -94 -1 -96 33 -139 28 -36 256
-201 277 -201 3 0 61 -33 128 -73 66 -41 321 -190 566 -332 245 -142 621 -360
835 -485 215 -125 505 -287 645 -361 140 -73 258 -138 262 -144 3 -5 32 -44
64 -86 59 -77 139 -136 271 -203 51 -25 56 -31 68 -94 6 -30 10 -33 38 -30 44
4 47 36 8 97 -17 26 -31 54 -31 62 0 28 -37 75 -61 76 -13 1 -30 11 -38 23 -7
11 -22 20 -33 20 -11 0 -32 13 -47 29 -15 16 -61 44 -102 62 -41 18 -85 43
-100 56 -14 13 -28 23 -32 23 -4 0 -68 40 -141 89 -74 49 -142 91 -152 93 -10
2 -28 18 -39 35 -13 21 -26 30 -36 27 -20 -6 -45 47 -35 73 6 14 11 10 26 -22
l18 -40 1 40 c1 23 -4 46 -9 51 -15 15 -2 44 19 44 9 0 22 5 28 11 12 12 36 2
246 -108 l88 -45 23 21 c12 11 28 21 34 21 7 0 12 5 12 11 0 8 14 10 39 6 l39
-5 -10 36 c-9 32 -7 38 11 53 12 10 21 22 21 29 0 24 51 97 75 108 17 8 25 20
25 37 0 22 4 25 38 26 20 1 44 0 52 -1 12 -2 11 2 -4 18 -26 29 -11 45 36 39
34 -5 40 -2 48 18 7 18 18 23 62 27 43 5 58 2 83 -16 17 -11 37 -21 45 -22 8
-1 37 -16 64 -35 27 -18 68 -42 90 -53 39 -20 41 -23 41 -66 0 -39 -3 -45 -23
-48 -12 -2 -20 -8 -16 -13 3 -5 10 -7 15 -3 18 11 46 -25 41 -52 -3 -17 3 -33
18 -49 22 -24 23 -25 6 -68 -43 -113 -172 -246 -239 -247 -33 0 -77 40 -77 69
0 27 -15 34 -38 20 -15 -10 -19 -20 -15 -48 4 -31 1 -38 -20 -50 -23 -12 -24
-16 -12 -35 9 -13 13 -43 12 -77 -2 -44 2 -62 17 -78 17 -19 17 -23 3 -44 -14
-22 -13 -24 24 -55 22 -18 39 -37 39 -42 0 -5 5 -21 12 -37 6 -15 13 -57 15
-93 2 -36 5 -76 6 -90 2 -22 -2 -25 -26 -23 -23 1 -26 -1 -18 -15 5 -10 34
-41 64 -69 68 -65 114 -80 191 -65 45 9 65 8 103 -4 78 -24 152 -28 173 -9 10
9 21 15 26 14 14 -3 74 25 74 34 0 4 5 5 11 1 6 -3 14 -2 18 3 3 5 21 19 38
32 18 12 32 27 30 34 -1 7 4 11 11 10 6 -2 12 2 12 7 0 6 9 19 21 31 11 11 21
29 22 40 1 10 4 19 8 19 4 0 9 12 12 28 3 15 9 36 13 46 5 14 4 17 -4 12 -8
-5 -12 2 -11 21 0 25 1 26 10 8 7 -16 8 -14 3 10 -3 17 -10 32 -15 33 -5 2 -9
13 -9 23 0 11 -22 42 -50 69 -51 50 -58 69 -40 115 5 14 21 69 35 122 l25 97
-25 21 c-22 18 -24 24 -16 53 12 42 -4 50 -49 27 -20 -10 -42 -14 -61 -10 -25
6 -29 4 -29 -14 0 -12 -5 -21 -11 -21 -5 0 -8 4 -4 9 7 13 -26 81 -40 81 -34
0 -45 -51 -20 -87 13 -18 13 -26 -2 -69 -31 -93 -53 -99 -53 -14 0 47 -3 60
-15 60 -8 0 -15 3 -16 8 0 4 -2 19 -4 34 -2 16 2 29 11 32 8 3 14 14 14 24 0
23 54 73 140 130 71 48 106 50 142 12 10 -11 23 -20 28 -20 5 0 14 -16 21 -35
14 -38 24 -44 33 -20 5 13 10 14 28 4 25 -14 325 -19 393 -7 82 14 179 40 209
55 70 35 146 87 146 98 0 7 7 15 15 19 8 3 22 23 31 46 9 22 20 40 25 40 5 0
9 6 9 13 0 7 23 58 50 113 50 98 91 219 130 387 23 101 25 133 8 140 -9 3 -8
9 5 19 14 10 19 32 23 93 7 99 10 111 27 97 16 -14 78 -7 88 10 6 9 14 9 36
-2 34 -18 78 -47 116 -77 48 -38 100 -47 178 -29 96 22 139 46 227 131 111
105 188 237 242 415 23 74 44 163 47 196 5 57 4 62 -16 69 -23 7 -23 32 -1 27
11 -3 11 0 1 12 -14 17 -5 40 11 30 6 -4 8 -2 4 4 -10 16 -44 10 -63 -10 -15
-17 -17 -17 -29 0 -12 16 -13 15 -14 -5 0 -26 -12 -35 -34 -27 -10 4 -16 18
-16 40 0 44 -23 54 -55 24 -21 -19 -28 -21 -47 -12 l-23 11 23 0 c13 1 20 5
17 11 -4 6 1 22 10 36 9 14 14 28 12 31 -3 2 2 13 11 22 13 13 21 15 31 7 11
-8 13 -8 8 1 -8 13 29 53 50 53 7 0 13 -6 13 -12 0 -9 3 -9 9 1 8 12 14 13 36
3 39 -18 45 -15 31 18 -22 54 -102 109 -189 131 -50 12 -59 23 -28 32 48 12
37 266 -13 299 -6 4 -11 15 -11 24 0 18 -10 25 -70 50 -22 9 -34 18 -27 21 22
8 13 21 -25 34 -21 7 -45 22 -55 34 -10 13 -34 26 -53 29 -21 4 -41 17 -51 31
-8 12 -26 26 -40 29 -13 4 -24 12 -24 19 0 6 -26 23 -56 37 -31 14 -59 30 -62
36 -4 5 -23 18 -43 27 -20 9 -39 23 -42 31 -3 7 -24 16 -46 20 -31 5 -41 11
-41 24 0 14 -12 21 -47 28 -38 7 -48 13 -48 29 0 16 -10 22 -48 28 -44 9 -66
27 -32 27 35 0 11 18 -40 30 -46 11 -54 16 -49 32 4 13 0 18 -13 18 -29 0 -74
24 -69 36 2 6 -11 16 -30 23 -19 7 -32 16 -29 20 2 5 -7 6 -20 3 -20 -3 -24
-1 -19 12 4 10 1 16 -8 16 -8 0 -25 11 -38 24 -12 14 -36 28 -52 31 -17 4 -34
17 -40 31 -8 17 -19 24 -39 24 -19 0 -34 8 -45 25 -9 14 -25 25 -36 25 -11 0
-32 14 -46 30 -15 17 -36 30 -47 30 -11 0 -32 14 -47 30 -17 19 -36 30 -52 30
-19 0 -29 7 -36 25 -7 19 -17 25 -40 25 -23 0 -33 6 -39 24 -9 23 -36 36 -78
36 -16 0 -23 6 -23 20 0 22 -5 25 -61 34 -30 5 -36 10 -32 26 4 14 -1 20 -21
25 -14 3 -37 7 -50 10 -15 3 -23 11 -22 22 1 12 -11 20 -41 27 -43 11 -67 26
-42 26 31 1 -26 30 -59 30 -25 0 -33 4 -29 14 8 20 -12 34 -59 42 -33 5 -40
10 -40 27 1 17 -6 23 -29 25 -16 1 -41 5 -55 8 -22 5 -23 7 -7 15 27 15 10 29
-34 29 -27 0 -45 6 -56 20 -10 11 -25 20 -33 20 -9 0 -25 7 -36 15 -23 17 -95
20 -112 3 -23 -23 -40 -17 -47 18 -3 20 -15 38 -28 45 -12 7 -25 17 -29 23 -9
13 -30 -13 -22 -26 11 -17 -77 25 -104 50 -11 10 -11 12 0 12 9 0 9 3 2 8 -22
14 -20 37 7 65 20 21 26 33 19 45 -4 10 -14 32 -20 50 -13 35 -31 45 -23 12 8
-29 -1 -25 -64 30 -32 27 -66 57 -75 65 -24 21 -31 19 -18 -5 6 -11 16 -20 23
-20 21 0 87 -79 87 -104 0 -15 -31 -3 -65 24 -21 17 -39 30 -40 30 -1 0 8 -21
21 -47 13 -25 22 -48 20 -51 -4 -4 -36 13 -104 56 -21 14 -21 11 8 -43 40 -76
28 -98 -28 -51 l-29 25 2 -49 c2 -26 6 -53 9 -59 10 -15 -17 -14 -32 1 -9 9
-17 7 -35 -10 -13 -12 -29 -22 -35 -22 -7 0 2 -13 20 -29 37 -33 34 -48 -5
-30 -21 10 -31 9 -51 -4 -15 -10 -27 -13 -31 -7 -3 6 -14 10 -23 10 -11 0 -3
-12 26 -38 49 -44 56 -67 15 -51 -14 5 -33 7 -40 5 -7 -3 -40 14 -73 38 -55
40 -79 54 -181 100 -46 21 -82 96 -46 96 28 0 109 -36 118 -52 5 -10 14 -18
20 -18 6 0 23 -8 37 -18 46 -31 102 -64 102 -59 0 3 -23 20 -51 37 -36 24 -49
38 -46 51 3 12 -3 18 -23 22 -15 4 -49 20 -74 37 -38 26 -45 35 -35 46 8 10 8
18 1 27 -17 20 3 45 25 31 10 -7 17 -18 17 -27 -1 -9 5 -13 18 -9 10 2 26 -2
36 -10 27 -23 40 -29 46 -20 3 5 -17 23 -44 40 -55 34 -61 48 -27 61 29 12 61
47 52 60 -3 6 1 14 10 17 11 5 14 14 9 39 -8 47 15 51 84 14 l57 -30 -42 40
c-53 49 -55 68 -8 77 19 3 35 10 35 15 0 5 11 9 25 9 14 0 25 -4 25 -9 0 -5 7
-12 16 -15 8 -3 12 -2 9 4 -9 14 -1 13 40 -7 68 -32 60 13 -8 47 -36 18 -56
22 -98 18 -46 -5 -50 -4 -34 8 10 7 23 15 29 18 6 3 1 13 -13 24 l-24 19 27
18 c14 10 46 20 71 23 25 2 45 9 45 13 0 5 -4 9 -9 9 -6 0 -22 11 -36 25 -52
47 -176 71 -260 50z m-91 -280 c-4 -8 -10 -15 -15 -15 -4 0 -6 7 -3 15 4 8 10
15 15 15 4 0 6 -7 3 -15z m116 -164 c0 -11 -31 -24 -39 -16 -3 3 1 10 9 15 19
12 30 12 30 1z m-99 -34 c-10 -9 -11 -8 -5 6 3 10 9 15 12 12 3 -3 0 -11 -7
-18z m569 -207 c0 -5 -5 -10 -11 -10 -5 0 -7 5 -4 10 3 6 8 10 11 10 2 0 4 -4
4 -10z m-605 -50 c64 -41 85 -50 85 -40 0 16 41 2 65 -22 20 -19 20 -19 -9
-12 -21 5 -27 4 -22 -5 4 -6 13 -11 20 -11 7 0 21 -9 31 -20 10 -11 24 -20 31
-20 7 0 29 -13 47 -30 19 -16 39 -30 44 -30 6 0 18 -9 28 -20 19 -21 19 -21
-21 -19 -40 1 -114 26 -125 43 -4 4 -12 5 -18 1 -7 -4 -31 6 -53 22 -28 19
-36 29 -25 31 9 2 25 -6 36 -17 20 -20 41 -28 41 -16 0 15 -68 64 -89 65 -37
0 -107 37 -126 66 -33 50 3 70 60 34z m664 -7 c3 -4 28 -19 55 -33 28 -14 70
-38 94 -54 24 -16 57 -29 73 -29 19 0 29 -6 29 -15 0 -8 6 -12 13 -9 37 14 57
18 57 11 0 -8 -18 -66 -31 -101 -10 -28 2 -30 18 -4 14 23 83 34 83 14 0 -8
-7 -30 -15 -50 -18 -43 -19 -48 -2 -35 13 11 37 15 75 13 l24 -1 -35 -63 c-19
-35 -46 -76 -60 -91 -23 -25 -28 -26 -49 -15 -13 7 -27 12 -32 11 -5 -2 -6 12
-3 30 l7 33 -21 -24 c-17 -21 -22 -22 -29 -10 -29 46 -34 49 -72 43 -37 -6
-48 2 -29 22 5 5 14 27 21 49 7 22 16 42 19 45 9 7 51 76 51 84 0 18 -18 2
-28 -26 -15 -42 -89 -128 -109 -128 -8 0 -28 11 -44 24 -15 13 -46 32 -68 42
-22 11 -42 27 -45 37 -2 10 -10 17 -18 16 -23 -3 -42 1 -35 7 11 11 -14 46
-28 40 -7 -2 -21 6 -30 20 -14 21 -14 31 -4 62 13 41 44 80 74 93 22 10 85 4
94 -8z m-733 -98 c-3 -8 -1 -15 4 -15 6 0 10 7 10 15 0 8 2 15 5 15 6 0 98
-60 135 -88 14 -11 39 -27 57 -36 52 -26 123 -77 123 -87 0 -17 -55 -8 -95 16
-22 13 -69 41 -105 61 -36 20 -84 49 -107 65 -23 16 -46 29 -51 29 -5 0 -12 9
-15 20 -4 16 0 20 20 20 18 0 24 -4 19 -15z m-85 -47 c7 -83 6 -91 -8 -73 -15
22 -18 85 -3 85 6 0 10 -6 11 -12z m1263 -3 c-4 -8 -13 -15 -21 -15 -13 0 -13
3 -3 15 7 8 16 15 21 15 5 0 6 -7 3 -15z m-1134 -64 c0 -5 15 -16 33 -25 17
-9 39 -20 47 -25 8 -5 36 -18 63 -31 46 -21 61 -40 32 -40 -8 0 -15 5 -15 10
0 6 -5 10 -12 10 -16 0 -100 41 -116 57 -7 7 -19 13 -26 13 -7 0 -21 9 -31 20
-18 19 -17 20 3 20 12 0 22 -4 22 -9z m-277 -23 c12 -6 29 -14 37 -18 8 -4 16
-19 17 -33 2 -26 1 -26 -23 -11 -13 9 -22 20 -19 24 3 4 -9 13 -25 19 -17 5
-30 15 -30 20 0 14 15 14 43 -1z m786 -58 c14 -10 42 -25 61 -35 100 -48 159
-89 147 -102 -7 -6 -93 33 -126 59 -13 10 -33 18 -44 18 -22 0 -117 66 -117
82 0 14 48 1 79 -22z m-1091 1 c3 -8 -1 -12 -9 -9 -7 2 -15 10 -17 17 -3 8 1
12 9 9 7 -2 15 -10 17 -17z m1794 -65 c10 -1 20 -5 23 -8 6 -6 -26 -60 -64
-110 -12 -14 -21 -31 -21 -36 0 -21 -31 -20 -56 1 l-26 23 20 41 c32 63 72
105 91 97 9 -4 24 -7 33 -8z m110 -41 c3 -3 0 -20 -6 -38 -31 -87 -136 -193
-136 -137 0 10 -4 21 -9 24 -26 17 37 113 91 139 35 17 51 20 60 12z m82 -61
c17 -7 12 -26 -18 -66 -27 -38 -14 -46 19 -13 16 15 33 24 42 20 9 -3 22 0 29
6 8 6 14 8 15 3 1 -5 5 2 9 16 7 22 8 21 9 -12 1 -21 -3 -38 -7 -38 -7 0 -42
-63 -42 -76 0 -2 13 5 28 16 38 28 102 39 102 17 0 -9 -4 -18 -9 -21 -5 -3
-18 -25 -30 -48 -24 -51 -65 -98 -83 -98 -7 0 -19 14 -27 31 -12 28 -12 35 3
60 9 16 15 29 13 29 -9 0 -47 -38 -47 -48 0 -12 -29 -24 -41 -16 -5 3 -9 12
-9 20 0 8 -5 14 -11 14 -11 0 -9 25 6 65 6 19 6 19 -12 -1 -19 -22 -54 -44
-72 -44 -5 0 -12 14 -16 31 -5 23 -1 39 19 69 14 22 26 43 26 48 0 8 29 25 60
35 22 8 27 8 44 1z m-519 -34 c3 -5 1 -10 -4 -10 -6 0 -11 5 -11 10 0 6 2 10
4 10 3 0 8 -4 11 -10z m-278 -76 c-3 -3 -12 -4 -19 -1 -8 3 -5 6 6 6 11 1 17
-2 13 -5z m-1827 -64 c0 -5 -5 -10 -11 -10 -5 0 -7 5 -4 10 3 6 8 10 11 10 2
0 4 -4 4 -10z m2898 -5 c10 -8 -79 -132 -106 -147 -30 -16 -51 -10 -37 12 3 6
-1 7 -10 4 -19 -8 -12 14 21 67 31 50 73 79 104 72 14 -3 26 -7 28 -8z m-3018
-15 c0 -5 -7 -10 -16 -10 -8 0 -12 5 -9 10 3 6 10 10 16 10 5 0 9 -4 9 -10z
m1118 -35 c-3 -3 -9 2 -12 12 -6 14 -5 15 5 6 7 -7 10 -15 7 -18z m1982 -11
c0 -17 -44 -97 -67 -123 -29 -31 -50 -34 -77 -12 -12 10 -13 17 -5 27 6 7 8
17 5 22 -8 14 31 65 61 78 29 13 83 18 83 8z m110 -10 c0 -9 -5 -14 -12 -12
-18 6 -21 28 -4 28 9 0 16 -7 16 -16z m-2050 -14 c0 -5 -4 -10 -10 -10 -5 0
-10 5 -10 10 0 6 5 10 10 10 6 0 10 -4 10 -10z m150 -4 c0 -3 -4 -8 -10 -11
-5 -3 -10 -1 -10 4 0 6 5 11 10 11 6 0 10 -2 10 -4z m1878 -4 c14 -10 7 -32
-31 -92 -44 -71 -96 -102 -110 -66 -10 27 13 86 41 103 15 10 36 27 47 40 22
24 33 27 53 15z m105 -70 c-4 -9 -16 -30 -27 -45 -17 -23 -18 -29 -6 -37 9 -5
21 -3 34 6 27 19 66 18 66 -1 0 -17 -61 -115 -81 -132 -8 -6 -25 -14 -38 -18
-22 -7 -23 -5 -17 21 12 51 23 114 19 114 -2 0 -17 -15 -33 -34 -32 -36 -67
-51 -73 -33 -8 24 11 85 32 106 28 28 114 80 123 74 4 -2 4 -11 1 -21z m-2339
-26 c-6 -26 19 -48 44 -39 8 3 16 -4 19 -16 3 -13 23 -30 48 -41 24 -11 49
-26 57 -33 20 -20 121 -87 131 -87 17 0 72 -53 69 -67 -2 -7 4 -13 13 -13 25
0 55 19 55 35 0 8 7 15 15 15 16 0 20 -21 6 -35 -5 -6 -12 -27 -15 -47 -8 -43
4 -49 53 -23 35 18 43 11 35 -30 -5 -27 -3 -32 13 -30 10 1 28 7 41 14 25 13
42 7 42 -15 0 -8 -3 -13 -7 -11 -5 3 -8 -5 -8 -18 0 -21 4 -23 41 -20 23 1 47
6 53 9 14 9 14 -7 0 -21 -6 -6 -8 -21 -4 -33 5 -15 10 -19 17 -12 6 6 21 7 40
1 40 -11 40 -12 28 -44 -9 -24 -8 -26 7 -20 27 12 67 13 79 4 12 -10 7 -59 -6
-59 -4 0 -10 -11 -12 -24 -4 -17 -1 -23 9 -19 7 3 13 12 13 21 0 8 3 13 6 9 4
-3 20 1 37 9 27 14 31 14 46 0 13 -13 13 -20 3 -36 -6 -11 -12 -22 -12 -25 0
-12 55 -4 72 11 16 16 18 16 24 0 6 -16 3 -34 -11 -68 -6 -15 -3 -16 27 -8 18
6 38 17 44 25 23 31 37 17 31 -29 -7 -48 8 -64 41 -47 9 4 29 11 45 15 20 5
27 3 27 -9 0 -8 -6 -14 -12 -12 -8 1 -14 -11 -16 -30 l-3 -32 52 6 51 6 -6
-30 c-7 -32 15 -65 29 -43 3 6 11 8 16 5 5 -4 9 -1 9 4 0 6 7 11 16 11 13 0
15 -7 11 -35 -6 -38 -2 -40 56 -36 31 3 44 -18 29 -46 -9 -16 -5 -18 41 -18
55 0 57 -2 41 -54 -6 -21 -5 -23 12 -16 10 4 33 10 51 13 28 4 32 1 35 -24 3
-26 7 -29 46 -32 33 -2 42 -7 42 -21 0 -14 11 -21 48 -28 42 -7 47 -11 44 -32
-2 -15 0 -21 8 -16 6 4 17 1 25 -5 9 -7 26 -9 41 -6 24 6 26 5 22 -18 -4 -18
-1 -26 8 -26 8 0 14 -4 14 -10 0 -14 43 -13 58 2 16 16 28 2 13 -16 -13 -16 1
-32 19 -21 6 3 10 -4 10 -16 0 -17 5 -20 24 -17 18 4 23 1 19 -9 -4 -9 3 -16
16 -20 11 -3 21 -12 21 -20 0 -10 9 -13 28 -11 15 2 27 1 27 -2 2 -14 58 -60
67 -54 5 3 25 -8 43 -26 23 -22 40 -31 54 -27 12 3 22 -1 25 -10 4 -9 13 -12
27 -8 18 6 20 4 14 -14 -5 -16 -2 -21 13 -21 11 0 25 -7 33 -16 7 -8 21 -13
31 -11 15 4 17 1 12 -19 -5 -21 -3 -24 21 -24 24 0 27 -3 22 -26 -4 -20 -1
-25 12 -21 9 2 22 -2 29 -9 7 -7 19 -11 27 -8 8 4 15 3 15 -1 0 -13 -51 -109
-67 -127 -17 -20 -43 -24 -43 -8 0 6 -11 10 -25 10 -14 0 -25 5 -25 11 0 6 -9
8 -21 4 -19 -6 -20 -4 -14 24 7 34 -2 39 -36 21 -15 -8 -23 -7 -35 5 -9 9 -14
19 -10 22 8 8 -25 32 -46 33 -9 0 -29 14 -45 30 -15 17 -34 30 -41 30 -7 0
-27 14 -45 30 -18 17 -39 29 -48 27 -9 -3 -23 10 -38 35 -18 31 -25 37 -39 29
-13 -8 -22 -4 -40 17 -15 17 -22 21 -18 10 3 -10 1 -18 -4 -18 -6 0 -10 9 -10
20 0 15 -7 20 -25 20 -14 0 -25 5 -25 10 0 6 -6 10 -14 10 -8 0 -18 9 -21 20
-4 11 -15 20 -26 20 -11 0 -22 7 -25 15 -4 8 -10 13 -15 10 -4 -3 -13 4 -19
16 -8 14 -18 19 -31 16 -12 -3 -22 0 -26 9 -3 8 -12 14 -19 14 -8 0 -17 7 -20
15 -4 8 -15 15 -25 15 -10 0 -19 7 -19 15 0 8 -9 15 -20 15 -10 0 -23 7 -28
16 -5 9 -12 15 -15 15 -22 -3 -27 1 -27 20 0 18 -2 20 -16 8 -13 -10 -17 -10
-25 2 -5 8 -9 24 -9 37 0 12 -4 22 -10 22 -5 0 -10 8 -10 17 0 14 -3 13 -23
-5 -21 -20 -25 -21 -45 -6 -12 8 -19 20 -16 26 9 15 -16 28 -54 28 -26 0 -32
4 -30 18 2 11 -3 16 -13 14 -9 -1 -19 4 -22 11 -3 7 -23 19 -46 27 -28 9 -41
19 -41 32 0 10 -4 18 -10 18 -5 0 -10 -4 -10 -10 0 -5 -7 -10 -15 -10 -8 0
-15 7 -15 16 0 9 -9 18 -20 21 -11 3 -20 10 -20 15 0 5 -5 6 -10 3 -15 -9 -42
15 -36 32 3 7 1 13 -4 13 -6 0 -10 -4 -10 -10 0 -22 -30 -8 -36 16 -5 21 -11
24 -31 19 -20 -5 -26 -1 -34 25 -6 17 -16 29 -23 28 -6 -1 -22 2 -34 6 -19 6
-23 14 -19 32 5 25 -1 28 -57 24 -26 -2 -28 1 -24 24 4 18 1 26 -8 26 -8 0
-14 8 -14 18 -1 16 -1 16 -11 0 -17 -29 -48 -22 -65 16 -15 31 -19 33 -47 25
-46 -13 -70 5 -62 47 7 41 4 42 -40 8 -37 -28 -40 -26 -50 29 -7 38 -22 46
-44 25 -10 -11 -16 -8 -31 12 -10 13 -16 28 -14 32 11 17 -7 27 -31 18 -20 -7
-25 -6 -25 5 0 9 -6 25 -12 38 -7 12 -13 23 -14 24 -2 9 -55 -25 -59 -39 -3
-9 -13 -22 -22 -30 -14 -11 -15 -10 -8 12 4 14 11 26 16 28 4 2 3 14 -3 27 -8
19 -16 23 -34 19 -16 -4 -30 1 -48 19 -14 14 -28 22 -31 19 -3 -4 -9 -2 -13 4
-4 5 -36 31 -72 56 -36 26 -70 52 -77 58 -23 19 -24 10 -3 -20 12 -17 16 -30
10 -30 -15 0 -70 58 -70 75 0 20 -36 46 -54 39 -26 -10 -63 21 -64 53 -2 52
36 117 88 151 27 18 56 32 64 32 9 0 16 5 16 10 0 6 2 10 5 10 3 0 3 -11 -1
-24z m466 -66 c0 -5 -2 -10 -4 -10 -3 0 -8 5 -11 10 -3 6 -1 10 4 10 6 0 11
-4 11 -10z m2035 -44 c-49 -91 -90 -141 -118 -143 -26 -2 -27 -1 -21 40 10 63
21 86 46 97 13 6 38 22 57 35 45 33 62 19 36 -29z m-3209 29 c4 -8 11 -15 18
-15 14 0 71 -28 106 -53 14 -9 67 -46 119 -80 98 -65 118 -87 81 -87 -26 0
-139 55 -155 76 -5 7 -41 29 -80 49 -38 19 -85 48 -102 65 -32 28 -44 48 -23
35 6 -3 10 1 10 9 0 20 19 21 26 1z m1263 -41 c14 -12 -19 -1 -35 12 -18 14
-18 14 6 3 14 -6 27 -13 29 -15z m1561 6 c0 -5 -4 -10 -10 -10 -5 0 -10 5 -10
10 0 6 5 10 10 10 6 0 10 -4 10 -10z m-3110 -20 c0 -11 -2 -20 -4 -20 -2 0 -6
9 -9 20 -3 11 -1 20 4 20 5 0 9 -9 9 -20z m445 0 c3 -5 1 -10 -4 -10 -6 0 -11
5 -11 10 0 6 2 10 4 10 3 0 8 -4 11 -10z m3135 -18 c0 -10 -19 -47 -42 -82
-36 -55 -48 -65 -73 -66 -16 -1 -25 0 -20 2 6 2 9 23 8 46 -1 48 11 78 32 78
8 0 15 4 15 9 0 9 44 29 68 30 6 1 12 -7 12 -17z m-370 -11 c0 -18 -18 -21
-30 -6 -10 13 -9 15 9 15 11 0 21 -4 21 -9z m450 -36 c10 -12 8 -23 -9 -58
-24 -50 -85 -112 -100 -103 -28 18 7 110 58 153 31 27 35 28 51 8z m-2280 -30
c-7 -9 -15 -13 -18 -10 -3 2 1 11 8 20 7 9 15 13 18 10 3 -2 -1 -11 -8 -20z
m-1070 0 c10 -12 10 -15 -4 -15 -9 0 -16 7 -16 15 0 8 2 15 4 15 2 0 9 -7 16
-15z m-303 -37 c-3 -8 -6 -5 -6 6 -1 11 2 17 5 13 3 -3 4 -12 1 -19z m373 1
c0 -5 -4 -9 -10 -9 -5 0 -10 7 -10 16 0 8 5 12 10 9 6 -3 10 -10 10 -16z
m3369 12 c11 -7 12 -13 4 -23 -6 -7 -16 -30 -22 -50 -7 -21 -17 -38 -22 -38
-4 0 -15 -13 -24 -30 -18 -35 -43 -39 -49 -7 -14 66 -13 80 5 98 11 11 22 19
27 19 4 0 18 9 32 20 29 23 30 23 49 11z m-3315 -36 c8 -8 22 -15 31 -15 9 0
46 -19 82 -42 52 -35 60 -44 43 -46 -12 -2 -32 4 -45 12 -13 9 -31 16 -40 16
-9 0 -26 11 -38 23 -12 13 -32 29 -44 36 -23 12 -31 31 -14 31 5 0 16 -7 25
-15z m3430 -3 c3 -5 -4 -21 -15 -38 -10 -16 -19 -36 -19 -44 0 -8 -9 -21 -20
-28 -12 -7 -25 -24 -30 -38 -12 -30 -39 -42 -51 -23 -20 32 -10 75 28 112 20
21 42 37 50 37 7 0 16 7 19 15 7 16 30 20 38 7z m-4381 -39 c-7 -3 -13 -11
-13 -19 0 -8 -7 -14 -15 -14 -8 0 -15 4 -15 9 0 11 43 40 50 34 3 -3 -1 -8 -7
-10z m912 -13 c3 -5 1 -10 -4 -10 -6 0 -11 5 -11 10 0 6 2 10 4 10 3 0 8 -4
11 -10z m470 -16 c14 -15 25 -31 25 -35 0 -5 11 -9 24 -9 14 0 28 -4 31 -10 4
-6 -7 -10 -24 -10 -17 0 -31 5 -31 10 0 6 -7 10 -15 10 -8 0 -15 5 -15 10 0 6
-10 10 -23 10 -39 0 -63 34 -29 43 30 8 33 7 57 -19z m3073 -29 c-6 -30 7 -33
22 -5 14 26 30 26 23 -1 -7 -26 16 -43 36 -26 12 10 13 8 6 -13 -4 -14 -13
-28 -19 -32 -6 -4 18 -6 52 -5 l64 2 -6 -27 c-6 -30 2 -36 22 -16 9 9 12 8 12
-5 0 -11 8 -17 24 -17 34 0 41 -16 21 -46 -16 -25 -16 -26 7 -19 12 4 24 12
26 16 2 5 12 4 23 -1 12 -7 19 -7 19 -1 0 6 7 8 16 4 8 -3 13 -11 11 -17 -18
-48 -20 -61 -6 -49 8 6 30 13 49 15 35 3 35 3 34 -34 -1 -39 4 -46 22 -28 5 5
27 7 48 3 36 -6 38 -7 32 -36 -6 -30 -6 -30 14 -12 11 10 20 13 20 7 0 -6 13
-13 30 -17 25 -5 29 -10 25 -28 -5 -18 -1 -22 20 -24 89 -6 84 -3 55 -51 l-20
-33 21 12 c15 7 24 8 32 0 6 -6 16 -7 28 -1 12 7 20 6 24 0 7 -12 -51 -134
-72 -152 -16 -13 -17 -58 -1 -58 18 0 95 -39 108 -55 9 -11 7 -18 -9 -34 -19
-19 -41 -54 -41 -65 0 -13 58 -5 64 9 6 17 42 20 51 4 4 -6 -7 -24 -24 -41
-17 -17 -31 -36 -31 -43 0 -7 -7 -16 -15 -19 -14 -5 -14 -8 1 -31 16 -24 15
-28 -10 -80 -14 -31 -26 -64 -26 -75 0 -11 -4 -20 -10 -20 -5 0 -22 -19 -36
-42 -15 -24 -27 -44 -28 -45 -1 -1 -30 -6 -65 -12 -59 -10 -65 -9 -81 11 -14
18 -15 29 -8 56 13 45 5 61 -25 55 -14 -3 -28 0 -31 6 -4 6 -11 11 -17 11 -17
0 -9 -24 16 -50 22 -23 24 -29 12 -53 -20 -44 -54 -33 -139 46 -22 20 -34 25
-41 18 -6 -6 -20 -11 -31 -11 -17 -1 -15 -4 9 -15 28 -14 44 -24 132 -87 22
-16 33 -31 33 -49 0 -50 -41 -45 -108 12 -18 16 -45 32 -60 35 -42 10 -109 47
-94 52 7 2 22 -4 32 -13 10 -9 24 -15 31 -13 18 6 -38 44 -97 65 -34 13 -58
31 -81 61 -18 24 -33 48 -33 52 0 12 80 -23 127 -55 40 -27 53 -31 53 -15 0 5
-20 21 -45 36 -51 29 -57 39 -20 32 13 -3 22 -2 20 2 -3 4 -18 10 -34 13 -20
4 -35 17 -46 36 -22 43 -20 65 6 58 16 -4 19 -2 15 10 -4 9 -2 21 2 27 5 6 12
25 15 42 5 27 3 31 -12 27 -9 -2 -33 -24 -52 -48 -37 -48 -58 -54 -100 -27
-88 57 -114 76 -117 83 -2 5 -8 9 -13 9 -24 0 -89 52 -89 71 0 16 -4 19 -17
15 -9 -4 -32 -1 -50 5 -33 10 -35 14 -31 50 l3 38 -32 -25 c-17 -13 -36 -24
-41 -24 -6 0 -13 23 -17 50 -7 53 -14 60 -35 35 -20 -25 -42 -13 -54 28 l-11
37 -37 -34 c-21 -19 -38 -32 -39 -28 -1 4 0 23 1 42 0 19 -6 44 -14 55 -16 20
-16 20 -22 -1 -10 -35 -51 -20 -59 22 -7 39 -15 42 -32 15 -8 -13 -19 -18 -33
-14 -16 4 -20 13 -20 44 0 41 -9 49 -30 24 -34 -41 -68 7 -51 72 14 53 50 90
95 98 41 8 44 2 21 -52 -22 -51 -19 -55 16 -22 17 16 37 29 44 29 8 0 21 7 30
16 21 21 31 10 18 -19 -19 -42 -33 -91 -27 -96 3 -3 18 8 33 24 35 40 81 61
92 43 13 -19 11 -28 -6 -34 -8 -4 -15 -17 -15 -30 0 -29 18 -24 73 18 44 35
55 31 37 -11 -17 -43 -7 -63 27 -55 16 4 33 11 40 16 18 14 21 -13 7 -56 -8
-21 -14 -40 -14 -42 0 -2 23 10 50 26 28 17 55 30 60 30 13 0 13 -57 0 -65 -5
-3 -10 -13 -10 -21 0 -11 8 -9 33 8 17 13 34 26 35 31 2 4 14 7 27 7 23 0 35
-17 35 -51 0 -23 8 -24 31 -4 15 14 18 14 32 1 9 -9 23 -13 31 -10 11 4 16 0
16 -12 0 -12 14 -26 38 -37 20 -10 54 -27 75 -38 49 -25 97 -35 97 -20 0 6
-10 16 -22 20 -21 8 -21 10 -5 16 14 6 15 10 6 21 -6 8 -20 14 -31 14 -10 0
-16 5 -13 10 3 6 2 10 -4 10 -5 0 -11 -5 -13 -10 -2 -6 -21 3 -43 19 -22 17
-45 31 -51 31 -23 0 -23 29 -1 45 28 20 39 19 87 -6 38 -20 44 -29 41 -56 -2
-16 13 -16 53 -2 27 9 40 7 91 -16 l60 -27 -40 -20 c-60 -31 -75 -47 -75 -84
0 -40 15 -52 30 -24 6 11 17 20 25 20 8 0 15 6 15 13 0 7 15 17 33 22 25 8 31
15 30 33 -3 20 2 22 50 23 28 1 44 3 35 6 -10 2 -18 9 -18 14 0 6 28 7 73 3
l72 -6 12 43 c12 47 4 70 -19 52 -7 -6 -25 -13 -40 -17 -28 -6 -28 -6 -28 40
0 45 -1 46 -18 31 -26 -24 -45 -21 -72 12 -23 26 -27 27 -42 14 -12 -11 -21
-12 -35 -4 -14 8 -15 11 -3 11 12 0 11 4 -4 15 -15 11 -17 22 -13 50 l6 36
-24 -23 c-14 -13 -25 -29 -25 -37 0 -11 -3 -11 -15 -1 -8 7 -15 26 -15 42 0
22 -4 29 -14 25 -8 -3 -17 0 -20 8 -3 8 -24 20 -48 27 -61 18 -110 48 -104 64
3 8 1 14 -4 14 -6 0 -6 10 0 26 15 38 12 40 -15 10 -14 -15 -30 -24 -35 -21
-6 3 -10 -1 -10 -11 0 -13 -4 -12 -19 7 -13 17 -17 34 -14 52 5 27 5 27 -21
16 -22 -10 -29 -10 -40 2 -24 26 -27 64 -6 85 45 45 77 63 109 64 20 0 23 -4
19 -25z m-1743 5 c3 -5 -1 -10 -9 -10 -9 0 -16 5 -16 10 0 6 4 10 9 10 6 0 13
-4 16 -10z m-2375 -69 c13 -26 13 -31 -4 -31 -13 0 -26 20 -26 41 0 16 19 10
30 -10z m1206 4 c19 -3 34 -14 37 -24 3 -12 18 -20 46 -25 35 -5 41 -10 41
-31 0 -35 -26 -32 -86 10 -27 19 -56 35 -64 35 -20 0 -40 19 -40 38 0 8 7 11
18 8 9 -2 31 -7 48 -11z m904 -71 c0 -8 -5 -12 -10 -9 -6 4 -8 11 -5 16 9 14
15 11 15 -7z m1120 -27 c0 -7 -18 -46 -39 -87 -29 -56 -45 -76 -65 -81 -72
-20 -42 103 39 158 46 32 65 35 65 10z m-2245 3 c-3 -5 -14 -10 -23 -10 -15 0
-15 2 -2 10 20 13 33 13 25 0z m109 -39 c3 -5 -1 -12 -10 -15 -27 -11 -37 -7
-24 9 14 17 26 19 34 6z m334 -2 c-2 -6 -8 -10 -13 -10 -5 0 -11 4 -13 10 -2
6 4 11 13 11 9 0 15 -5 13 -11z m1888 -24 c-16 -63 -100 -170 -137 -174 -4 -1
-5 25 -2 56 6 67 50 133 89 133 13 0 26 5 29 10 11 18 27 -1 21 -25z m-2132
-24 c7 -11 -14 -20 -32 -13 -11 4 -11 6 0 13 17 11 26 11 32 0z m86 -51 c0 -5
-9 -10 -21 -10 -11 0 -17 5 -14 10 3 6 13 10 21 10 8 0 14 -4 14 -10z m1622
-32 c-15 -15 -24 -6 -16 16 5 12 10 14 17 7 8 -8 8 -14 -1 -23z m1388 12 c0
-5 -2 -10 -4 -10 -3 0 -8 5 -11 10 -3 6 -1 10 4 10 6 0 11 -4 11 -10z m860
-125 c10 -12 10 -15 -3 -15 -8 0 -18 -10 -22 -22 -7 -22 -7 -22 -12 -3 -5 17
-7 16 -17 -9 -10 -26 -13 -27 -25 -12 -12 14 -12 16 3 10 11 -4 16 -1 16 11 0
10 -5 14 -12 10 -7 -4 1 5 17 19 35 30 38 31 55 11z m-1126 -10 c-8 -21 -44
-40 -44 -24 0 12 29 38 42 39 4 0 5 -7 2 -15z m-3644 -35 c24 -15 7 -19 -20
-5 -15 8 -19 14 -10 14 8 1 22 -3 30 -9z m-1134 -36 c-3 -9 -6 -20 -6 -25 0
-6 -4 -8 -9 -5 -12 8 -2 46 11 46 6 0 7 -7 4 -16z m999 -49 c14 -13 25 -35 25
-49 0 -31 24 -56 56 -56 15 0 24 -6 24 -15 0 -8 16 -21 36 -30 20 -8 52 -28
72 -43 47 -37 60 -41 97 -31 52 15 63 5 57 -51 -4 -44 -2 -50 12 -44 9 3 16
10 16 14 0 9 51 20 62 14 4 -3 -2 -19 -12 -37 -25 -40 -25 -57 -2 -57 31 0 72
-24 72 -42 0 -21 18 -23 45 -5 11 7 26 12 33 11 6 -1 17 -2 24 -3 9 -1 9 -4 0
-13 -7 -7 -12 -25 -12 -41 0 -28 1 -29 45 -25 46 3 49 1 45 -40 -1 -22 2 -23
42 -20 42 3 43 2 43 -27 0 -30 1 -30 49 -28 l48 3 -5 -30 c-6 -28 -5 -29 38
-36 41 -6 45 -9 45 -34 0 -27 1 -28 48 -24 48 3 48 3 44 -26 -3 -24 0 -30 21
-35 13 -4 33 -5 43 -3 15 2 20 -4 22 -30 3 -29 6 -32 25 -26 12 3 27 12 33 20
19 24 36 -8 28 -51 -6 -35 -6 -37 14 -26 28 15 72 14 72 -2 0 -7 -7 -22 -15
-33 -20 -27 -19 -34 10 -34 14 0 25 5 25 10 0 11 39 13 64 4 9 -3 16 -16 16
-28 0 -39 15 -51 45 -38 32 15 45 8 45 -23 0 -27 28 -40 66 -31 21 6 24 3 24
-19 0 -22 9 -30 33 -26 4 0 7 -4 7 -10 0 -7 9 -9 21 -6 15 4 22 -1 29 -18 11
-29 28 -40 60 -40 16 0 26 -6 28 -18 6 -29 38 -57 51 -44 7 7 19 1 40 -21 18
-20 39 -32 55 -32 14 0 26 -4 26 -9 0 -18 51 -63 66 -57 10 4 25 -5 41 -24 17
-21 34 -30 54 -30 16 0 29 -5 29 -12 0 -20 32 -48 55 -48 12 0 31 -13 43 -30
13 -17 32 -30 44 -30 12 0 32 -10 44 -21 13 -12 38 -24 56 -28 19 -4 33 -13
33 -21 1 -27 16 -40 46 -40 16 0 30 -6 30 -12 1 -7 2 -20 3 -28 1 -16 5 -17
61 -19 33 -1 35 -3 35 -35 0 -30 4 -35 30 -41 17 -4 30 -13 30 -22 0 -28 -32
-83 -67 -114 l-35 -30 -26 35 c-14 20 -31 36 -39 36 -8 0 -31 8 -52 19 -26 12
-44 15 -55 9 -16 -9 -18 -7 -20 22 -1 8 -11 16 -23 18 -12 2 -27 10 -33 18 -7
8 -19 14 -26 14 -8 0 -14 7 -14 15 0 8 -3 14 -7 14 -21 -3 -33 2 -33 16 0 8
-6 15 -14 15 -7 0 -19 7 -26 15 -7 8 -19 15 -27 15 -17 0 -43 24 -43 39 0 12
-35 33 -43 25 -5 -5 -55 22 -67 36 -3 3 -23 17 -45 30 -22 13 -44 30 -48 37
-4 7 -14 13 -21 13 -8 0 -16 7 -20 15 -3 8 -13 15 -22 15 -10 0 -14 -5 -10
-15 3 -8 1 -15 -4 -15 -14 0 -22 18 -11 25 17 10 0 35 -24 35 -12 0 -35 12
-50 26 -16 14 -45 35 -67 46 -21 11 -38 26 -38 33 0 8 -8 11 -19 8 -13 -3 -23
2 -30 16 -7 12 -17 21 -23 21 -6 0 -26 11 -44 25 -18 14 -36 25 -39 25 -4 0
-20 14 -37 30 -19 20 -40 30 -59 30 -19 0 -29 5 -29 15 0 17 -30 35 -59 35
-12 0 -21 4 -21 10 0 12 -79 90 -91 90 -5 0 -19 10 -30 21 -16 16 -23 18 -29
9 -6 -9 -17 -6 -42 14 -19 14 -41 26 -49 26 -8 0 -20 9 -27 20 -7 11 -19 20
-27 20 -8 0 -15 7 -15 16 0 13 -3 14 -15 4 -11 -9 -19 -7 -40 14 -14 14 -25
34 -25 44 0 15 -9 21 -37 25 -23 4 -43 15 -51 28 -10 16 -17 18 -25 10 -17
-17 -60 -14 -54 4 11 27 -16 60 -48 60 -23 0 -34 7 -50 35 -16 29 -25 34 -47
32 -16 -2 -28 1 -28 5 0 5 -6 18 -14 28 -11 16 -17 17 -29 7 -12 -10 -19 -5
-42 28 -21 30 -33 39 -47 34 -13 -4 -27 4 -45 25 -15 17 -37 31 -48 31 -25 0
-40 10 -48 33 -7 18 -9 18 -43 -2 l-36 -22 6 36 c6 33 5 35 -19 35 -14 0 -34
9 -44 19 -27 27 -57 42 -73 36 -16 -5 -45 16 -50 35 -5 23 -77 80 -93 73 -10
-3 -15 1 -15 11 0 9 -16 30 -35 47 -52 46 -49 87 10 147 25 24 45 49 45 55 0
16 31 47 47 47 8 0 25 -11 38 -25z m4250 -35 c3 -5 1 -10 -4 -10 -6 0 -11 5
-11 10 0 6 2 10 4 10 3 0 8 -4 11 -10z m-3856 -36 c3 -16 1 -17 -13 -5 -19 16
-21 34 -3 29 6 -3 14 -13 16 -24z m-1209 -60 c-6 -15 -10 -42 -9 -59 4 -61 -1
-97 -13 -93 -21 7 -28 57 -13 96 27 75 36 95 41 90 2 -3 0 -18 -6 -34z m1080
-2 c-7 -3 -16 2 -21 9 -16 25 -9 32 12 13 13 -12 16 -20 9 -22z m216 11 c-8
-8 -36 5 -36 17 0 7 6 7 21 0 11 -7 18 -14 15 -17z m404 -58 c0 -8 -4 -15 -10
-15 -5 0 -7 7 -4 15 4 8 8 15 10 15 2 0 4 -7 4 -15z m657 -125 c-6 -14 -19
-34 -29 -46 -10 -11 -18 -28 -18 -36 0 -16 -61 -88 -74 -88 -3 0 -6 30 -6 66
0 64 1 68 38 101 52 48 85 63 93 43 3 -8 1 -26 -4 -40z m103 -18 c0 -9 -7 -26
-15 -36 -17 -22 -20 -56 -6 -56 6 0 13 5 16 10 6 10 80 60 88 60 5 0 -8 -70
-18 -92 -4 -11 -3 -18 4 -18 6 0 11 3 11 8 0 10 58 42 76 42 18 0 18 -33 -1
-70 -9 -17 -14 -30 -12 -30 2 0 28 13 58 30 30 16 57 30 61 30 4 0 2 -15 -3
-32 -14 -49 -13 -50 41 -43 56 8 60 3 34 -46 -17 -34 -14 -47 7 -27 8 7 28 18
44 24 17 6 38 15 48 19 23 9 22 -8 -3 -63 l-19 -43 26 20 c14 12 33 21 42 21
9 0 22 9 29 20 15 25 36 17 23 -8 -11 -23 -3 -42 15 -35 8 3 14 0 14 -7 0 -8
11 -11 30 -8 26 4 30 1 30 -19 0 -24 14 -29 74 -24 23 2 27 -1 23 -13 -8 -21
21 -36 56 -29 24 5 27 2 27 -20 0 -19 7 -27 28 -33 15 -4 34 -6 43 -5 13 1 16
-6 15 -28 -1 -16 -5 -33 -9 -37 -4 -4 -7 -11 -7 -16 0 -4 9 1 20 12 25 25 78
27 87 4 3 -10 1 -31 -5 -47 l-11 -30 27 26 c15 14 34 27 42 29 8 2 21 9 28 16
18 16 29 15 36 -3 3 -10 -1 -15 -12 -16 -10 0 -12 -3 -5 -6 8 -3 11 -14 7 -29
-5 -18 -2 -24 9 -24 9 0 19 5 22 10 10 16 40 11 63 -10 12 -11 25 -20 30 -20
5 0 15 -7 22 -15 7 -8 27 -17 45 -21 18 -3 42 -17 54 -30 24 -27 41 -31 41 -9
0 20 10 19 26 -2 7 -10 15 -16 17 -13 12 12 -107 110 -133 110 -6 0 -10 9 -10
19 0 39 78 69 97 38 10 -18 57 -42 111 -58 57 -17 69 -33 37 -47 -18 -9 -25
-19 -25 -40 0 -16 -10 -41 -21 -56 -38 -48 -9 -42 32 7 23 26 45 45 49 42 5
-3 14 4 20 16 10 17 18 20 45 15 30 -6 33 -4 28 14 -3 11 -1 20 3 21 5 1 45 2
89 4 72 2 83 0 108 -21 16 -13 32 -24 37 -24 13 0 27 23 34 56 11 51 65 105
106 107 56 3 43 -31 -42 -114 -27 -26 -48 -54 -48 -62 0 -17 61 -69 103 -88
36 -16 37 -60 2 -79 -14 -7 -25 -17 -25 -21 0 -14 42 -17 67 -4 14 7 32 11 40
8 20 -8 12 -37 -12 -42 -28 -5 -36 -21 -30 -58 6 -34 -2 -42 -23 -21 -15 15
-15 3 0 -21 14 -23 -12 -102 -47 -141 -12 -14 -36 -46 -53 -71 -24 -36 -40
-49 -72 -57 -33 -8 -43 -7 -55 5 -18 17 -19 71 -3 125 8 27 8 42 1 49 -8 8
-13 3 -17 -18 -4 -15 -15 -39 -25 -53 -17 -21 -21 -22 -35 -10 -26 21 -45 -4
-22 -29 10 -11 16 -28 14 -38 -8 -39 -127 -7 -221 59 -16 11 -31 18 -34 15 -3
-3 19 -20 48 -36 76 -44 161 -104 173 -123 12 -19 -7 -48 -33 -48 -9 0 -42 16
-74 35 -32 19 -62 35 -67 35 -5 0 -24 12 -42 28 -18 15 -54 38 -80 50 -26 13
-58 36 -72 52 -25 30 -42 68 -34 76 7 6 70 -17 88 -31 8 -7 26 -16 40 -19 l25
-7 -26 17 c-31 20 -79 90 -79 116 0 19 25 25 35 8 3 -5 13 -10 22 -10 9 0 25
-7 35 -17 10 -9 20 -14 23 -11 3 3 -10 17 -30 32 -20 15 -35 36 -35 47 0 11
-5 30 -11 41 -13 24 5 42 31 32 8 -3 5 4 -8 16 l-23 22 -49 -41 -48 -41 -75
39 c-41 21 -83 47 -95 57 -39 36 -50 43 -77 50 -15 4 -31 17 -37 29 -9 20 -16
22 -45 18 -38 -6 -53 6 -53 44 0 19 -4 21 -35 16 -34 -5 -34 -5 -41 36 -6 40
-17 51 -29 31 -3 -5 -17 -10 -31 -10 -13 0 -24 5 -24 10 0 6 -7 10 -15 10 -8
0 -15 7 -15 16 0 11 -6 14 -22 9 -39 -12 -42 -11 -59 23 -25 48 -28 50 -49 22
-20 -26 -28 -25 -33 6 -5 31 -16 42 -37 37 -23 -6 -70 31 -70 55 0 10 -7 12
-25 8 -26 -7 -45 15 -45 53 0 27 -22 27 -45 1 -28 -31 -35 -24 -35 30 0 28 -4
50 -9 50 -5 0 -23 -13 -41 -30 -39 -36 -44 -37 -36 -6 4 15 1 30 -8 38 -9 10
-11 20 -4 31 10 18 -6 25 -17 7 -3 -5 -20 -10 -36 -10 l-30 0 7 48 6 47 -37
-35 c-35 -34 -37 -34 -51 -15 -8 11 -13 24 -10 31 2 6 0 17 -5 25 -6 11 -11
11 -21 1 -33 -33 -65 -1 -53 55 l6 28 -18 -21 c-24 -27 -60 -46 -67 -36 -2 4
-7 27 -10 50 -6 56 16 94 74 126 47 26 60 25 60 -2z m-1844 -39 l49 -28 -32
-3 c-31 -3 -93 21 -93 37 0 10 11 21 20 21 4 0 29 -12 56 -27z m104 -73 c13
-9 13 -10 0 -10 -8 0 -22 5 -30 10 -13 9 -13 10 0 10 8 0 22 -5 30 -10z m2140
-16 c0 -8 -4 -12 -10 -9 -5 3 -10 10 -10 16 0 5 5 9 10 9 6 0 10 -7 10 -16z
m2920 -61 c-1 -18 -17 -32 -45 -39 -27 -7 -29 -6 -16 9 7 9 17 14 22 11 5 -3
12 2 15 10 6 16 24 22 24 9z m-5686 -41 c2 -4 1 -27 -4 -50 l-8 -43 23 21 c22
21 24 21 49 5 14 -10 26 -23 26 -31 0 -10 13 -12 50 -10 28 2 50 2 50 -1 0 -2
-18 -38 -41 -79 -53 -96 -108 -132 -63 -41 l16 32 -34 -35 -33 -34 -5 29 c-5
24 -8 27 -15 15 -9 -14 -58 -50 -69 -50 -3 0 -8 20 -12 45 -7 51 -15 55 -38
20 -28 -43 -39 -31 -31 37 6 54 5 60 -9 55 -9 -4 -16 -4 -16 -1 0 11 31 64 38
65 29 3 48 10 57 21 11 14 45 36 57 37 4 1 9 -2 12 -7z m4685 -35 c15 -13 79
-54 145 -91 142 -81 216 -133 216 -152 0 -7 -9 -18 -20 -24 -16 -9 -25 -5 -52
20 -18 17 -45 34 -60 37 -15 3 -33 12 -39 19 -6 8 -18 14 -25 14 -7 0 -21 11
-29 24 -9 13 -34 31 -56 40 -49 20 -129 92 -129 117 0 26 19 24 49 -4z m981
13 c0 -5 -4 -10 -10 -10 -5 0 -10 5 -10 10 0 6 5 10 10 10 6 0 10 -4 10 -10z
m-3170 -87 c-1 -18 -18 -35 -24 -24 -4 6 -4 16 -1 21 7 12 25 13 25 3z m2196
-54 c16 -17 43 -37 59 -44 17 -7 24 -14 17 -14 -15 -1 -103 48 -114 64 -4 5
-8 13 -8 18 0 15 17 6 46 -24z m-4884 -21 c-7 -7 -12 -8 -12 -2 0 14 12 26 19
19 2 -3 -1 -11 -7 -17z m4708 1 c0 -5 -7 -9 -15 -9 -15 0 -20 12 -9 23 8 8 24
-1 24 -14z m-4257 -26 c-6 -37 -5 -38 13 -21 11 10 32 16 49 15 32 -3 36 -19
13 -64 -16 -31 -3 -40 24 -17 12 10 18 13 14 7 -11 -20 25 -16 40 4 17 24 30
8 16 -20 -6 -12 -14 -33 -17 -45 -7 -23 -7 -23 19 -7 14 10 32 15 40 12 9 -4
21 4 31 19 9 14 20 22 25 19 11 -7 3 -53 -13 -73 -17 -21 3 -28 21 -7 10 12
29 20 47 20 25 0 31 -4 33 -26 3 -25 6 -26 48 -21 45 5 49 2 45 -40 -2 -14 5
-18 34 -18 31 0 36 -3 41 -30 6 -28 8 -29 27 -15 22 16 77 21 77 8 0 -5 -4
-25 -9 -46 -9 -37 -9 -38 12 -24 12 8 37 17 56 20 l34 7 -7 -42 c-5 -33 -4
-39 6 -31 7 6 33 13 57 17 33 4 41 3 34 -7 -6 -6 -13 -26 -16 -44 l-6 -31 30
15 c44 22 62 11 57 -37 -3 -36 -2 -38 13 -24 9 8 30 17 45 18 26 3 30 0 34
-28 4 -27 9 -31 33 -29 15 1 27 -3 27 -8 0 -6 10 -8 23 -5 12 3 16 3 10 0 -7
-3 -13 -17 -13 -31 0 -23 3 -25 28 -19 81 20 79 21 74 -18 -4 -35 -3 -36 19
-28 13 5 37 12 52 16 28 7 28 6 21 -30 l-7 -37 47 6 c47 7 49 5 49 -38 0 -6
19 -8 43 -7 39 4 45 1 54 -22 9 -24 13 -26 50 -20 39 6 40 6 40 -23 0 -40 7
-45 42 -27 40 21 58 12 58 -29 0 -31 2 -34 25 -29 14 2 28 8 31 13 3 5 14 9
24 9 16 0 18 -5 13 -35 l-6 -35 47 0 c39 0 46 -3 51 -23 5 -20 12 -23 43 -22
40 1 52 -8 52 -40 0 -18 5 -20 35 -17 34 4 35 3 35 -32 0 -40 6 -43 36 -21 12
8 24 11 28 7 4 -3 11 0 17 8 7 11 8 7 3 -12 -5 -23 -2 -28 21 -34 15 -4 57
-24 94 -45 36 -22 69 -39 74 -39 4 0 13 -5 20 -10 31 -27 90 -60 104 -60 9 0
24 8 33 17 15 16 14 19 -17 40 -19 13 -38 23 -43 23 -6 0 -10 4 -10 9 0 5 -12
14 -27 20 -46 19 -78 39 -98 61 -18 19 -18 20 2 20 11 0 32 -9 46 -20 14 -11
37 -20 52 -20 27 0 75 -39 75 -61 0 -5 7 -9 15 -9 9 0 18 -7 21 -15 4 -8 15
-15 27 -15 28 0 57 -28 49 -48 -3 -10 -16 -25 -29 -35 -13 -10 -23 -23 -23
-29 0 -12 -62 -101 -99 -140 -32 -36 -55 -35 -110 2 -24 17 -50 30 -56 30 -7
0 -18 6 -24 14 -7 8 -27 18 -44 22 -18 3 -57 28 -87 54 -30 26 -68 51 -85 57
-22 7 -31 17 -33 36 -4 33 -18 34 -49 5 -21 -20 -24 -20 -41 -4 -13 11 -17 25
-14 41 5 28 -15 34 -47 13 -31 -19 -54 -3 -46 32 6 29 5 30 -19 24 -30 -7 -74
30 -68 59 5 23 -11 22 -33 -3 -26 -29 -42 -25 -55 15 -12 35 -23 44 -35 25 -3
-5 -17 -10 -29 -10 -20 0 -25 7 -30 41 -5 33 -10 40 -24 36 -9 -2 -24 -6 -32
-8 -10 -3 -17 9 -24 36 -13 52 -12 52 -41 25 -32 -30 -49 -16 -50 39 0 32 -3
38 -16 31 -9 -5 -21 -16 -29 -24 -29 -36 -46 -14 -40 52 2 27 -30 31 -54 6
-15 -14 -16 -14 -16 0 0 9 -5 16 -11 16 -8 0 -10 12 -6 35 l6 35 -39 -20 c-42
-21 -55 -15 -58 29 -1 31 -8 37 -27 21 -8 -7 -25 -10 -40 -6 -19 5 -25 13 -25
35 0 28 -1 29 -29 18 -40 -15 -61 -4 -61 33 0 18 -4 29 -10 25 -5 -3 -10 -15
-10 -26 0 -36 -38 -23 -57 21 -14 31 -22 39 -36 34 -24 -8 -67 22 -67 47 0 14
-6 19 -22 18 -45 -4 -58 1 -64 25 -5 23 -7 24 -39 10 -39 -16 -53 -6 -57 43
-1 23 -6 29 -18 25 -8 -3 -19 -11 -23 -19 -14 -24 -27 -14 -39 32 l-12 44 -32
-20 -33 -20 -11 22 c-7 12 -9 35 -6 50 5 26 3 28 -13 20 -9 -6 -23 -17 -31
-25 -7 -9 -18 -16 -26 -16 -16 0 -12 85 5 121 8 16 0 11 -24 -15 -40 -45 -55
-41 -36 10 15 42 10 52 -15 27 -16 -16 -17 -16 -11 -1 7 19 -8 34 -18 18 -3
-5 -16 -15 -27 -21 -20 -11 -21 -9 -15 25 4 28 2 36 -10 36 -11 0 -14 7 -9 28
l6 27 -24 -27 c-13 -15 -25 -31 -27 -37 -2 -5 -16 -13 -31 -16 -26 -7 -28 -5
-23 21 2 16 6 47 9 68 l5 39 -32 -29 c-17 -16 -36 -35 -40 -42 -15 -23 -27 -1
-27 51 0 44 5 59 31 90 26 31 37 37 69 37 l39 0 -6 -37z m4658 -85 c5 -10 7
-18 4 -18 -14 0 -61 30 -79 49 l-19 20 42 -16 c23 -9 47 -25 52 -35z m229 7
c0 -8 -4 -15 -9 -15 -13 0 -22 16 -14 24 11 11 23 6 23 -9z m-4510 -65 c0 -5
-4 -10 -10 -10 -5 0 -10 5 -10 10 0 6 5 10 10 10 6 0 10 -4 10 -10z m-320
-115 c0 -14 -4 -25 -10 -25 -5 0 -10 11 -10 25 0 14 5 25 10 25 6 0 10 -11 10
-25z m4547 -272 c39 -45 39 -48 12 -71 -11 -9 -30 -38 -41 -65 -21 -49 -24
-51 -101 -61 -30 -4 -40 -1 -50 15 -14 22 -35 24 -61 4 -10 -8 -24 -11 -29 -8
-6 4 -1 -7 11 -24 23 -32 26 -50 16 -77 -10 -26 -21 -18 -29 21 -7 36 -28 62
-52 63 -7 0 -13 -6 -13 -14 0 -7 -6 -19 -14 -25 -11 -9 -15 -8 -20 4 -6 17 49
75 68 72 6 -1 11 5 11 13 0 8 9 24 20 36 11 12 29 32 41 45 99 113 173 136
231 72z m-1107 -305 c45 -24 97 -51 116 -61 68 -35 169 -110 169 -126 0 -24
-43 -26 -68 -3 -12 11 -56 37 -97 57 -125 60 -143 71 -187 112 -44 41 -54 63
-29 63 7 0 51 -19 96 -42z m-375 2 c3 -5 3 -15 0 -20 -7 -12 -45 5 -45 20 0
13 37 13 45 0z m285 -47 c68 -47 120 -95 95 -87 -65 20 -135 67 -135 91 0 17
11 16 40 -4z m-190 -43 c0 -5 -2 -10 -4 -10 -3 0 -8 5 -11 10 -3 6 -1 10 4 10
6 0 11 -4 11 -10z m418 -88 c52 -33 117 -90 110 -98 -7 -7 -142 66 -184 100
-19 15 -32 31 -29 36 7 12 46 -3 103 -38z m-460 -119 c-22 -52 -80 -142 -95
-148 -13 -4 -15 2 -11 39 8 66 45 110 115 135 2 1 -3 -11 -9 -26z m-2258 -9
c0 -8 -4 -12 -10 -9 -5 3 -10 13 -10 21 0 8 5 12 10 9 6 -3 10 -13 10 -21z
m310 -21 c0 -19 -3 -24 -10 -17 -6 6 -8 18 -4 27 9 24 14 21 14 -10z m-210
-57 c0 -20 0 -20 -15 0 -8 10 -15 28 -15 38 0 20 0 20 15 0 8 -10 15 -28 15
-38z m1390 40 c0 -2 -7 -6 -15 -10 -8 -3 -15 -1 -15 4 0 6 7 10 15 10 8 0 15
-2 15 -4z m-1094 -63 c-10 -10 -19 5 -10 18 6 11 8 11 12 0 2 -7 1 -15 -2 -18z
m1659 8 c7 -12 -12 -24 -25 -16 -11 7 -4 25 10 25 5 0 11 -4 15 -9z m-1565
-66 c0 -14 -4 -25 -10 -25 -5 0 -10 11 -10 25 0 14 5 25 10 25 6 0 10 -11 10
-25z m-215 -6 c11 -17 -1 -21 -15 -4 -8 9 -8 15 -2 15 6 0 14 -5 17 -11z m95
-45 c0 -8 -4 -14 -10 -14 -5 0 -10 9 -10 21 0 11 5 17 10 14 6 -3 10 -13 10
-21z m95 -60 c16 -25 16 -25 -4 -14 -12 6 -21 17 -21 25 0 21 5 19 25 -11z
m300 -48 c-2 -6 -6 -24 -10 -40 -5 -23 -8 -27 -16 -15 -12 20 -11 60 3 100
l12 34 7 -34 c4 -19 6 -39 4 -45z m89 -75 c-7 -107 -15 -119 -47 -75 -17 23
-18 27 -3 43 9 10 16 35 16 57 0 36 25 92 37 81 2 -3 1 -50 -3 -106z m-216 18
c-3 -8 -7 -3 -11 10 -4 17 -3 21 5 13 5 -5 8 -16 6 -23z m94 -41 c-7 -7 -12
-8 -12 -2 0 14 12 26 19 19 2 -3 -1 -11 -7 -17z"/>
<path d="M18880 5510 c0 -5 7 -10 15 -10 8 0 15 5 15 10 0 6 -7 10 -15 10 -8
0 -15 -4 -15 -10z"/>
<path d="M21435 4259 c-9 -14 -2 -20 14 -10 8 6 9 11 3 15 -6 3 -14 1 -17 -5z"/>
<path d="M22068 3711 c-16 -9 -28 -19 -28 -23 0 -8 60 -42 65 -36 1 2 7 13 13
24 9 17 8 24 -6 36 -15 13 -20 13 -44 -1z"/>
<path d="M21156 3703 c-6 -14 -5 -15 5 -6 7 7 10 15 7 18 -3 3 -9 -2 -12 -12z"/>
<path d="M21695 3710 c-3 -5 -1 -10 4 -10 6 0 11 5 11 10 0 6 -2 10 -4 10 -3
0 -8 -4 -11 -10z"/>
<path d="M21828 3623 c7 -3 16 -2 19 1 4 3 -2 6 -13 5 -11 0 -14 -3 -6 -6z"/>
<path d="M21635 3540 c-11 -17 5 -32 21 -19 8 6 14 15 14 20 0 12 -27 11 -35
-1z"/>
<path d="M21767 3259 c7 -7 15 -10 18 -7 3 3 -2 9 -12 12 -14 6 -15 5 -6 -5z"/>
<path d="M21696 3216 c3 -9 11 -16 16 -16 13 0 5 23 -10 28 -7 2 -10 -2 -6
-12z"/>
<path d="M21875 3210 c3 -5 11 -10 16 -10 6 0 7 5 4 10 -3 6 -11 10 -16 10 -6
0 -7 -4 -4 -10z"/>
<path d="M17775 3330 c-10 -11 -16 -22 -14 -24 2 -2 12 7 22 20 22 29 17 32
-8 4z"/>
<path d="M20620 2555 c-7 -9 -11 -18 -8 -20 3 -3 11 1 18 10 7 9 11 18 8 20
-3 3 -11 -1 -18 -10z"/>
<path d="M16737 3116 c-4 -10 -5 -21 -2 -24 9 -9 17 6 13 25 -3 17 -4 17 -11
-1z"/>
<path d="M19330 5970 c0 -5 5 -10 10 -10 6 0 10 5 10 10 0 6 -4 10 -10 10 -5
0 -10 -4 -10 -10z"/>
<path d="M19250 5966 c0 -2 8 -10 18 -17 15 -13 16 -12 3 4 -13 16 -21 21 -21
13z"/>
<path d="M19280 5850 c0 -6 7 -10 15 -10 8 0 15 2 15 4 0 2 -7 6 -15 10 -8 3
-15 1 -15 -4z"/>
<path d="M19220 5781 c0 -5 9 -11 21 -14 16 -4 18 -3 8 9 -13 16 -29 19 -29 5z"/>
<path d="M19877 5527 c-3 -9 1 -21 9 -27 11 -10 14 -10 14 1 0 8 -4 20 -9 27
-7 11 -9 11 -14 -1z"/>
<path d="M18525 5440 c3 -5 10 -10 16 -10 5 0 9 5 9 10 0 6 -7 10 -16 10 -8 0
-12 -4 -9 -10z"/>
<path d="M17749 5273 c-13 -17 -13 -17 6 -3 11 8 22 16 24 17 2 2 0 3 -6 3 -6
0 -17 -8 -24 -17z"/>
<path d="M18200 5126 c0 -2 7 -7 16 -10 8 -3 12 -2 9 4 -6 10 -25 14 -25 6z"/>
<path d="M18337 5089 c7 -7 15 -10 18 -7 3 3 -2 9 -12 12 -14 6 -15 5 -6 -5z"/>
<path d="M18260 5086 c0 -2 8 -10 18 -17 15 -13 16 -12 3 4 -13 16 -21 21 -21
13z"/>
<path d="M18385 5080 c3 -5 0 -10 -7 -11 -7 0 -2 -5 11 -10 29 -12 38 -5 21
16 -14 17 -35 21 -25 5z"/>
<path d="M17600 5058 c-12 -22 -12 -22 6 -6 10 10 15 20 12 24 -4 3 -12 -5
-18 -18z"/>
<path d="M18215 5030 c10 -11 20 -20 23 -20 3 0 -3 9 -13 20 -10 11 -20 20
-23 20 -3 0 3 -9 13 -20z"/>
<path d="M18140 4970 c0 -5 5 -10 10 -10 6 0 10 5 10 10 0 6 -4 10 -10 10 -5
0 -10 -4 -10 -10z"/>
<path d="M17980 4960 c0 -5 5 -10 11 -10 5 0 7 5 4 10 -3 6 -8 10 -11 10 -2 0
-4 -4 -4 -10z"/>
<path d="M18185 4770 c3 -5 11 -10 16 -10 6 0 7 5 4 10 -3 6 -11 10 -16 10 -6
0 -7 -4 -4 -10z"/>
<path d="M18095 4600 c3 -5 8 -10 11 -10 2 0 4 5 4 10 0 6 -5 10 -11 10 -5 0
-7 -4 -4 -10z"/>
<path d="M17025 3780 c3 -5 10 -10 16 -10 5 0 9 5 9 10 0 6 -7 10 -16 10 -8 0
-12 -4 -9 -10z"/>
<path d="M16960 3702 c15 -12 29 -17 34 -11 12 11 7 16 -29 25 l-30 7 25 -21z"/>
<path d="M16916 3611 c-7 -11 90 -61 120 -61 17 0 20 -5 16 -25 -4 -25 11 -35
23 -15 4 6 11 8 16 5 5 -4 9 -3 9 0 0 17 -96 89 -109 81 -5 -3 -11 1 -15 9 -6
16 -51 21 -60 6z"/>
<path d="M22672 3391 c-10 -6 -6 -10 15 -14 15 -3 32 -1 38 4 5 6 5 9 -2 9 -6
0 -17 2 -25 5 -7 3 -19 1 -26 -4z"/>
<path d="M22740 3330 c0 -5 5 -10 11 -10 5 0 7 5 4 10 -3 6 -8 10 -11 10 -2 0
-4 -4 -4 -10z"/>
<path d="M22735 3281 c-6 -11 9 -23 19 -14 9 9 7 23 -3 23 -6 0 -12 -4 -16 -9z"/>
<path d="M19578 1301 c40 -38 76 -44 46 -8 -10 12 -19 23 -19 24 0 1 -14 4
-30 8 l-30 7 33 -31z"/>
<path d="M19412 1295 c-10 -12 -7 -17 17 -30 40 -20 42 -20 25 15 -17 33 -23
36 -42 15z"/>
<path d="M19906 1254 c-7 -19 2 -37 15 -29 12 8 12 45 0 45 -5 0 -12 -7 -15
-16z"/>
<path d="M19582 1177 c68 -46 98 -61 98 -48 0 15 -35 39 -94 65 -32 14 -60 26
-63 26 -2 0 24 -19 59 -43z"/>
<path d="M19490 1121 c0 -5 5 -13 10 -16 6 -3 10 -2 10 4 0 5 -4 13 -10 16 -5
3 -10 2 -10 -4z"/>
<path d="M19700 1110 c20 -13 33 -13 25 0 -3 6 -14 10 -23 10 -15 0 -15 -2 -2
-10z"/>
<path d="M19445 1040 c31 -34 103 -81 110 -71 6 11 -42 50 -95 76 l-35 18 20
-23z"/>
<path d="M19631 1036 c2 -2 15 -9 29 -16 23 -12 24 -12 11 3 -7 10 -20 17 -29
17 -8 0 -13 -2 -11 -4z"/>
<path d="M19630 921 c0 -5 13 -11 30 -13 24 -4 27 -2 19 9 -13 15 -49 18 -49
4z"/>
<path d="M19707 870 c3 -11 9 -17 15 -14 5 3 4 12 -3 20 -16 19 -18 18 -12 -6z"/>
</g>
</svg>
