<?xml version="1.0" standalone="no"?>
<!DOCTYPE svg PUBLIC "-//W3C//DTD SVG 20010904//EN"
 "http://www.w3.org/TR/2001/REC-SVG-20010904/DTD/svg10.dtd">
<svg version="1.0" xmlns="http://www.w3.org/2000/svg"
 width="150.000000pt" height="164.000000pt" viewBox="0 0 150.000000 164.000000"
 preserveAspectRatio="xMidYMid meet">

<g transform="translate(0.000000,164.000000) scale(0.100000,-0.100000)"
fill="#000000" stroke="none">
<path d="M682 1425 c-51 -46 -95 -145 -123 -275 -19 -88 -23 -137 -23 -303
l-1 -199 -50 7 c-86 11 -196 36 -252 57 -62 23 -123 71 -123 97 0 42 87 94
211 125 81 20 78 20 72 -4 -3 -12 0 -20 6 -20 14 0 60 50 61 66 0 14 -43 54
-58 54 -15 0 -16 -27 -1 -36 6 -4 -29 -17 -78 -29 -146 -37 -243 -97 -243
-151 0 -38 10 -53 57 -85 60 -42 164 -75 299 -96 l113 -18 7 -45 c11 -71 52
-191 84 -240 31 -48 75 -80 110 -80 79 0 160 130 191 305 l11 62 106 18 c375
61 458 213 170 309 -93 31 -224 53 -374 62 -102 6 -114 5 -114 -10 0 -13 10
-16 49 -16 162 0 396 -42 494 -89 168 -80 76 -173 -223 -226 -47 -8 -88 -15
-92 -15 -4 0 -5 54 -1 120 5 103 4 120 -9 120 -12 0 -16 -22 -21 -116 -4 -64
-9 -120 -13 -123 -9 -9 -341 -7 -351 2 -4 5 -8 95 -7 200 1 206 16 314 64 442
25 66 85 135 118 135 32 0 87 -54 110 -107 30 -71 55 -160 40 -145 -15 15 -38
16 -38 2 0 -13 51 -59 66 -60 14 0 64 53 64 68 0 15 -22 16 -38 0 -9 -9 -12
-8 -16 3 -55 184 -115 269 -190 269 -16 0 -41 -14 -64 -35z m238 -818 c0 -30
-37 -162 -60 -212 -28 -63 -78 -115 -110 -115 -31 0 -86 56 -109 111 -21 47
-61 189 -61 213 0 8 54 11 170 11 94 0 170 -4 170 -8z"/>
</g>
</svg>
