<svg width="34" height="37" viewBox="0 0 34 37" fill="none" xmlns="http://www.w3.org/2000/svg">
<g id="refresh (1)" opacity="0.217285">
<path id="Path" d="M30.064 0C29.3422 0 28.7571 0.585122 28.7571 1.30693V6.08102C22.0286 -0.433117 11.2934 -0.259288 4.77925 6.46911C1.70929 9.64007 -0.00334156 13.8831 0.00515844 18.2967C0.00515844 19.0185 0.59028 19.6036 1.31209 19.6036C2.0339 19.6036 2.61895 19.0185 2.61895 18.2967C2.62055 10.3571 9.05812 3.92195 16.9978 3.92355C21.0301 3.92432 24.8766 5.61858 27.5992 8.59289L21.8096 10.5232C21.124 10.7513 20.753 11.492 20.9811 12.1777C21.2092 12.8633 21.9499 13.2343 22.6356 13.0062L30.477 10.3924C31.0123 10.2142 31.3728 9.71244 31.371 9.1483V1.30686C31.3709 0.585122 30.7858 0 30.064 0Z" fill="black"/>
<path id="Path_2" d="M32.6778 16.9899C31.956 16.9899 31.3708 17.575 31.3708 18.2968C31.3692 26.2364 24.9317 32.6715 16.992 32.6699C12.9597 32.6692 9.11316 30.9749 6.39056 28.0006L12.1801 26.0703C12.8658 25.8422 13.2368 25.1015 13.0087 24.4158C12.7806 23.7301 12.0398 23.3591 11.3542 23.5872L3.51274 26.201C2.97747 26.3793 2.61702 26.881 2.61878 27.4452V35.2866C2.61878 36.0084 3.2039 36.5935 3.92571 36.5935C4.64752 36.5935 5.23265 36.0084 5.23265 35.2866V30.5124C11.9611 37.0266 22.6964 36.8528 29.2105 30.1244C32.2804 26.9534 33.993 22.7104 33.9845 18.2968C33.9847 17.575 33.3996 16.9899 32.6778 16.9899Z" fill="black"/>
</g>
</svg>
