<svg width="34" height="38" viewBox="0 0 34 38" fill="none" xmlns="http://www.w3.org/2000/svg">
<g id="shield (3)" opacity="0.217285">
<path id="Shape" fill-rule="evenodd" clip-rule="evenodd" d="M28.0248 1.09178C28.0248 3.75264 30.1896 5.91753 32.8506 5.91753H33.9424V13.178C33.9424 18.3953 32.3708 23.4191 29.3972 27.7062C26.4238 31.9932 22.2692 35.2255 17.3826 37.0535L17 37.1966L16.6175 37.0535C11.731 35.2255 7.57634 31.9931 4.60279 27.7062C1.62925 23.4191 0.0576172 18.3953 0.0576172 13.178V5.91753H1.14939C3.81026 5.91753 5.97514 3.75279 5.97514 1.09178V0H28.0248V1.09178ZM31.7588 13.178H31.7589V8.01623C28.7664 7.54618 26.3962 5.17599 25.9262 2.18356H8.07384C7.6038 5.17599 5.23361 7.54618 2.24117 8.01623V13.178C2.24117 17.9484 3.67818 22.5419 6.39695 26.4616C9.03769 30.269 12.6977 33.1666 16.9999 34.8613C21.3022 33.1666 24.9622 30.269 27.6029 26.4616C30.3218 22.5418 31.7588 17.9484 31.7588 13.178Z" fill="black"/>
<path id="Shape_2" fill-rule="evenodd" clip-rule="evenodd" d="M14.6447 17.4842L21.8717 10.2572L26.5037 14.8893L14.6447 26.7483L7.49609 19.5996L12.1281 14.9676L14.6447 17.4842ZM12.1282 18.0558L10.5841 19.5998L14.6448 23.6604L23.4158 14.8894L21.8718 13.3454L14.6448 20.5724L12.1282 18.0558Z" fill="black"/>
</g>
</svg>
